<?xml version="1.0" encoding="UTF-8" standalone="no"?>
<!-- Created with Inkscape (http://www.inkscape.org/) -->

<svg
   width="169.33333mm"
   height="169.33333mm"
   viewBox="0 0 599.99998 599.99998"
   id="svg8103"
   version="1.1"
   inkscape:version="1.3.2 (091e20e, 2023-11-25, custom)"
   sodipodi:docname="A2.svg"
   xmlns:inkscape="http://www.inkscape.org/namespaces/inkscape"
   xmlns:sodipodi="http://sodipodi.sourceforge.net/DTD/sodipodi-0.dtd"
   xmlns="http://www.w3.org/2000/svg"
   xmlns:svg="http://www.w3.org/2000/svg"
   xmlns:rdf="http://www.w3.org/1999/02/22-rdf-syntax-ns#"
   xmlns:cc="http://creativecommons.org/ns#"
   xmlns:dc="http://purl.org/dc/elements/1.1/">
  <defs
     id="defs8105" />
  <sodipodi:namedview
     id="base"
     pagecolor="#ffffff"
     bordercolor="#666666"
     borderopacity="1.0"
     inkscape:pageopacity="0.0"
     inkscape:pageshadow="2"
     inkscape:zoom="0.35"
     inkscape:cx="662.85714"
     inkscape:cy="-430"
     inkscape:document-units="px"
     inkscape:current-layer="g5978"
     showgrid="false"
     fit-margin-top="0"
     fit-margin-left="0"
     fit-margin-right="0"
     fit-margin-bottom="0"
     inkscape:window-width="1920"
     inkscape:window-height="1001"
     inkscape:window-x="-9"
     inkscape:window-y="-9"
     inkscape:window-maximized="1"
     inkscape:showpageshadow="2"
     inkscape:pagecheckerboard="0"
     inkscape:deskcolor="#d1d1d1" />
  <metadata
     id="metadata8108">
    <rdf:RDF>
      <cc:Work
         rdf:about="">
        <dc:format>image/svg+xml</dc:format>
        <dc:type
           rdf:resource="http://purl.org/dc/dcmitype/StillImage" />
        <dc:title />
      </cc:Work>
    </rdf:RDF>
  </metadata>
  <g
     inkscape:label="Laag 1"
     inkscape:groupmode="layer"
     id="layer1"
     transform="translate(918.56142,951.93348)">
    <g
       transform="matrix(2.1164096,0,0,-2.1164096,-1244.4867,190.92378)"
       xml:space="preserve"
       style="font-style:normal;font-variant:normal;font-weight:normal;font-stretch:normal;letter-spacing:normal;word-spacing:normal;text-anchor:start;fill:none;stroke:#000000;stroke-width:1.15231085;stroke-linecap:butt;stroke-linejoin:miter;stroke-miterlimit:10.43299961;stroke-dasharray:none;stroke-dashoffset:0;stroke-opacity:1"
       id="g5978"><path
         inkscape:connector-curvature="0"
         d="m 295.25,256.75 7.32,0.14 7.21,0.51 7.12,0.86 7,1.21 6.87,1.55 6.74,1.88 6.6,2.19 6.45,2.51 6.29,2.82 6.13,3.1 5.94,3.39 5.76,3.67 5.57,3.93 5.36,4.19 5.15,4.43 4.93,4.68 4.7,4.9 4.46,5.13 4.21,5.34 3.96,5.54 3.69,5.73 3.41,5.92 3.14,6.1 2.84,6.26 2.54,6.42 2.23,6.57 1.91,6.71 1.58,6.84 1.25,6.96 0.9,7.07 0.55,7.18 0.19,7.27 c -0.02,78.52 -63.48,141.98 -142,142 -78.03,-0.02 -141.48,-63.48 -141,-142 -0.48,-78.03 62.97,-141.48 141,-141 z"
         style="fill:#ffffff;fill-rule:nonzero;stroke:#ffffff;stroke-width:0"
         id="path5980" /><path
         inkscape:connector-curvature="0"
         d="m 295.25,256.75 7.32,0.14 7.21,0.51 7.12,0.86 7,1.21 6.87,1.55 6.74,1.88 6.6,2.19 6.45,2.51 6.29,2.82 6.13,3.1 5.94,3.39 5.76,3.67 5.57,3.93 5.36,4.19 5.15,4.43 4.93,4.68 4.7,4.9 4.46,5.13 4.21,5.34 3.96,5.54 3.69,5.73 3.41,5.92 3.14,6.1 2.84,6.26 2.54,6.42 2.23,6.57 1.91,6.71 1.58,6.84 1.25,6.96 0.9,7.07 0.55,7.18 0.19,7.27 c -0.02,78.52 -63.48,141.98 -142,142 -78.03,-0.02 -141.48,-63.48 -141,-142 -0.48,-78.03 62.97,-141.48 141,-141 z"
         style="stroke:#000000;stroke-width:0.49628839;stroke-miterlimit:10.43299961;stroke-dasharray:none;stroke-opacity:1"
         id="path5982" /><path
         inkscape:connector-curvature="0"
         d="m 255.25,276.75 -1.41,0.54 -1.4,0.54 -1.38,0.52 -1.38,0.52 -1.37,0.5 -1.36,0.48 -1.35,0.46 -1.35,0.44 127,220 c 2.96,-2.25 5.85,-4.59 9,-7 l -125,-217 z"
         style="fill:#000000;fill-rule:nonzero;stroke-width:0"
         id="path5990" /><path
         inkscape:connector-curvature="0"
         d="m 347.25,514.75 -1.3,0.53 -1.31,0.52 -1.32,0.51 -1.36,0.51 -1.37,0.5 -0.71,0.24 -0.7,0.24 -0.72,0.24 -0.73,0.24 -0.73,0.24 -0.75,0.23 -125,-217 c 3.03,-2.2 6.09,-4.59 9,-7 l 127,220 z"
         style="fill:#000000;fill-rule:nonzero;stroke-width:0"
         id="path5992" /><path
         inkscape:connector-curvature="0"
         d="m 364.25,505.75 -1.14,0.64 -1.17,0.66 -1.2,0.65 -0.61,0.33 -0.62,0.33 -0.63,0.32 -0.64,0.31 -0.64,0.32 -0.65,0.3 -0.66,0.3 -0.67,0.29 -0.68,0.28 -0.69,0.27 -127,-220 c 3.06,-2.41 6.27,-4.28 10,-6 l 127,221 z"
         style="fill:#000000;fill-rule:nonzero;stroke-width:0"
         id="path5994" /></g>
  </g>
</svg>
