<?xml version="1.0" encoding="UTF-8" standalone="no"?>
<!-- Created with Inkscape (http://www.inkscape.org/) -->

<svg
   width="197.55556mm"
   height="160.86697mm"
   viewBox="0 0 700.00001 570.00109"
   id="svg6761"
   version="1.1"
   inkscape:version="1.3.2 (091e20e, 2023-11-25, custom)"
   sodipodi:docname="A3.svg"
   xmlns:inkscape="http://www.inkscape.org/namespaces/inkscape"
   xmlns:sodipodi="http://sodipodi.sourceforge.net/DTD/sodipodi-0.dtd"
   xmlns="http://www.w3.org/2000/svg"
   xmlns:svg="http://www.w3.org/2000/svg"
   xmlns:rdf="http://www.w3.org/1999/02/22-rdf-syntax-ns#"
   xmlns:cc="http://creativecommons.org/ns#"
   xmlns:dc="http://purl.org/dc/elements/1.1/">
  <defs
     id="defs6763" />
  <sodipodi:namedview
     id="base"
     pagecolor="#ffffff"
     bordercolor="#666666"
     borderopacity="1.0"
     inkscape:pageopacity="0.0"
     inkscape:pageshadow="2"
     inkscape:zoom="0.98994949"
     inkscape:cx="228.29448"
     inkscape:cy="194.45436"
     inkscape:document-units="px"
     inkscape:current-layer="g5798"
     showgrid="false"
     fit-margin-top="0"
     fit-margin-left="0"
     fit-margin-right="0"
     fit-margin-bottom="0"
     inkscape:window-width="1920"
     inkscape:window-height="1001"
     inkscape:window-x="-9"
     inkscape:window-y="-9"
     inkscape:window-maximized="1"
     inkscape:showpageshadow="2"
     inkscape:pagecheckerboard="0"
     inkscape:deskcolor="#d1d1d1" />
  <metadata
     id="metadata6766">
    <rdf:RDF>
      <cc:Work
         rdf:about="">
        <dc:format>image/svg+xml</dc:format>
        <dc:type
           rdf:resource="http://purl.org/dc/dcmitype/StillImage" />
        <dc:title />
      </cc:Work>
    </rdf:RDF>
  </metadata>
  <g
     inkscape:label="Laag 1"
     inkscape:groupmode="layer"
     id="layer1"
     transform="translate(-116.42864,191.99603)">
    <g
       transform="matrix(2.4911031,0,0,-2.5110178,-252.87738,1045.308)"
       xml:space="preserve"
       style="font-style:normal;font-variant:normal;font-weight:normal;font-stretch:normal;letter-spacing:normal;word-spacing:normal;text-anchor:start;fill:none;stroke:#000000;stroke-width:0.97477633;stroke-linecap:butt;stroke-linejoin:miter;stroke-miterlimit:10.43299961;stroke-dasharray:none;stroke-dashoffset:0;stroke-opacity:1"
       id="g5798"><polygon
         points="429.25,492.75 148.25,492.75 148.25,265.75 148.25,265.75 429.25,265.75 "
         style="fill:#000000;fill-rule:nonzero;stroke-width:0"
         id="polygon5800" /><path
         inkscape:connector-curvature="0"
         d="m 402.25,272.75 1.01,0.06 0.99,0.11 0.98,0.16 0.97,0.2 0.94,0.25 0.93,0.29 0.91,0.33 0.89,0.37 0.87,0.41 0.84,0.45 0.83,0.49 0.79,0.52 0.78,0.56 0.74,0.59 0.72,0.63 0.69,0.66 0.65,0.68 0.63,0.72 0.59,0.75 0.56,0.77 0.53,0.8 0.49,0.82 0.45,0.85 0.41,0.87 0.38,0.9 0.33,0.91 0.3,0.93 0.25,0.95 0.2,0.97 0.17,0.99 0.11,1 0.07,1.01 0,174 c -0.48,10.25 -9.18,18.95 -20,19 l -227,0 c -10.82,-0.05 -19.52,-8.75 -20,-19 l 0,-174 c 0.48,-10.88 9.18,-19.59 20,-20 l 227,0 z"
         style="stroke:#ffffff;stroke-width:0.34117174;stroke-dasharray:0.97477633, 0.97477633"
         id="path5802" /></g>
  </g>
</svg>
