<?xml version="1.0" encoding="UTF-8" standalone="no"?>
<!-- Created with Inkscape (http://www.inkscape.org/) -->

<svg
   width="300"
   height="300"
   id="svg2"
   version="1.1"
   inkscape:version="1.3.2 (091e20e, 2023-11-25, custom)"
   sodipodi:docname="A5.svg"
   xmlns:inkscape="http://www.inkscape.org/namespaces/inkscape"
   xmlns:sodipodi="http://sodipodi.sourceforge.net/DTD/sodipodi-0.dtd"
   xmlns="http://www.w3.org/2000/svg"
   xmlns:svg="http://www.w3.org/2000/svg"
   xmlns:rdf="http://www.w3.org/1999/02/22-rdf-syntax-ns#"
   xmlns:cc="http://creativecommons.org/ns#"
   xmlns:dc="http://purl.org/dc/elements/1.1/">
  <defs
     id="defs4" />
  <sodipodi:namedview
     id="base"
     pagecolor="#ffffff"
     bordercolor="#666666"
     borderopacity="1.0"
     inkscape:pageopacity="0.0"
     inkscape:pageshadow="2"
     inkscape:zoom="1.7979128"
     inkscape:cx="-156.29234"
     inkscape:cy="-16.964116"
     inkscape:document-units="px"
     inkscape:current-layer="layer1"
     showgrid="false"
     showborder="false"
     inkscape:showpageshadow="false"
     fit-margin-top="0"
     fit-margin-left="0"
     fit-margin-right="0"
     fit-margin-bottom="0"
     inkscape:window-width="1920"
     inkscape:window-height="1001"
     inkscape:window-x="-9"
     inkscape:window-y="-9"
     inkscape:window-maximized="1"
     inkscape:pagecheckerboard="0"
     inkscape:deskcolor="#d1d1d1" />
  <metadata
     id="metadata7">
    <rdf:RDF>
      <cc:Work
         rdf:about="">
        <dc:format>image/svg+xml</dc:format>
        <dc:type
           rdf:resource="http://purl.org/dc/dcmitype/StillImage" />
        <dc:title />
      </cc:Work>
    </rdf:RDF>
  </metadata>
  <g
     inkscape:label="Laag 1"
     inkscape:groupmode="layer"
     id="layer1"
     transform="translate(-406.49988,-100.02573)">
    <g
       transform="matrix(1.0599866,0,0,-1.056338,243.01815,669.12783)"
       xml:space="preserve"
       style="font-style:normal;font-variant:normal;font-weight:normal;font-stretch:normal;letter-spacing:normal;word-spacing:normal;text-anchor:start;fill:none;stroke:#000000;stroke-width:1.15197277;stroke-linecap:butt;stroke-linejoin:miter;stroke-miterlimit:10.43299961;stroke-dasharray:none;stroke-dashoffset:0;stroke-opacity:1"
       id="g5751"><path
         inkscape:connector-curvature="0"
         d="m 154.25,526.75 -0.02,0.62 0.02,0.61 0.04,0.6 0.08,0.59 0.1,0.58 0.13,0.56 0.16,0.56 0.18,0.53 0.21,0.53 0.24,0.51 0.26,0.49 0.28,0.48 0.3,0.47 0.33,0.44 0.35,0.43 0.36,0.41 0.39,0.39 0.41,0.37 0.42,0.35 0.44,0.33 0.45,0.31 0.48,0.29 0.48,0.27 0.5,0.24 0.51,0.22 0.53,0.19 0.54,0.17 0.55,0.15 0.55,0.12 0.57,0.09 0.58,0.06 0.58,0.04 261,0 c 6.05,-0.25 11.13,-5.33 11,-12 l 0,-260 c 0.13,-6.64 -4.95,-11.71 -11,-12 l -261,0 c -6.26,0.29 -11.34,5.36 -11,12 l 0,260 z"
         style="fill:#004d9f;fill-opacity:1;fill-rule:nonzero;stroke:#0099ff;stroke-width:0"
         id="path5753" /><path
         inkscape:connector-curvature="0"
         d="m 416.25,261.75 0.77,0 0.76,0.04 0.74,0.07 0.73,0.11 0.72,0.15 0.7,0.18 0.68,0.21 0.67,0.24 0.66,0.28 0.63,0.3 0.62,0.33 0.59,0.36 0.58,0.39 0.55,0.42 0.54,0.44 0.51,0.46 0.49,0.49 0.46,0.51 0.44,0.54 0.42,0.55 0.39,0.57 0.36,0.6 0.33,0.61 0.31,0.62 0.28,0.65 0.25,0.66 0.21,0.67 0.19,0.69 0.16,0.7 0.12,0.71 0.09,0.72 0.05,0.73 0,242 c -0.39,7.88 -6.74,14.23 -15,14 l -242,0 c -7.47,0.23 -13.82,-6.12 -14,-14 l 0,-242 c 0.18,-7.85 6.53,-14.2 14,-14 l 242,0 z"
         style="fill:#ffffff;fill-rule:nonzero;stroke:#ffffff;stroke-width:0"
         id="path5755" /><path
         inkscape:connector-curvature="0"
         d="m 416.25,268.75 0.4,0 0.4,0.02 0.39,0.03 0.38,0.06 0.38,0.07 0.36,0.09 0.36,0.1 0.35,0.12 0.34,0.14 0.33,0.15 0.32,0.17 0.31,0.18 0.3,0.19 0.28,0.21 0.28,0.22 0.27,0.23 0.26,0.25 0.24,0.25 0.23,0.27 0.22,0.28 0.21,0.28 0.2,0.3 0.18,0.31 0.17,0.31 0.15,0.32 0.15,0.33 0.12,0.34 0.12,0.34 0.1,0.35 0.08,0.36 0.07,0.36 0.05,0.37 0,242 c -0.48,3.97 -3.65,7.15 -8,7 l -242,0 c -3.56,0.15 -6.73,-3.03 -7,-7 l 0,-242 c 0.27,-3.94 3.44,-7.11 7,-7 l 242,0 z"
         style="fill:#004d9f;fill-opacity:1;fill-rule:nonzero;stroke:#0099ff;stroke-width:0"
         id="path5757" /><path
         inkscape:connector-curvature="0"
         d="m 357.25,483.75 -1.29,0.01 -1.3,-0.06 -1.33,-0.11 -1.33,-0.19 -1.35,-0.25 -1.34,-0.32 -1.35,-0.39 -1.34,-0.47 -1.34,-0.55 -1.32,-0.63 -1.31,-0.71 -1.28,-0.8 -1.27,-0.89 -1.23,-0.97 -1.2,-1.07 -1.16,-1.16 -1.12,-1.26 -1.08,-1.36 -1.03,-1.46 -0.97,-1.56 -0.92,-1.67 -0.85,-1.79 -0.79,-1.89 -0.72,-2 -0.65,-2.13 -0.57,-2.24 -0.49,-2.36 -0.4,-2.49 -0.17,-1.29 -0.14,-1.32 -0.12,-1.36 -0.1,-1.38 -0.07,-1.42 -0.05,-1.45 -0.02,-1.49 0,-1.52 c -0.37,-33.13 17.56,-42.75 31,-43 13.62,0.25 31.21,9.87 31,43 0.21,32.77 -17.55,42.4 -31,42 z"
         style="fill:#004d9f;fill-opacity:1;fill-rule:nonzero;stroke:#0099ff;stroke-width:0"
         id="path5763" /><polygon
         points="194.25,289.75 194.25,341.75 203.25,345.75 203.25,315.75 216.25,330.75 228.25,330.75 217.25,317.75 228.25,289.75 218.25,289.75 218.25,289.75 210.25,309.75 203.25,301.75 203.25,289.75 "
         style="fill:#ffffff;fill-rule:nonzero;stroke:#ffffff;stroke-width:0"
         id="polygon5765" /><path
         inkscape:connector-curvature="0"
         d="m 261.25,330.75 0.4,0.01 0.41,-0.01 0.4,-0.02 0.4,-0.03 0.4,-0.05 0.4,-0.06 0.4,-0.07 0.39,-0.09 0.39,-0.1 0.39,-0.11 0.38,-0.12 0.38,-0.14 0.38,-0.15 0.37,-0.17 0.37,-0.17 0.36,-0.19 0.35,-0.2 0.35,-0.21 0.34,-0.22 0.34,-0.24 0.33,-0.24 0.32,-0.26 0.32,-0.27 0.3,-0.28 0.3,-0.29 0.29,-0.3 0.28,-0.31 0.27,-0.32 0.27,-0.33 0.25,-0.35 0.24,-0.35 0.23,-0.36 c 3.14,3.92 7.42,6.17 12,6 8.54,0.17 15.29,-6.58 15,-15 l 0,-26 -9,0 0,24 c 0.22,4.27 -3.3,7.79 -8,8 -4,-0.21 -7.53,-3.73 -8,-8 l 0,-24 -9,0 0,24 c 0.39,4.27 -3.21,7.79 -8,8 -3.91,-0.21 -7.43,-3.73 -7,-8 l 0,-24 -9,0 0,41 9,0 0,-5 c 2.34,3.37 6.25,5.17 11,5 z"
         style="fill:#ffffff;fill-rule:nonzero;stroke:#ffffff;stroke-width:0"
         id="path5767" /><path
         inkscape:connector-curvature="0"
         d="m 369.25,345.75 0,-19 c 3.2,2.37 6.87,4.17 11,4 8.47,0.17 15.07,-6.58 15,-15 l 0,-26 -9,0 0,23 c 0,4.97 -3.61,8.79 -8,9 -4.98,-0.21 -8.5,-4.03 -9,-9 l 0,-23 -9,0 0,52 9,4 z"
         style="fill:#ffffff;fill-rule:nonzero;stroke:#ffffff;stroke-width:0"
         id="path5769" /><polygon
         points="316.25,279.75 342.25,348.75 348.25,348.75 348.25,348.75 322.25,279.75 "
         style="fill:#ffffff;fill-rule:nonzero;stroke:#ffffff;stroke-width:0"
         id="polygon5771" /><path
         inkscape:connector-curvature="0"
         d="m 188.31366,266.58577 -15.19825,0 c -4.07315,-0.1017 -6.83922,3.41679 -7.09253,7.1183 l 0,15.2535 237.09278,237.9546 16.21147,0 c 3.64759,0.14235 6.56565,-3.34561 6.0793,-7.11831 l 0,-14.2366 -237.09277,-238.97149 z"
         style="fill:#e3001b;fill-opacity:1;fill-rule:nonzero;stroke:#ffffff;stroke-width:7.08775473;stroke-miterlimit:10.43299961;stroke-dasharray:none;stroke-opacity:1"
         id="path5773" /></g>
  </g>
</svg>
