<?xml version="1.0" encoding="UTF-8" standalone="no"?>
<!-- Created with Inkscape (http://www.inkscape.org/) -->

<svg
   xmlns:dc="http://purl.org/dc/elements/1.1/"
   xmlns:cc="http://creativecommons.org/ns#"
   xmlns:rdf="http://www.w3.org/1999/02/22-rdf-syntax-ns#"
   xmlns:svg="http://www.w3.org/2000/svg"
   xmlns="http://www.w3.org/2000/svg"
   xmlns:sodipodi="http://sodipodi.sourceforge.net/DTD/sodipodi-0.dtd"
   xmlns:inkscape="http://www.inkscape.org/namespaces/inkscape"
   width="155.22223mm"
   height="155.22388mm"
   viewBox="0 0 550.00002 550.00586"
   id="svg8685"
   version="1.1"
   inkscape:version="0.91 r13725"
   sodipodi:docname="Verkeersbord B1.svg">
  <defs
     id="defs8687" />
  <sodipodi:namedview
     id="base"
     pagecolor="#ffffff"
     bordercolor="#666666"
     borderopacity="1.0"
     inkscape:pageopacity="0.0"
     inkscape:pageshadow="2"
     inkscape:zoom="0.35"
     inkscape:cx="-602.47296"
     inkscape:cy="27.52727"
     inkscape:document-units="px"
     inkscape:current-layer="layer1"
     showgrid="false"
     fit-margin-top="0"
     fit-margin-left="0"
     fit-margin-right="0"
     fit-margin-bottom="0"
     inkscape:window-width="1600"
     inkscape:window-height="837"
     inkscape:window-x="-8"
     inkscape:window-y="-8"
     inkscape:window-maximized="1" />
  <metadata
     id="metadata8690">
    <rdf:RDF>
      <cc:Work
         rdf:about="">
        <dc:format>image/svg+xml</dc:format>
        <dc:type
           rdf:resource="http://purl.org/dc/dcmitype/StillImage" />
        <dc:title></dc:title>
      </cc:Work>
    </rdf:RDF>
  </metadata>
  <g
     inkscape:label="Laag 1"
     inkscape:groupmode="layer"
     id="layer1"
     transform="translate(-347.47296,-9.8836077)">
    <g
       id="g4083"
       transform="matrix(-1.8720859,0.00387458,0.00387429,-1.8720859,-1648.2848,1671.3265)">
      <path
         inkscape:connector-curvature="0"
         d="m -1355.7809,744.92964 -0.175,-0.2 -0.175,-0.2125 -0.1625,-0.19999 -0.15,-0.2125 -0.15,-0.2 -0.15,-0.2 -0.1375,-0.2125 -0.125,-0.2 -0.125,-0.2 -0.125,-0.19999 -0.1125,-0.2125 -0.1,-0.2 -0.1,-0.2 -0.1,-0.2 -0.088,-0.1875 -0.075,-0.2 -0.075,-0.2 -0.075,-0.19999 -0.062,-0.1875 -0.05,-0.2 -0.05,-0.1875 -0.05,-0.1875 -0.037,-0.2 -0.025,-0.1875 -0.025,-0.1875 -0.025,-0.18749 -0.013,-0.1875 0,-0.175 0,-0.1875 0,-0.175 0.013,-0.1875 0.025,-0.175 c -0.25,-2.46248 0.575,-4.64997 2.5,-6.24996 l 137.4991,-138.74911 c 2.2125,-1.28749 4.3874,-2.12499 6.2499,-2.49998 2.4875,0.37499 4.6625,1.21249 6.25,2.49998 l 138.7491,138.74911 c 1.275,1.56249 2.1,3.71248 2.5,6.24996 -0.375,1.77499 -1.1875,4.02498 -2.5,6.24996 l -138.7491,137.49912 c -1.5875,1.92499 -3.7625,2.74998 -6.25,2.49999 -1.8625,0.24999 -4.0374,-0.575 -6.2499,-2.49999 l -137.4991,-137.49912 z"
         style="font-style:normal;font-variant:normal;font-weight:normal;font-stretch:normal;letter-spacing:normal;word-spacing:normal;text-anchor:start;fill:#000000;fill-opacity:1;fill-rule:nonzero;stroke:#000000;stroke-width:0;stroke-linecap:butt;stroke-linejoin:miter;stroke-miterlimit:10.43299961;stroke-dasharray:none;stroke-dashoffset:0;stroke-opacity:1"
         id="path4085" />
      <path
         inkscape:connector-curvature="0"
         d="m -1204.5319,873.67882 -0.1625,0.25 -0.175,0.22499 -0.175,0.2375 -0.1875,0.2125 -0.1875,0.2125 -0.1875,0.2 -0.2,0.1875 -0.2,0.175 -0.2125,0.175 -0.2125,0.16249 -0.2125,0.1625 -0.225,0.15 -0.225,0.1375 -0.225,0.125 -0.2375,0.125 -0.2375,0.125 -0.2375,0.1 -0.25,0.1 -0.25,0.1 -0.25,0.0875 -0.2625,0.075 -0.25,0.075 -0.2625,0.0625 -0.2625,0.05 -0.275,0.0625 -0.2625,0.0375 -0.275,0.0375 -0.275,0.0375 -0.275,0.025 -0.2875,0.0125 -0.275,0.0125 -0.2875,0.0125 c -2.4124,-0.05 -5.1249,-1.08749 -7.4999,-3.74997 l -127.4992,-127.4992 c -2.6625,-2.36248 -3.7,-5.08746 -3.75,-7.49995 0.05,-3.03748 1.0875,-5.74996 3.75,-7.49995 l 127.4992,-128.74918 c 2.375,-2.03748 5.0875,-3.07498 7.4999,-2.49998 3.0375,-0.575 5.7625,0.4625 7.5,2.49998 l 128.7492,128.74918 c 2.0375,1.74999 3.0749,4.46247 2.4999,7.49995 0.575,2.41249 -0.4624,5.13747 -2.4999,7.49995 l -128.7492,127.49919 z"
         style="font-style:normal;font-variant:normal;font-weight:normal;font-stretch:normal;letter-spacing:normal;word-spacing:normal;text-anchor:start;fill:#ffffff;fill-opacity:1;fill-rule:nonzero;stroke:#ffffff;stroke-width:0;stroke-linecap:butt;stroke-linejoin:miter;stroke-miterlimit:10.43299961;stroke-dasharray:none;stroke-dashoffset:0;stroke-opacity:1"
         id="path4087" />
      <polygon
         transform="matrix(1.249992,0,0,-1.249992,-1581.092,1235.864)"
         points="373.25,397.75 295.25,475.75 295.25,475.75 218.25,397.75 295.25,320.75 "
         style="font-style:normal;font-variant:normal;font-weight:normal;font-stretch:normal;letter-spacing:normal;word-spacing:normal;text-anchor:start;fill:#ffcc00;fill-opacity:1;fill-rule:nonzero;stroke:#ffcc00;stroke-width:0;stroke-linecap:butt;stroke-linejoin:miter;stroke-miterlimit:10.43299961;stroke-dasharray:none;stroke-dashoffset:0;stroke-opacity:1"
         id="polygon4089" />
    </g>
  </g>
</svg>
