<?xml version="1.0" encoding="UTF-8" standalone="no"?>
<!-- Created with Inkscape (http://www.inkscape.org/) -->

<svg
   xmlns:dc="http://purl.org/dc/elements/1.1/"
   xmlns:cc="http://creativecommons.org/ns#"
   xmlns:rdf="http://www.w3.org/1999/02/22-rdf-syntax-ns#"
   xmlns:svg="http://www.w3.org/2000/svg"
   xmlns="http://www.w3.org/2000/svg"
   xmlns:sodipodi="http://sodipodi.sourceforge.net/DTD/sodipodi-0.dtd"
   xmlns:inkscape="http://www.inkscape.org/namespaces/inkscape"
   width="155.22223mm"
   height="155.22058mm"
   viewBox="0 0 550.00002 549.99418"
   id="svg9261"
   version="1.1"
   inkscape:version="0.91 r13725"
   sodipodi:docname="Verkeersbord B2.svg">
  <defs
     id="defs9263" />
  <sodipodi:namedview
     id="base"
     pagecolor="#ffffff"
     bordercolor="#666666"
     borderopacity="1.0"
     inkscape:pageopacity="0.0"
     inkscape:pageshadow="2"
     inkscape:zoom="0.35"
     inkscape:cx="-738.90124"
     inkscape:cy="-55.330103"
     inkscape:document-units="px"
     inkscape:current-layer="layer1"
     showgrid="false"
     fit-margin-top="0"
     fit-margin-left="0"
     fit-margin-right="0"
     fit-margin-bottom="0"
     inkscape:window-width="1600"
     inkscape:window-height="837"
     inkscape:window-x="-8"
     inkscape:window-y="-8"
     inkscape:window-maximized="1" />
  <metadata
     id="metadata9266">
    <rdf:RDF>
      <cc:Work
         rdf:about="">
        <dc:format>image/svg+xml</dc:format>
        <dc:type
           rdf:resource="http://purl.org/dc/dcmitype/StillImage" />
        <dc:title></dc:title>
      </cc:Work>
    </rdf:RDF>
  </metadata>
  <g
     inkscape:label="Laag 1"
     inkscape:groupmode="layer"
     id="layer1"
     transform="translate(-483.90124,72.962066)">
    <g
       id="g4051"
       transform="matrix(-0.00387588,1.8720659,1.8720659,-0.00387592,353.36828,-1112.9139)">
      <path
         inkscape:connector-curvature="0"
         d="m 558.50485,224.92964 -0.175,-0.2 -0.175,-0.2125 -0.1625,-0.19999 -0.15,-0.2125 -0.15,-0.20001 -0.14999,-0.19999 -0.1375,-0.2125 -0.125,-0.2 -0.125,-0.2 -0.125,-0.2 -0.1125,-0.21249 -0.1,-0.2 -0.1,-0.20001 -0.1,-0.19999 -0.0875,-0.1875 -0.075,-0.2 -0.075,-0.2 -0.075,-0.2 -0.0625,-0.1875 -0.05,-0.2 -0.05,-0.18749 -0.05,-0.1875 -0.0375,-0.2 -0.025,-0.1875 -0.025,-0.1875 -0.025,-0.1875 -0.0125,-0.18749 0,-0.17501 0,-0.18749 0,-0.17501 0.0125,-0.18749 0.025,-0.175 c -0.25,-2.46248 0.57499,-4.64997 2.49998,-6.24996 L 696.00397,73.680611 c 2.21248,-1.287497 4.38747,-2.124993 6.24996,-2.499984 2.48748,0.374991 4.66247,1.212487 6.24996,2.499984 L 847.253,212.42972 c 1.275,1.56249 2.09999,3.71247 2.49998,6.24996 -0.375,1.77499 -1.18749,4.02498 -2.49998,6.24996 L 708.50389,362.42876 c -1.58749,1.92499 -3.76248,2.74998 -6.24996,2.49999 -1.86249,0.24999 -4.03748,-0.575 -6.24996,-2.49999 L 558.50485,224.92964 Z"
         style="font-style:normal;font-variant:normal;font-weight:normal;font-stretch:normal;letter-spacing:normal;word-spacing:normal;text-anchor:start;fill:#000000;fill-opacity:1;fill-rule:nonzero;stroke:#000000;stroke-width:0;stroke-linecap:butt;stroke-linejoin:miter;stroke-miterlimit:10.43299961;stroke-dasharray:none;stroke-dashoffset:0;stroke-opacity:1"
         id="path4053" />
      <path
         inkscape:connector-curvature="0"
         d="m 709.75388,353.67882 -0.1625,0.25 -0.175,0.22499 -0.175,0.2375 -0.18749,0.2125 -0.18751,0.2125 -0.18749,0.2 -0.2,0.1875 -0.2,0.17499 -0.2125,0.175 -0.2125,0.1625 -0.21249,0.1625 -0.225,0.15 -0.225,0.1375 -0.225,0.125 -0.2375,0.125 -0.2375,0.12499 -0.2375,0.10001 -0.25,0.1 -0.24999,0.1 -0.25,0.0875 -0.2625,0.075 -0.25,0.075 -0.2625,0.0625 -0.2625,0.05 -0.27499,0.0625 -0.2625,0.0375 -0.275,0.0375 -0.275,0.0375 -0.275,0.025 -0.28749,0.0125 -0.275,0.0125 -0.2875,0.0125 c -2.41249,-0.05 -5.12497,-1.0875 -7.49996,-3.74998 L 567.2548,226.17963 c -2.66249,-2.36248 -3.69998,-5.08746 -3.74998,-7.49995 0.05,-3.03748 1.08749,-5.74997 3.74998,-7.49996 L 694.75397,82.430555 c 2.37499,-2.037492 5.08747,-3.074983 7.49996,-2.499984 3.03748,-0.574999 5.76247,0.462492 7.49995,2.499984 L 838.50306,211.17972 c 2.03749,1.74999 3.07498,4.46248 2.49998,7.49996 0.575,2.41249 -0.46249,5.13747 -2.49998,7.49995 L 709.75388,353.67882 Z"
         style="font-style:normal;font-variant:normal;font-weight:normal;font-stretch:normal;letter-spacing:normal;word-spacing:normal;text-anchor:start;fill:#ffffff;fill-opacity:1;fill-rule:nonzero;stroke:#ffffff;stroke-width:0;stroke-linecap:butt;stroke-linejoin:miter;stroke-miterlimit:10.43299961;stroke-dasharray:none;stroke-dashoffset:0;stroke-opacity:1"
         id="path4055" />
      <polygon
         transform="matrix(1.249992,0,0,-1.249992,333.1938,715.864)"
         points="295.25,475.75 218.25,397.75 295.25,320.75 373.25,397.75 295.25,475.75 "
         style="font-style:normal;font-variant:normal;font-weight:normal;font-stretch:normal;letter-spacing:normal;word-spacing:normal;text-anchor:start;fill:#ffcc00;fill-opacity:1;fill-rule:nonzero;stroke:#ffcc00;stroke-width:0;stroke-linecap:butt;stroke-linejoin:miter;stroke-miterlimit:10.43299961;stroke-dasharray:none;stroke-dashoffset:0;stroke-opacity:1"
         id="polygon4057" />
      <g
         style="fill:#000000;fill-opacity:1"
         transform="matrix(720,0,0,720,367.9057,76.0756)"
         id="g4059">
        <polygon
           id="polygon4061"
           style="font-style:normal;font-variant:normal;font-weight:normal;font-stretch:normal;letter-spacing:normal;word-spacing:normal;text-anchor:start;fill:#000000;fill-opacity:1;fill-rule:nonzero;stroke:#000000;stroke-width:0;stroke-linecap:butt;stroke-linejoin:miter;stroke-miterlimit:10.43299961;stroke-dasharray:none;stroke-dashoffset:0;stroke-opacity:1"
           points="235.67,343.1 230.94,347.82 345.69,462.54 350.41,457.82 235.67,343.1 "
           transform="matrix(0.0017361,0,0,-0.0017361,-0.05578042,0.880808)" />
        <polygon
           transform="matrix(0.0017361,0,0,-0.0017361,-0.03935562,0.897216)"
           points="235.67,343.1 230.94,347.82 345.69,462.54 350.41,457.82 235.67,343.1 "
           style="font-style:normal;font-variant:normal;font-weight:normal;font-stretch:normal;letter-spacing:normal;word-spacing:normal;text-anchor:start;fill:#000000;fill-opacity:1;fill-rule:nonzero;stroke:#000000;stroke-width:0;stroke-linecap:butt;stroke-linejoin:miter;stroke-miterlimit:10.43299961;stroke-dasharray:none;stroke-dashoffset:0;stroke-opacity:1"
           id="polygon4063" />
        <polygon
           id="polygon4065"
           style="font-style:normal;font-variant:normal;font-weight:normal;font-stretch:normal;letter-spacing:normal;word-spacing:normal;text-anchor:start;fill:#000000;fill-opacity:1;fill-rule:nonzero;stroke:#000000;stroke-width:0;stroke-linecap:butt;stroke-linejoin:miter;stroke-miterlimit:10.43299961;stroke-dasharray:none;stroke-dashoffset:0;stroke-opacity:1"
           points="235.67,343.1 230.94,347.82 345.69,462.54 350.41,457.82 235.67,343.1 "
           transform="matrix(0.0017361,0,0,-0.0017361,-0.02302003,0.913585)" />
      </g>
    </g>
  </g>
</svg>
