<?xml version="1.0" encoding="UTF-8" standalone="no"?>
<!-- Created with Inkscape (http://www.inkscape.org/) -->

<svg
   xmlns:dc="http://purl.org/dc/elements/1.1/"
   xmlns:cc="http://creativecommons.org/ns#"
   xmlns:rdf="http://www.w3.org/1999/02/22-rdf-syntax-ns#"
   xmlns:svg="http://www.w3.org/2000/svg"
   xmlns="http://www.w3.org/2000/svg"
   xmlns:sodipodi="http://sodipodi.sourceforge.net/DTD/sodipodi-0.dtd"
   xmlns:inkscape="http://www.inkscape.org/namespaces/inkscape"
   width="169.33333mm"
   height="169.33328mm"
   viewBox="0 0 599.99998 599.99982"
   id="svg9847"
   version="1.1"
   inkscape:version="0.91 r13725"
   sodipodi:docname="Verkeersbord B7.svg">
  <defs
     id="defs9849" />
  <sodipodi:namedview
     id="base"
     pagecolor="#ffffff"
     bordercolor="#666666"
     borderopacity="1.0"
     inkscape:pageopacity="0.0"
     inkscape:pageshadow="2"
     inkscape:zoom="0.35"
     inkscape:cx="-982.18096"
     inkscape:cy="-298.60955"
     inkscape:document-units="px"
     inkscape:current-layer="layer1"
     showgrid="false"
     fit-margin-top="0"
     fit-margin-left="0"
     fit-margin-right="0"
     fit-margin-bottom="0"
     inkscape:window-width="1600"
     inkscape:window-height="837"
     inkscape:window-x="-8"
     inkscape:window-y="-8"
     inkscape:window-maximized="1" />
  <metadata
     id="metadata9852">
    <rdf:RDF>
      <cc:Work
         rdf:about="">
        <dc:format>image/svg+xml</dc:format>
        <dc:type
           rdf:resource="http://purl.org/dc/dcmitype/StillImage" />
        <dc:title></dc:title>
      </cc:Work>
    </rdf:RDF>
  </metadata>
  <g
     inkscape:label="Laag 1"
     inkscape:groupmode="layer"
     id="layer1"
     transform="translate(-727.18096,366.24716)">
    <g
       transform="matrix(2.3505653,0,0,-2.3505782,332.0601,869.81343)"
       xml:space="preserve"
       style="font-style:normal;font-variant:normal;font-weight:normal;font-stretch:normal;letter-spacing:normal;word-spacing:normal;text-anchor:start;fill:none;stroke:#000000;stroke-width:1.03849232;stroke-linecap:butt;stroke-linejoin:miter;stroke-miterlimit:10.43299961;stroke-dasharray:none;stroke-dashoffset:0;stroke-opacity:1"
       id="g4105"><path
         inkscape:connector-curvature="0"
         d="m 168.25,445.75 -0.02,0.33 -0.02,0.33 -0.01,0.33 0.01,0.32 0.01,0.31 0.02,0.31 0.02,0.31 0.04,0.3 0.04,0.29 0.05,0.29 0.06,0.29 0.07,0.28 0.08,0.27 0.08,0.27 0.09,0.26 0.09,0.26 0.11,0.25 0.11,0.24 0.11,0.24 0.13,0.23 0.13,0.23 0.13,0.22 0.14,0.22 0.15,0.2 0.16,0.2 0.15,0.2 0.17,0.19 0.17,0.18 0.17,0.17 0.18,0.17 0.19,0.16 0.19,0.15 68,68 c 2.22,2.7 5.11,3.8 8,4 l 96,0 c 3.39,-0.2 6.28,-1.3 8,-4 l 69,-68 c 1.55,-1.59 2.81,-4.42 3,-8 l 0,-96 c -0.19,-3.09 -1.45,-5.91 -3,-8 l -69,-68 c -1.72,-2.2 -4.61,-3.3 -8,-3 l -96,0 c -2.89,-0.3 -5.78,0.8 -8,3 l -68,68 c -2.05,2.09 -3.31,4.91 -3,8 l 0,96 z"
         style="fill:#ffffff;fill-rule:nonzero;stroke:#ffffff;stroke-width:0"
         id="path4107" /><path
         inkscape:connector-curvature="0"
         d="m 168.25,445.75 -0.02,0.33 -0.02,0.33 -0.01,0.33 0.01,0.32 0.01,0.31 0.02,0.31 0.02,0.31 0.04,0.3 0.04,0.29 0.05,0.29 0.06,0.29 0.07,0.28 0.08,0.27 0.08,0.27 0.09,0.26 0.09,0.26 0.11,0.25 0.11,0.24 0.11,0.24 0.13,0.23 0.13,0.23 0.13,0.22 0.14,0.22 0.15,0.2 0.16,0.2 0.15,0.2 0.17,0.19 0.17,0.18 0.17,0.17 0.18,0.17 0.19,0.16 0.19,0.15 68,68 c 2.22,2.7 5.11,3.8 8,4 l 96,0 c 3.39,-0.2 6.28,-1.3 8,-4 l 69,-68 c 1.55,-1.59 2.81,-4.42 3,-8 l 0,-96 c -0.19,-3.09 -1.45,-5.91 -3,-8 l -69,-68 c -1.72,-2.2 -4.61,-3.3 -8,-3 l -96,0 c -2.89,-0.3 -5.78,0.8 -8,3 l -68,68 c -2.05,2.09 -3.31,4.91 -3,8 l 0,96 z"
         style="stroke:#ff0000;stroke-width:0.20769848"
         id="path4109" /><polygon
         points="412.25,349.75 412.25,445.75 343.25,514.75 247.25,514.75 247.25,514.75 179.25,445.75 179.25,349.75 247.25,281.75 343.25,281.75 "
         style="fill:#e3001b;fill-opacity:1;fill-rule:nonzero;stroke:#ff0000;stroke-width:0"
         id="polygon4111" /><path
         inkscape:connector-curvature="0"
         d="m 200.25,420.75 -0.06,-0.66 -0.05,-0.64 -0.02,-0.64 -0.01,-0.31 0,-0.31 0.01,-0.3 0.01,-0.3 0.03,-0.3 0.03,-0.3 0.03,-0.29 0.05,-0.29 0.06,-0.28 0.07,-0.29 0.08,-0.28 0.09,-0.27 0.1,-0.27 0.11,-0.27 0.13,-0.27 0.13,-0.26 0.16,-0.27 0.16,-0.25 0.18,-0.26 0.2,-0.25 0.21,-0.25 0.22,-0.24 0.25,-0.24 0.26,-0.24 0.27,-0.24 0.3,-0.23 c 8.14,-5.16 25.5,-11.91 30,-19 2.25,-2.09 4.57,-6.29 5,-15 -0.32,-9.2 -9.72,-21.04 -27,-21 -11.03,0.19 -20.98,7.48 -25,13 0,0 8.22,5.21 9,6 2.54,-3.77 8.62,-8.53 16,-9 10.32,0.36 16.18,6.77 16,11 0.29,5.06 -0.37,6.39 -2,9 -3.46,4.8 -25.14,13.54 -30,18 -4.43,4.82 -5.97,9.25 -6,16 0.14,11.05 11.53,18.35 22,18 9.32,0.35 16.62,-2.86 23,-12 l -9,-6 c -3.24,5.19 -6.89,7.95 -14,8 -5.94,-0.16 -11.36,-4.47 -11,-8 z"
         style="fill:#ffffff;fill-rule:nonzero;stroke:#ffffff;stroke-width:0"
         id="path4113" /><polygon
         points="286.25,427.75 268.25,427.75 268.25,357.75 257.25,357.75 257.25,357.75 257.25,427.75 239.25,427.75 239.25,438.75 286.25,438.75 "
         style="fill:#ffffff;fill-rule:nonzero;stroke:#ffffff;stroke-width:0"
         id="polygon4115" /><path
         inkscape:connector-curvature="0"
         d="m 315.25,356.75 -1.79,0.05 -1.72,0.16 -1.65,0.27 -1.57,0.39 -1.51,0.49 -1.43,0.59 -1.37,0.69 -1.3,0.78 -1.23,0.87 -1.17,0.97 -1.11,1.04 -1.04,1.12 -0.98,1.2 -0.92,1.28 -0.86,1.34 -0.8,1.41 -0.74,1.46 -0.68,1.53 -0.63,1.58 -0.57,1.63 -0.52,1.67 -0.46,1.72 -0.42,1.76 -0.36,1.8 -0.31,1.82 -0.26,1.86 -0.22,1.88 -0.16,1.9 -0.13,1.92 -0.07,1.93 -0.03,1.94 0.01,1.95 c -0.69,21 6.5,41.23 26,41 18.87,0.35 25.95,-20 26,-41 0.28,-20.8 -7.13,-41.26 -26,-41 z"
         style="fill:#ffffff;fill-rule:nonzero;stroke:#ffffff;stroke-width:0"
         id="path4117" /><path
         inkscape:connector-curvature="0"
         d="m 299.25,397.75 0.02,-1.56 0.04,-1.54 0.08,-1.51 0.1,-1.5 0.13,-1.47 0.16,-1.44 0.19,-1.42 0.22,-1.39 0.25,-1.35 0.28,-1.32 0.31,-1.28 0.35,-1.25 0.37,-1.2 0.41,-1.17 0.43,-1.12 0.47,-1.07 0.51,-1.03 0.53,-0.97 0.57,-0.93 0.6,-0.87 0.64,-0.82 0.67,-0.76 0.71,-0.7 0.74,-0.64 0.78,-0.57 0.81,-0.52 0.84,-0.44 0.89,-0.38 0.92,-0.3 0.95,-0.24 1,-0.16 1.03,-0.08 c 10.91,0.47 15.66,14.29 16,31 -0.45,16.8 -5.09,30.62 -16,31 -11.2,-0.38 -16.07,-14.2 -16,-31 z"
         style="fill:#e3001b;fill-opacity:1;fill-rule:nonzero;stroke:#ff0000;stroke-width:0"
         id="path4119" /><path
         inkscape:connector-curvature="0"
         d="m 352.25,438.75 26,0 c 20.89,-0.43 24.54,-16.57 25,-24 -0.57,-10.37 -6.98,-24.53 -26,-25 -2.32,0.47 -15,0 -15,0 l 0,-32 -10,0 0,81 z"
         style="fill:#ffffff;fill-rule:nonzero;stroke:#ffffff;stroke-width:0"
         id="path4121" /><path
         inkscape:connector-curvature="0"
         d="m 362.25,427.75 0,-27 16,0 c 11.16,0.31 13.82,9.48 14,14 -0.18,3.89 -1.07,12.73 -14,13 l -16,0 z"
         style="fill:#e3001b;fill-opacity:1;fill-rule:nonzero;stroke:#ff0000;stroke-width:0"
         id="path4123" /></g>  </g>
</svg>
