<?xml version="1.0" encoding="UTF-8" standalone="no"?>
<svg
   id="Nederlands_verkeersbord_C17"
   width="300"
   height="300"
   viewBox="0 0 300 300"
   version="1.1"
   sodipodi:docname="C17.svg"
   inkscape:version="1.3.2 (091e20e, 2023-11-25, custom)"
   xmlns:inkscape="http://www.inkscape.org/namespaces/inkscape"
   xmlns:sodipodi="http://sodipodi.sourceforge.net/DTD/sodipodi-0.dtd"
   xmlns="http://www.w3.org/2000/svg"
   xmlns:svg="http://www.w3.org/2000/svg">
  <defs
     id="defs4" />
  <sodipodi:namedview
     id="namedview4"
     pagecolor="#ffffff"
     bordercolor="#000000"
     borderopacity="0.25"
     inkscape:showpageshadow="2"
     inkscape:pageopacity="0.0"
     inkscape:pagecheckerboard="0"
     inkscape:deskcolor="#d1d1d1"
     inkscape:zoom="2.6233333"
     inkscape:cx="149.8094"
     inkscape:cy="150"
     inkscape:window-width="1920"
     inkscape:window-height="1001"
     inkscape:window-x="-9"
     inkscape:window-y="-9"
     inkscape:window-maximized="1"
     inkscape:current-layer="Nederlands_verkeersbord_C17" />
  <circle
     id="witte_cirkel_met_rode_rand"
     cx="150"
     cy="150"
     r="130.5"
     fill="#f7fbf5"
     stroke="#c1121c"
     stroke-width="39" />
  <path
     fill="#2a2d2f"
     d="M 193.42336,122.95416 L 193.00902,122.95416 C 194.72999,118.77821 198.07486,117.75869 200.9744,117.59556 C 204.82903,117.40797 208.77991,120.30341 209.16244,123.207 C 208.7481,119.92007 215.15237,117.59556 218.49724,117.59556 C 221.97016,117.59556 228.11915,120.21369 228.11915,127.95389 L 228.11915,151.37024 L 221.49221,151.37024 L 221.49221,131.74651 C 221.14149,128.59007 222.12921,124.03078 215.98023,124.03078 C 214.3237,124.03078 212.06198,125.08292 211.74307,127.15459 C 211.2333,130.2784 211.16968,133.52455 211.16968,134.32385 L 211.16968,151.37024 L 204.89347,151.37024 L 204.89347,131.74651 C 204.89347,125.9801 202.34464,124.22652 199.4133,124.22652 C 196.76905,124.22652 194.79361,125.81698 193.74227,128.65532 C 193.13708,130.37627 193.51879,133.52455 193.51879,134.32385 L 193.51879,151.37024 L 187.59329,151.37024 L 187.59329,118.58246 L 193.42336,118.58246 L 193.42336,122.95416"
     id="path1" />
  <path
     fill="#2a2d2f"
     d="M 103.22688,191.70246 L 106.25365,178.70969 C 107.49666,175.55326 105.87113,173.06563 102.84435,174.85183 L 74.32935,194.69578 C 71.74872,196.5146 71.74872,198.01533 74.32935,199.826 L 102.84435,219.6781 C 105.87113,221.4643 107.49666,218.97667 106.25365,215.82024 L 103.25869,202.94981 L 202.08935,202.94981 L 199.03077,215.88549 C 197.78857,219.04192 199.4451,221.52955 202.47188,219.74335 L 230.98688,199.89125 C 233.5357,198.10505 233.5357,196.57985 230.98688,194.79365 L 202.47188,174.9497 C 199.4451,173.1635 197.78857,175.65113 199.03077,178.76679 L 203.10888,191.80034 L 103.22688,191.70246"
     id="path4" />
</svg>
