<?xml version="1.0" encoding="UTF-8" standalone="no"?>
<svg
   id="Nederlands_verkeersbord_C20"
   width="300"
   height="300"
   viewBox="0 0 300 300"
   version="1.1"
   sodipodi:docname="C20.svg"
   inkscape:version="1.3.2 (091e20e, 2023-11-25, custom)"
   xmlns:inkscape="http://www.inkscape.org/namespaces/inkscape"
   xmlns:sodipodi="http://sodipodi.sourceforge.net/DTD/sodipodi-0.dtd"
   xmlns="http://www.w3.org/2000/svg"
   xmlns:svg="http://www.w3.org/2000/svg">
  <defs
     id="defs6" />
  <sodipodi:namedview
     id="namedview6"
     pagecolor="#ffffff"
     bordercolor="#000000"
     borderopacity="0.25"
     inkscape:showpageshadow="2"
     inkscape:pageopacity="0.0"
     inkscape:pagecheckerboard="0"
     inkscape:deskcolor="#d1d1d1"
     inkscape:zoom="2.6233333"
     inkscape:cx="149.8094"
     inkscape:cy="150"
     inkscape:window-width="1920"
     inkscape:window-height="1001"
     inkscape:window-x="-9"
     inkscape:window-y="-9"
     inkscape:window-maximized="1"
     inkscape:current-layer="Nederlands_verkeersbord_C20" />
  <circle
     id="witte_cirkel_met_rode_rand"
     cx="150"
     cy="150"
     r="130.5"
     fill="#f7fbf5"
     stroke="#c1121c"
     stroke-width="39" />
  <path
     fill="#2a2d2f"
     d="M 209.35287,104.00488 L 216.34514,104.00488 L 216.34514,111.19251 L 209.35287,111.19251 L 209.35287,130.49247 C 209.82499,132.77981 209.60521,133.96011 213.77289,132.07977 C 214.37525,131.82743 215.14042,127.75743 215.86488,127.65975 L 216.79284,135.57998 C 215.39276,137.41962 215.61254,136.28002 214.02523,138.8197 L 210.74481,140.66748 C 204.48514,141.7501 201.9129,137.83476 201.9129,132.94261 L 201.9129,111.19251 L 196.76028,111.19251 L 196.76028,104.00488 L 201.9129,104.00488 L 201.9129,95.86488 L 209.35287,92.49491 L 209.35287,104.00488"
     id="path3" />
  <path
     fill="#2a2d2f"
     d="M 126.23525,155.22996 L 169.40985,155.22996 L 148.07489,179.36508 L 126.23525,155.22996"
     id="path5" />
  <path
     fill="#2a2d2f"
     d="M 163.0525,205.40497 L 204.10256,204.42002 C 204.26536,209.57265 203.97232,220 205.63289,221.65242 C 207.08995,223.08506 209.95523,222.95482 214.40781,222.85714 C 218.4127,222.80016 221.78266,223.6223 223.81766,221.17216 C 225.08751,219.68254 224.73748,209.40985 224.73748,198.31502 C 224.73748,187.50509 225.08751,178.38014 223.56532,177.01262 C 221.81522,175.44974 218.91738,175.83232 214.34269,175.83232 C 209.85755,175.83232 206.90273,175.13228 205.21775,176.7847 C 203.46764,178.50224 204.42002,182.73504 204.10256,193.03215 L 162.92226,190.52503 C 162.92226,190.52503 158.1278,182.06756 148.32723,181.90476 C 138.5348,181.7501 133.79731,190.55759 133.79731,190.55759 L 92.49491,193.06471 C 92.21001,182.73504 93.44729,180 91.57509,177.19984 C 90.71225,175.93 86.87017,175.93 82.41758,175.83232 C 77.83476,175.7672 74.52991,175.86488 73.32519,177.01262 C 71.44485,178.85226 71.47741,186.92715 71.47741,197.965 C 71.47741,209.05983 70.97273,220.06512 73.22751,221.96988 C 74.84737,223.3374 78.50224,222.80016 82.51526,222.85714 C 86.95971,222.95482 89.54009,223.18274 91.09483,221.65242 C 93.19495,219.58486 92.27513,209.60521 92.42979,204.45258 L 133.64265,205.40497 C 133.64265,205.40497 138.6976,213.29263 148.32723,213.29263 C 157.01262,213.29263 163.0525,205.40497 163.0525,205.40497"
     id="path6" />
</svg>
