<?xml version="1.0" encoding="UTF-8" standalone="no"?>
<svg id="Nederlands_verkeersbord_C22a1" width="600" height="450" xmlns="http://www.w3.org/2000/svg" version="1.1">
  <path
     id="vlak_wit"
     style="fill:#f7fbf5"
     d="M 0,30 a 30,30 0 0 1 30,-30 h 540 a 30,30 0 0 1 30,30 v 390 a 30,30 0 0 1 -30,30 h -540 a 30,30 0 0 1 -30,-30 z" />
  <path
     id="bies_zwart"
     style="fill:none;stroke-width:15;stroke:#2a2d2f"
     d="M 21.5,44 a 22.5,22.5 0 0,1 22.5,-22.5 h 512 a 22.5,22.5 0 0,1 22.5,22.5 v 362 a 22.5,22.5 0 0,1 -22.5,22.5 h -512 a 22.5,22.5 0 0,1 -22.5,-22.5 z" />
  <path
     id="tekst_toegstaan_zwart"
     style="fill:#2a2d2f"
     d="M 500.18128,114.89389 V 94.657523 q 0,-1.491783 -0.61671,-2.788986 -0.61671,-1.362063 -1.71309,-2.334966 -1.02785,-1.037762 -2.46685,-1.621503 -1.37047,-0.583742 -3.01504,-0.583742 -1.57604,0 -3.01504,0.583742 -1.37046,0.583741 -2.46684,1.621503 -1.02785,0.972903 -1.64456,2.334966 -0.61671,1.297203 -0.61671,2.788986 V 114.89389 H 476.4036 V 79.674828 h 8.22284 v 3.567308 q 1.91865,-1.880944 4.45403,-2.983567 2.60389,-1.102623 5.5504,-1.102623 2.87799,0 5.34483,1.037763 2.53538,1.037762 4.38552,2.853847 1.85013,1.751224 2.94651,4.15105 1.09637,2.334965 1.09637,4.994231 v 22.701053 z m -51.25553,0 v -1.75123 q -1.78161,1.03777 -3.97437,1.62151 -2.12422,0.51888 -4.45403,0.51888 -3.08356,0 -5.75597,-0.90804 -2.67242,-0.9729 -4.72813,-2.59441 -1.98717,-1.6215 -3.15208,-3.82675 -1.1649,-2.20524 -1.1649,-4.66993 0,-2.46468 1.1649,-4.669927 1.16491,-2.205245 3.15208,-3.826749 2.05571,-1.621504 4.72813,-2.529547 2.67241,-0.972901 5.75597,-0.972901 2.39833,0 4.52256,0.583741 2.12423,0.518881 3.90584,1.556643 v -3.437587 q 0,-0.583742 -0.54818,-1.232344 -0.47968,-0.713461 -1.30195,-1.232343 -0.75376,-0.583741 -1.78161,-0.908041 -0.95934,-0.389162 -1.91867,-0.389162 -2.0557,0 -3.63174,0.194581 -1.57605,0.194581 -2.87799,0.518881 -1.23342,0.324301 -2.39833,0.843182 -1.09637,0.518881 -2.3298,1.102623 l -3.28913,-5.772554 q 1.85014,-0.972902 3.35766,-1.686364 1.57604,-0.713461 3.15208,-1.167483 1.64457,-0.518881 3.42617,-0.778321 1.78162,-0.259441 4.11142,-0.259441 2.53537,0 5.07074,0.583741 2.53537,0.583742 4.59108,1.880945 2.05571,1.232343 3.28913,3.243007 1.30194,2.010665 1.30194,4.799651 v 25.165739 z m 0,-14.72325 q -1.43899,-1.102626 -3.70027,-1.751227 -2.26128,-0.713462 -4.72813,-0.713462 -2.46685,0 -4.24845,1.556643 -1.78162,1.491786 -1.78162,3.632166 0,2.14039 1.78162,3.69703 1.7816,1.49179 4.24845,1.49179 5.61894,0 8.4284,-2.14039 z m -46.32182,14.72325 v -1.75123 q -1.78162,1.03777 -3.97437,1.62151 -2.12423,0.51888 -4.45403,0.51888 -3.08356,0 -5.75598,-0.90804 -2.67242,-0.9729 -4.72813,-2.59441 -1.98718,-1.6215 -3.15208,-3.82675 -1.1649,-2.20524 -1.1649,-4.66993 0,-2.46468 1.1649,-4.669927 1.1649,-2.205245 3.15208,-3.826749 2.05571,-1.621504 4.72813,-2.529547 2.67242,-0.972901 5.75598,-0.972901 2.39831,0 4.52255,0.583741 2.12423,0.518881 3.90585,1.556643 v -3.437587 q 0,-0.583742 -0.5482,-1.232344 -0.47966,-0.713461 -1.30194,-1.232343 -0.75376,-0.583741 -1.78162,-0.908041 -0.95932,-0.389162 -1.91865,-0.389162 -2.05571,0 -3.63175,0.194581 -1.57604,0.194581 -2.878,0.518881 -1.23342,0.324301 -2.39831,0.843182 -1.09638,0.518881 -2.3298,1.102623 l -3.28914,-5.772554 q 1.85013,-0.972902 3.35766,-1.686364 1.57603,-0.713461 3.15208,-1.167483 1.64456,-0.518881 3.42618,-0.778321 1.78161,-0.259441 4.1114,-0.259441 2.53538,0 5.07075,0.583741 2.53537,0.583742 4.59108,1.880945 2.0557,1.232343 3.28912,3.243007 1.30196,2.010665 1.30196,4.799651 v 25.165739 z m 0,-14.72325 q -1.43901,-1.102626 -3.70028,-1.751227 -2.26128,-0.713462 -4.72812,-0.713462 -2.46685,0 -4.24847,1.556643 -1.7816,1.491786 -1.7816,3.632166 0,2.14039 1.7816,3.69703 1.78162,1.49179 4.24847,1.49179 5.61892,0 8.4284,-2.14039 z m -36.38591,13.49091 q -0.41113,0.25944 -0.95933,0.58374 -0.47966,0.25944 -1.30194,0.51888 -0.75376,0.25944 -1.98718,0.38917 -1.16491,0.19457 -2.94651,0.19457 -1.85014,0 -3.42618,-0.6486 -1.57605,-0.6486 -2.80947,-1.75122 -1.1649,-1.16749 -1.85014,-2.65927 -0.68523,-1.55664 -0.68523,-3.24301 V 87.587767 h -6.64678 v -7.848079 h 6.64678 v -8.43182 L 358.47486,68 v 11.739688 h 9.31921 v 7.848079 h -9.31921 v 16.733923 q 0,1.42692 1.02786,2.39982 1.02786,0.9729 2.53537,0.9729 1.439,0 2.94651,-0.51888 1.57605,-0.58374 3.15209,-2.14038 z m -32.61711,-8.43182 q 0,2.07552 -1.09637,3.95647 -1.02786,1.81608 -2.80948,3.17815 -1.7816,1.36206 -4.24845,2.20524 -2.39833,0.77832 -5.13926,0.77832 -5.55041,0 -9.93592,-1.16748 -4.31698,-1.23234 -8.08577,-3.43759 l 3.90583,-6.94003 q 1.09638,0.58374 2.39833,1.2972 1.37046,0.71346 3.01503,1.36206 1.71309,0.58374 3.7688,1.03776 2.12423,0.38916 4.79665,0.38916 1.91865,0 3.28913,-0.84318 1.37047,-0.90804 1.37047,-2.20524 0,-1.49179 -1.43899,-2.27011 -1.37047,-0.77832 -3.22061,-1.36206 -0.95934,-0.3243 -1.78162,-0.58374 -0.75376,-0.25944 -1.64456,-0.51888 -0.82228,-0.324304 -1.85014,-0.648606 -1.02785,-0.3243 -2.39832,-0.843181 -8.08578,-2.853847 -8.08578,-9.080422 0,-2.075525 1.02785,-3.891609 1.09638,-1.880945 2.878,-3.243008 1.7816,-1.362063 4.17993,-2.140385 2.46685,-0.843181 5.20779,-0.843181 2.74094,0 4.79665,0.25944 2.12423,0.25944 3.90584,0.843182 1.78161,0.518881 3.35765,1.362063 1.64457,0.843182 3.49471,2.010664 l -3.63175,6.356296 q -1.16491,-0.648602 -2.39833,-1.297203 -1.23343,-0.713462 -2.67242,-1.232343 -1.37047,-0.518881 -3.08356,-0.843182 -1.64457,-0.3243 -3.70027,-0.3243 -1.98718,0 -3.35765,0.908041 -1.30195,0.843182 -1.30195,2.075525 0,0.908043 0.41115,1.491783 0.41113,0.583742 1.02784,1.037763 0.68524,0.454022 1.50752,0.778322 0.89081,0.259441 1.71309,0.518881 1.78162,0.518882 3.35766,1.102623 1.57604,0.518881 3.35765,1.167482 2.26127,0.778323 3.97436,1.621505 1.7131,0.843181 2.80947,1.945804 1.1649,1.102626 1.71309,2.594406 0.61671,1.42692 0.61671,3.43759 z m -41.9364,-7.9778 q 0,0.518881 0,1.102622 0,0.518881 -0.0686,1.037762 h -23.36652 q 0.20556,1.816086 0.75376,3.437586 0.61671,1.55665 1.50751,2.72413 0.95933,1.16748 2.19276,1.81608 1.23342,0.6486 2.80946,0.6486 2.6039,0 4.11142,-0.58374 1.57604,-0.6486 2.87798,-2.14038 l 6.23565,4.60507 q -5.41336,5.44825 -13.22505,5.44825 -3.63175,0 -6.64678,-1.36206 -2.94651,-1.42692 -5.07075,-3.82675 -2.12423,-2.46469 -3.28912,-5.77255 -1.16491,-3.30787 -1.16491,-7.13462 0,-3.82675 1.16491,-7.069757 1.16489,-3.307868 3.28912,-5.707694 2.12424,-2.464685 5.07075,-3.826749 3.01503,-1.426923 6.64678,-1.426923 3.63174,0 6.57826,1.426923 3.01503,1.362064 5.13927,3.826749 2.12423,2.399826 3.28912,5.707694 1.16491,3.243007 1.16491,7.069757 z m -9.18216,-4.08619 q -0.68523,-2.918707 -2.39832,-4.669931 -1.64457,-1.816084 -4.59108,-1.816084 -2.87799,0 -4.59108,1.816084 -1.64457,1.751224 -2.3298,4.669931 z m -37.96193,21.72815 q 0,3.24301 -1.16491,6.09685 -1.16489,2.91871 -3.2206,5.18882 -2.05571,2.2701 -4.86517,3.76189 -2.80946,1.55664 -6.0986,2.01066 l -3.63174,-8.04266 q 0.27409,0 0.47966,0 0.20557,0.0649 0.47967,0.0649 2.0557,0 3.83731,-0.71346 1.78161,-0.71347 3.08356,-2.01067 1.37048,-1.23234 2.12424,-2.9187 0.75376,-1.68637 0.75376,-3.63217 v -1.42693 q -1.57605,0.97291 -3.49471,1.55665 -1.85013,0.51888 -3.90584,0.51888 -3.63175,0 -6.64679,-1.36206 -2.94651,-1.42693 -5.07073,-3.82675 -2.12423,-2.46469 -3.28914,-5.7077 -1.16489,-3.30786 -1.16489,-7.134612 0,-3.82675 1.16489,-7.134617 1.16491,-3.307868 3.28914,-5.707694 2.12422,-2.464685 5.07073,-3.826749 3.01504,-1.426923 6.64679,-1.426923 2.05571,0 3.90584,0.583741 1.91866,0.518881 3.49471,1.491783 v -1.621503 h 8.22282 V 114.89392 Z M 236.2976,90.376753 q -1.09639,-1.426923 -2.67243,-2.205245 -1.50752,-0.778322 -3.49469,-0.778322 -3.90585,0 -6.03008,2.724127 -2.12423,2.724126 -2.12423,7.199477 0,4.41049 2.12423,7.13462 2.12423,2.72412 6.03008,2.72412 1.98717,0 3.49469,-0.77832 1.57604,-0.77832 2.67243,-2.20524 z m -35.01554,6.875177 q 0,0.518881 0,1.102622 0,0.518881 -0.0685,1.037762 h -23.3665 q 0.20558,1.816086 0.75376,3.437586 0.61671,1.55665 1.50752,2.72413 0.95933,1.16748 2.19275,1.81608 1.23342,0.6486 2.80947,0.6486 2.60389,0 4.11141,-0.58374 1.57604,-0.6486 2.87799,-2.14038 l 6.23564,4.60507 q -5.41336,5.44825 -13.22504,5.44825 -3.63175,0 -6.64679,-1.36206 -2.94651,-1.42692 -5.07073,-3.82675 -2.12424,-2.46469 -3.28914,-5.77255 -1.16489,-3.30787 -1.16489,-7.13462 0,-3.82675 1.16489,-7.069757 1.1649,-3.307868 3.28914,-5.707694 2.12422,-2.464685 5.07073,-3.826749 3.01504,-1.426923 6.64679,-1.426923 3.63175,0 6.57826,1.426923 3.01504,1.362064 5.13927,3.826749 2.12422,2.399826 3.28913,5.707694 1.16489,3.243007 1.16489,7.069757 z m -9.18215,-4.08619 q -0.68524,-2.918707 -2.39833,-4.669931 -1.64456,-1.816084 -4.59107,-1.816084 -2.87799,0 -4.59108,1.816084 -1.64457,1.751224 -2.3298,4.669931 z m -33.98763,4.08619 q 0,3.82675 -1.16489,7.13462 -1.1649,3.30786 -3.28913,5.77255 -2.12423,2.39983 -5.13927,3.82675 -2.94651,1.36206 -6.57825,1.36206 -3.63176,0 -6.64679,-1.36206 -2.94651,-1.42692 -5.07074,-3.82675 -2.12423,-2.46469 -3.28913,-5.77255 -1.1649,-3.30787 -1.1649,-7.13462 0,-3.82675 1.1649,-7.069757 1.1649,-3.307868 3.28913,-5.707694 2.12423,-2.464685 5.07074,-3.826749 3.01503,-1.426923 6.64679,-1.426923 3.63174,0 6.57825,1.426923 3.01504,1.362064 5.13927,3.826749 2.12423,2.399826 3.28913,5.707694 1.16489,3.243007 1.16489,7.069757 z m -8.771,0 q 0,-2.205245 -0.47967,-4.08619 -0.41114,-1.945804 -1.30195,-3.372728 -0.89081,-1.426924 -2.3298,-2.270106 -1.37047,-0.843181 -3.28912,-0.843181 -1.91867,0 -3.35766,0.843181 -1.37047,0.843182 -2.26128,2.270106 -0.8908,1.426924 -1.37047,3.372728 -0.41114,1.880945 -0.41114,4.08619 0,2.205244 0.41114,4.15105 0.47967,1.9458 1.37047,3.37273 0.89081,1.42692 2.26128,2.2701 1.43899,0.84318 3.35766,0.84318 1.91865,0 3.28912,-0.84318 1.43899,-0.84318 2.3298,-2.2701 0.89081,-1.42693 1.30195,-3.37273 0.47967,-1.945806 0.47967,-4.15105 z m -36.72851,16.40962 q -0.41114,0.25944 -0.95933,0.58374 -0.47966,0.25944 -1.30195,0.51888 -0.75376,0.25944 -1.98718,0.38917 -1.1649,0.19457 -2.94651,0.19457 -1.85014,0 -3.42618,-0.6486 -1.57604,-0.6486 -2.809466,-1.75122 -1.1649,-1.16749 -1.850135,-2.65927 -0.685235,-1.55664 -0.685235,-3.24301 V 87.587767 H 90 v -7.848079 h 6.646784 v -8.43182 L 104.86961,68 v 11.739688 h 9.3192 v 7.848079 h -9.3192 v 16.733923 q 0,1.42692 1.02785,2.39982 1.02785,0.9729 2.53537,0.9729 1.439,0 2.94652,-0.51888 1.57604,-0.58374 3.15208,-2.14038 z" />
  <path
     id="tekst_en_hoger_zwart"
     style="fill:#2a2d2f"
     d="m 530.91007,340.59371 q -0.88779,-1.2928 -2.32191,-1.87457 -1.43411,-0.58176 -3.07311,-0.58176 -1.5707,0 -3.00482,0.58176 -1.36582,0.58177 -2.45847,1.55137 -1.02437,0.96961 -1.639,2.32705 -0.61462,1.29281 -0.61462,2.84418 v 20.16777 h -8.19496 v -35.09969 h 8.19496 v 3.55522 q 1.91216,-1.87457 4.09748,-2.97345 2.25361,-1.16353 5.25843,-1.16353 2.3219,0 3.68773,0.51712 1.36582,0.51713 2.52677,1.42209 z m -37.08215,7.43364 q 0,0.51712 0,1.09889 0,0.51712 -0.0683,1.03424 h -23.28733 q 0.20487,1.80993 0.7512,3.42594 0.61463,1.55136 1.50241,2.71489 0.95608,1.16352 2.18533,1.80993 1.22924,0.6464 2.79993,0.6464 2.59508,0 4.09748,-0.58176 1.57071,-0.6464 2.86824,-2.13313 l 6.2145,4.58946 q -5.39501,5.42978 -13.18022,5.42978 -3.61943,0 -6.62425,-1.35744 -2.93653,-1.42209 -5.05355,-3.81378 -2.11703,-2.45633 -3.27799,-5.75299 -1.16094,-3.29665 -1.16094,-7.11043 0,-3.81378 1.16094,-7.04579 1.16096,-3.29666 3.27799,-5.68835 2.11702,-2.45633 5.05355,-3.81378 3.00482,-1.42209 6.62425,-1.42209 3.61945,0 6.55597,1.42209 3.00482,1.35745 5.12185,3.81378 2.11703,2.39169 3.27798,5.68835 1.16095,3.23201 1.16095,7.04579 z m -9.15103,-4.07234 q -0.68291,-2.90881 -2.3902,-4.6541 -1.63898,-1.80993 -4.57552,-1.80993 -2.86822,0 -4.57551,1.80993 -1.63899,1.74529 -2.3219,4.6541 z m -37.83328,21.6545 q 0,3.23202 -1.16095,6.07619 -1.16095,2.90882 -3.20969,5.17123 -2.04874,2.26241 -4.84868,3.74913 -2.79994,1.55137 -6.07793,2.00386 l -3.61943,-8.0154 q 0.27316,0 0.47803,0 0.20488,0.0646 0.47804,0.0646 2.04874,0 3.82432,-0.71104 1.77557,-0.71105 3.07311,-2.00386 1.36582,-1.22816 2.11702,-2.90881 0.7512,-1.68064 0.7512,-3.61985 v -1.42209 q -1.57069,0.96961 -3.48284,1.55137 -1.84387,0.51712 -3.89261,0.51712 -3.61944,0 -6.62425,-1.35745 -2.93653,-1.42208 -5.05357,-3.81378 -2.11702,-2.45633 -3.27797,-5.68834 -1.16096,-3.29666 -1.16096,-7.11044 0,-3.81378 1.16096,-7.11043 1.16095,-3.29666 3.27797,-5.68835 2.11704,-2.45633 5.05357,-3.81378 3.00481,-1.42209 6.62425,-1.42209 2.04874,0 3.89261,0.58177 1.91215,0.51712 3.48284,1.48673 v -1.61601 h 8.19496 z m -8.19496,-24.43403 q -1.09266,-1.42209 -2.66335,-2.19777 -1.50241,-0.77569 -3.48286,-0.77569 -3.8926,0 -6.00963,2.7149 -2.11703,2.71489 -2.11703,7.17507 0,4.39554 2.11703,7.11043 2.11703,2.7149 6.00963,2.7149 1.98045,0 3.48286,-0.77569 1.57069,-0.77568 2.66335,-2.19777 z m -34.28216,6.85187 q 0,3.81378 -1.16095,7.11043 -1.16095,3.29666 -3.27798,5.75299 -2.11703,2.39169 -5.12185,3.81378 -2.93652,1.35744 -6.55596,1.35744 -3.61944,0 -6.62426,-1.35744 -2.93652,-1.42209 -5.05355,-3.81378 -2.11703,-2.45633 -3.27798,-5.75299 -1.16096,-3.29665 -1.16096,-7.11043 0,-3.81378 1.16096,-7.04579 1.16095,-3.29666 3.27798,-5.68835 2.11703,-2.45633 5.05355,-3.81378 3.00482,-1.42209 6.62426,-1.42209 3.61944,0 6.55596,1.42209 3.00482,1.35745 5.12185,3.81378 2.11703,2.39169 3.27798,5.68835 1.16095,3.23201 1.16095,7.04579 z m -8.74128,0 q 0,-2.19777 -0.47804,-4.07234 -0.40974,-1.93921 -1.29754,-3.3613 -0.88778,-1.42208 -2.3219,-2.26241 -1.36583,-0.84032 -3.27798,-0.84032 -1.91216,0 -3.34627,0.84032 -1.36583,0.84033 -2.25362,2.26241 -0.88778,1.42209 -1.36582,3.3613 -0.40975,1.87457 -0.40975,4.07234 0,2.19777 0.40975,4.13698 0.47804,1.93921 1.36582,3.3613 0.88779,1.42208 2.25362,2.26241 1.43411,0.84032 3.34627,0.84032 1.91215,0 3.27798,-0.84032 1.43412,-0.84033 2.3219,-2.26241 0.8878,-1.42209 1.29754,-3.3613 0.47804,-1.93921 0.47804,-4.13698 z m -46.50628,17.58216 v -20.16777 q 0,-1.48673 -0.61462,-2.77954 -0.54634,-1.35744 -1.57071,-2.32705 -1.02437,-1.03424 -2.39019,-1.61601 -1.36583,-0.58176 -2.93652,-0.58176 -1.63899,0 -3.00482,0.58176 -1.36583,0.58177 -2.39019,1.61601 -0.95608,0.96961 -1.57071,2.32705 -0.54633,1.29281 -0.54633,2.77954 v 20.16777 h -8.26325 V 320.29666 L 334.09484,317 v 17.06504 q 1.84387,-1.87457 4.30235,-2.90881 2.45849,-1.09889 5.39502,-1.09889 2.86823,0 5.32672,1.03425 2.45849,1.03424 4.30235,2.77953 1.84387,1.74529 2.86823,4.13698 1.09266,2.32705 1.09266,5.04195 v 22.55946 z m -73.41309,0 v -20.16777 q 0,-1.48673 -0.61462,-2.77954 -0.61462,-1.35744 -1.70728,-2.32705 -1.02437,-1.03424 -2.45849,-1.61601 -1.36582,-0.58176 -3.00481,-0.58176 -1.5707,0 -3.00482,0.58176 -1.36582,0.58177 -2.45849,1.61601 -1.02437,0.96961 -1.63899,2.32705 -0.61462,1.29281 -0.61462,2.77954 v 20.16777 h -8.19495 v -35.09969 h 8.19495 v 3.55522 q 1.91216,-1.87457 4.43894,-2.97345 2.59506,-1.09889 5.53159,-1.09889 2.86823,0 5.32672,1.03425 2.52677,1.03424 4.37064,2.84417 1.84386,1.74529 2.93653,4.13698 1.09266,2.32705 1.09266,4.97731 v 22.6241 z m -39.47236,-17.58216 q 0,0.51712 0,1.09889 0,0.51712 -0.0683,1.03424 h -23.28734 q 0.20488,1.80993 0.75121,3.42594 0.61462,1.55136 1.50241,2.71489 0.95607,1.16352 2.18532,1.80993 1.22924,0.6464 2.79994,0.6464 2.59507,0 4.09748,-0.58176 1.5707,-0.6464 2.86823,-2.13313 l 6.21451,4.58946 q -5.39501,5.42978 -13.18022,5.42978 -3.61944,0 -6.62425,-1.35744 -2.93653,-1.42209 -5.05356,-3.81378 -2.11703,-2.45633 -3.27798,-5.75299 Q 204,351.84113 204,348.02735 q 0,-3.81378 1.16095,-7.04579 1.16095,-3.29666 3.27798,-5.68835 2.11703,-2.45633 5.05356,-3.81378 3.00481,-1.42209 6.62425,-1.42209 3.61944,0 6.55596,1.42209 3.00482,1.35745 5.12185,3.81378 2.11703,2.39169 3.27798,5.68835 1.16095,3.23201 1.16095,7.04579 z m -9.15103,-4.07234 q -0.68291,-2.90881 -2.39019,-4.6541 -1.63899,-1.80993 -4.57552,-1.80993 -2.86823,0 -4.57552,1.80993 -1.63899,1.74529 -2.3219,4.6541 z" />
  <g
     id="emissieklasse"
     transform="translate(57,284)">
    <circle
       id="cirkel_geel_met_zwarte_rand"
       style="fill:#f0ca00;stroke:#2a2d2f;stroke-width:6"
       cx="58"
       cy="58"
       r="55" />
    <path
       id="cijfer3_zwart"
       transform="matrix(0.0667,0,0,0.0667,34.256,32.489)"
       style="fill:#2a2d2f"
       d="m 652,520 q 0,45 -20,85.5 Q 612,646 571,680 484,754 359,754 296,754 239.5,734.5 183,715 135,676 101,647 84,619.5 67,592 60,580 l 114,-69 q 3,8 17,26 14,18 38,36 24,18 56.5,32 32.5,14 73.5,14 36,0 61.5,-8.5 Q 446,602 472,585 493,571 503.5,552.5 514,534 514,515 514,479 496,456 478,433 436,424 417,420 397.5,417.5 378,415 359,415 V 293 h 20 21 q 12,0 20,-1 37,-3 51,-18 14,-15 14,-52 0,-23 -13,-39 -13,-16 -32,-25.5 -19,-9.5 -41,-14 -22,-4.5 -40,-4.5 -33,0 -59.5,9 -26.5,9 -46,20.5 Q 234,180 222,190.5 210,201 207,205 L 113,115 Q 122,104 144.5,86 167,68 188,56 235,30 276.5,20.5 318,11 359,11 q 72,0 120,17.5 48,17.5 83,55.5 58,61 58,129 v 2 q 0,31 -5.5,55.5 -5.5,24.5 -13,41.5 -7.5,17 -14,27 -6.5,10 -8.5,12 2,2 14,13 12,11 25,32 13,21 23.5,52 10.5,31 10.5,72 z" />
  </g>
  <g
     id="personenauto"
     transform="matrix(1.7,0,0,1.7,86,198)">
    <path
       id="romp"
       style="fill:#2a2d2f;stroke:#2a2d2f;stroke-width:2"
       d="M 28,15 1,21 v 7 l 20,4 H 82 L 99,28 V 17 L 86,15 Z" />
    <path
       id="dak"
       style="fill:none;stroke:#2a2d2f;stroke-width:2"
       d="M 43,1 28,15 H 86 L 72,1 Z" />
    <rect
       id="middenstijl"
       style="fill:#2a2d2f"
       width="3"
       height="13"
       x="59"
       y="1" />
    <circle
       id="voorwiel"
       style="fill:#2a2d2f;stroke:#f7fbf5;stroke-width:3"
       cx="21"
       cy="32"
       r="9.5" />
    <circle
       id="achterwiel"
       style="fill:#2a2d2f;stroke:#f7fbf5;stroke-width:3"
       cx="82"
       cy="32"
       r="9.5" />
  </g>
  <g
     id="bedrijfauto"
     transform="matrix(2.05,0,0,2.05,308,167.6)">
    <path
       id="romp-2"
       style="fill:#2a2d2f"
       d="M 35,0 C 34,0 34,0 33,1 L 16,18 0,24 v 12 c 0,2.5 2.5,5 5,5 h 4 c 0,-5 4,-9 9,-9 5,0 9,4 9,9 h 38 c 0,-5 4,-9 9,-9 5,0 9,4 9,9 h 12 c 2.5,0 5,-2.5 5,-5 V 6 C 100,2.5 97.5,0 94,0 Z m -5,11 h 7 v 9 l -3,3 H 19 v -1 z" />
    <circle
       id="voorwiel-2"
       style="fill:#2a2d2f"
       cx="18"
       cy="41"
       r="7" />
    <circle
       id="achterwiel-2"
       style="fill:#2a2d2f"
       cx="74"
       cy="41"
       r="7" />
  </g>
</svg>
