<?xml version="1.0" encoding="UTF-8" standalone="no"?>
<svg id="Nederlands_verkeersbord_C22c" width="600" height="600" xmlns="http://www.w3.org/2000/svg" version="1.1">
  <circle
     id="witte_cirkel_met_rode_rand"
     cx="300"
     cy="300"
     r="256.35"
     fill="#f7fbf5"
     stroke="#c1121c"
     stroke-width="87.3" />
  <circle
     id="bies_wit"
     cx="300"
     cy="300"
     r="285"
     fill="none"
     stroke="#f7fbf5"
     stroke-width="10" />
  <g
     id="bedrijfsauto"
     transform="matrix(2.2,0,0,2.2,190,160)">
    <path
       id="romp"
       style="fill:#2a2d2f"
       d="M 35,0 C 34,0 34,0 33,1 L 16,18 0,24 v 12 c 0,2.5 2.5,5 5,5 h 4 c 0,-5 4,-9 9,-9 5,0 9,4 9,9 h 38 c 0,-5 4,-9 9,-9 5,0 9,4 9,9 h 12 c 2.5,0 5,-2.5 5,-5 V 6 C 100,2.5 97.5,0 94,0 Z m -5,11 h 7 v 9 l -3,3 H 19 v -1 z" />
    <circle
       id="voorwiel"
       style="fill:#2a2d2f"
       cx="18"
       cy="41"
       r="7" />
    <circle
       id="achterwiel"
       style="fill:#2a2d2f"
       cx="74"
       cy="41"
       r="7" />
  </g>
  <g
     id="vrachtauto"
     transform="matrix(0.16480283,0,0,0.16480263,250.55916,322.50928)">
    <path
       id="symbool_vrachtauto_zwart"
       fill="#2a2d2f"
       d="m -111.5,-136.58327 v 443 h -34 v -93 l -24,-220.9999974 c -1.5,-9.9199996 -7.75,-16.3799996 -17,-15.9999996 h -242 c -13.52,-0.38 -26.61,8.7 -31,21.9999996 l -80,234.9999974 15,195 -25,15 v 56 h 128.51758 a 160,160 0 0 1 -0.0176,-0.5 160,160 0 0 1 160,-160 160,160 0 0 1 154.91016,120.5 h 498.1797 A 160,160 0 0 1 547,338.91673 h 280 a 160,160 0 0 1 154.8418,120.5 H 1149.5 v -596 z m -280,167.000003 h 145 c 9.31,0.03 16.65,7.39 17,16 V 176.41673 c -0.35,8.7 -7.74,16.05 -17,16 h -206 l 44,-148.999997 c 1.95,-6.54 7.39,-12.97 17,-13 z M -261,374.41673 a 124.5,124.5 0 0 0 -124.5,124.5 124.5,124.5 0 0 0 124.5,124.5 124.5,124.5 0 0 0 124.5,-124.5 124.5,124.5 0 0 0 -124.5,-124.5 z m 808,0 a 124.5,124.5 0 0 0 -124.5,124.5 124.5,124.5 0 0 0 124.5,124.5 124.5,124.5 0 0 0 124.5,-124.5 124.5,124.5 0 0 0 -124.5,-124.5 z m 280,0 a 124.5,124.5 0 0 0 -124.5,124.5 124.5,124.5 0 0 0 124.5,124.5 124.5,124.5 0 0 0 124.5,-124.5 124.5,124.5 0 0 0 -124.5,-124.5 z" />
  </g>
</svg>
