<?xml version="1.0" encoding="UTF-8" standalone="no"?>
<svg id="Nederlands_verkeersbord_C22c1" width="600" height="300" xmlns="http://www.w3.org/2000/svg" version="1.1">
  <path
     id="vlak_wit"
     style="fill:#f7fbf5"
     d="M 0,30 a 30,30 0 0 1 30,-30 h 540 a 30,30 0 0 1 30,30 v 240 a 30,30 0 0 1 -30,30 h -540 a 30,30 0 0 1 -30,-30 z" />
  <path
     id="bies_zwart"
     style="fill:none;stroke-width:15;stroke:#2a2d2f"
     d="M 21.5,44 a 22.5,22.5 0 0,1 22.5,-22.5 h 512 a 22.5,22.5 0 0,1 22.5,22.5 v 212 a 22.5,22.5 0 0,1 -22.5,22.5 h -512 a 22.5,22.5 0 0,1 -22.5,-22.5 z" />
  <path
     id="tekst_zwart"
     style="fill:#2a2d2f"
     d="m 481.26028,204.52594 q 0.12,1.56 0.6,2.7 0.54,1.14 1.32,2.1 0.66,0.84 1.74,1.32 1.08,0.48 1.92,0.48 1.56,0 3.12,-0.66 1.56,-0.66 2.64,-1.86 l 6.06,4.68 q -2.46,2.58 -5.4,4.08 -2.94,1.5 -6.54,1.5 -6.36,0 -10.38,-4.74 -3.96,-4.68 -3.96,-11.94 0,-7.14 4.02,-11.88 4.08,-4.8 10.44,-4.8 6.42,0 10.44,4.92 1.98,2.4 2.88,5.22 0.9,2.76 0.9,6.84 v 2.04 z m 10.62,-6.84 q -0.66,-2.34 -2.04,-3.36 -1.38,-1.02 -3.06,-1.02 -1.62,0 -3.12,1.02 -1.44,1.02 -2.04,3.36 z m -31.79989,-18.48 q 0,1.92 -1.38,3.36 -1.38,1.38 -3.36,1.38 -1.98,0 -3.36,-1.38 -1.38,-1.44 -1.38,-3.36 0,-1.98 1.38,-3.36 1.38,-1.44 3.36,-1.44 1.98,0 3.36,1.44 1.38,1.38 1.38,3.36 z m -9,39.3 v -32.58 h 8.52 v 32.58 z m -12.83996,-9.24 q 0,2.22 -0.84,3.84 -0.78,1.56 -2.1,2.64 -1.26,1.02 -2.82,1.68 -1.56,0.66 -3.06,1.02 -1.5,0.3 -2.82,0.36 -1.26,0.12 -1.92,0.12 -2.58,0 -4.8,-0.42 -2.22,-0.42 -4.02,-1.08 -1.8,-0.66 -3.24,-1.38 -1.38,-0.78 -2.34,-1.44 l 3.96,-7.26 q 0.48,0.3 1.44,0.9 1.02,0.6 2.4,1.2 1.44,0.6 3.12,1.08 1.68,0.42 3.48,0.48 0.54,0 1.32,0 0.78,-0.06 1.5,-0.24 0.78,-0.18 1.26,-0.6 0.54,-0.48 0.54,-1.26 0,-0.66 -0.6,-1.14 -0.54,-0.48 -1.44,-0.84 -0.9,-0.36 -2.04,-0.66 -1.08,-0.36 -2.16,-0.72 -1.86,-0.6 -3.84,-1.26 -1.92,-0.72 -3.54,-1.8 -1.62,-1.14 -2.64,-2.82 -0.96,-1.74 -0.96,-4.44 0,-3.06 1.38,-4.92 1.44,-1.86 3.42,-2.88 1.98,-1.08 4.02,-1.38 2.1,-0.36 3.48,-0.36 2.58,0 4.68,0.48 2.16,0.42 3.84,1.08 1.74,0.6 3,1.38 1.26,0.72 2.16,1.26 l -3.6,7.08 q -0.66,-0.3 -1.62,-0.84 -0.9,-0.54 -2.16,-1.08 -1.2,-0.54 -2.82,-0.9 -1.56,-0.42 -3.48,-0.42 -1.56,0 -2.58,0.54 -0.96,0.54 -0.96,1.38 0,0.66 0.48,1.14 0.48,0.48 1.14,0.78 0.72,0.3 1.5,0.54 0.84,0.24 1.5,0.48 2.34,0.72 4.62,1.5 2.28,0.72 4.08,1.86 1.8,1.08 2.94,2.82 1.14,1.74 1.14,4.5 z m -36.11993,0 q 0,2.22 -0.84,3.84 -0.78,1.56 -2.1,2.64 -1.26,1.02 -2.82,1.68 -1.56,0.66 -3.06,1.02 -1.5,0.3 -2.82,0.36 -1.26,0.12 -1.92,0.12 -2.58,0 -4.8,-0.42 -2.22,-0.42 -4.02,-1.08 -1.8,-0.66 -3.24,-1.38 -1.38,-0.78 -2.34,-1.44 l 3.96,-7.26 q 0.48,0.3 1.44,0.9 1.02,0.6 2.4,1.2 1.44,0.6 3.12,1.08 1.68,0.42 3.48,0.48 0.54,0 1.32,0 0.78,-0.06 1.5,-0.24 0.78,-0.18 1.26,-0.6 0.54,-0.48 0.54,-1.26 0,-0.66 -0.6,-1.14 -0.54,-0.48 -1.44,-0.84 -0.9,-0.36 -2.04,-0.66 -1.08,-0.36 -2.16,-0.72 -1.86,-0.6 -3.84,-1.26 -1.92,-0.72 -3.54,-1.8 -1.62,-1.14 -2.64,-2.82 -0.96,-1.74 -0.96,-4.44 0,-3.06 1.38,-4.92 1.44,-1.86 3.42,-2.88 1.98,-1.08 4.02,-1.38 2.1,-0.36 3.48,-0.36 2.58,0 4.68,0.48 2.16,0.42 3.84,1.08 1.74,0.6 3,1.38 1.26,0.72 2.16,1.26 l -3.6,7.08 q -0.66,-0.3 -1.62,-0.84 -0.9,-0.54 -2.16,-1.08 -1.2,-0.54 -2.82,-0.9 -1.56,-0.42 -3.48,-0.42 -1.56,0 -2.58,0.54 -0.96,0.54 -0.96,1.38 0,0.66 0.48,1.14 0.48,0.48 1.14,0.78 0.72,0.3 1.5,0.54 0.84,0.24 1.5,0.48 2.34,0.72 4.62,1.5 2.28,0.72 4.08,1.86 1.8,1.08 2.94,2.82 1.14,1.74 1.14,4.5 z m -39.47989,-30.06 q 0,1.92 -1.38,3.36 -1.38,1.38 -3.36,1.38 -1.98,0 -3.36,-1.38 -1.38,-1.44 -1.38,-3.36 0,-1.98 1.38,-3.36 1.38,-1.44 3.36,-1.44 1.98,0 3.36,1.44 1.38,1.38 1.38,3.36 z m -9,39.3 v -32.58 h 8.52 v 32.58 z m -24.83992,0 v -18.48 q 0,-2.58 -1.62,-4.38 -0.84,-0.84 -1.74,-1.2 -0.84,-0.36 -2.04,-0.36 -1.2,0 -2.04,0.36 -0.78,0.36 -1.62,1.2 -0.84,0.96 -1.2,2.04 -0.36,1.08 -0.36,2.34 v 18.48 h -8.7 v -18.48 q 0,-1.26 -0.36,-2.4 -0.3,-1.14 -1.2,-2.04 -0.84,-0.9 -1.68,-1.14 -0.78,-0.3 -1.74,-0.3 -1.02,0 -1.98,0.3 -0.9,0.3 -1.74,1.14 -0.9,0.9 -1.32,2.04 -0.36,1.14 -0.36,2.4 v 18.48 h -8.76 v -32.58 h 8.7 v 2.16 q 1.38,-1.38 3.36,-1.98 2.04,-0.66 4.26,-0.66 2.34,0 4.8,0.96 2.46,0.9 4.2,3.18 1.86,-2.28 4.2,-3.18 2.4,-0.96 5.4,-0.96 4.92,0 8.64,3.6 3.6,3.54 3.6,8.52 v 20.94 z m -71.21997,-13.98 q 0.12,1.56 0.6,2.7 0.54,1.14 1.32,2.1 0.66,0.84 1.74,1.32 1.08,0.48 1.92,0.48 1.56,0 3.12,-0.66 1.56,-0.66 2.64,-1.86 l 6.06,4.68 q -2.46,2.58 -5.4,4.08 -2.94,1.5 -6.54,1.5 -6.36,0 -10.38,-4.74 -3.96,-4.68 -3.96,-11.94 0,-7.14 4.02,-11.88 4.08,-4.8 10.44,-4.8 6.42,0 10.44,4.92 1.98,2.4 2.88,5.22 0.9,2.76 0.9,6.84 v 2.04 z m 10.62,-6.84 q -0.66,-2.34 -2.04,-3.36 -1.38,-1.02 -3.06,-1.02 -1.62,0 -3.12,1.02 -1.44,1.02 -2.04,3.36 z m -54.95997,8.94 v -8.04 h 22.5 v 8.04 z m -25.19994,11.88 v -41.7 l 8.76,-3.54 v 45.24 z m -24.41992,0 v -1.92 q -1.74,1.38 -3.66,1.92 -1.86,0.54 -4.14,0.54 -2.28,0 -4.62,-0.96 -2.34,-0.96 -4.14,-2.76 -3.54,-3.42 -3.54,-8.4 v -21 h 8.64 v 18.72 q 0,2.7 1.74,4.32 1.74,1.56 3.96,1.56 1.08,0 2.1,-0.42 1.08,-0.42 1.86,-1.2 0.84,-0.78 1.32,-1.86 0.48,-1.08 0.48,-2.4 v -18.72 h 8.7 v 32.58 z m -44.45989,0 v -18.06 q 0,-1.38 -0.36,-2.64 -0.36,-1.26 -1.38,-2.28 -0.9,-0.96 -1.8,-1.26 -0.84,-0.36 -2.16,-0.36 -1.32,0 -2.28,0.36 -0.96,0.36 -1.92,1.32 -0.96,1.02 -1.26,2.28 -0.3,1.2 -0.3,2.58 v 18.06 h -8.76 v -32.58 h 8.76 v 1.92 q 1.74,-1.38 3.6,-1.86 1.92,-0.54 4.2,-0.54 2.28,0 4.56,0.96 2.34,0.96 4.2,2.7 3.54,3.36 3.54,8.4 v 21 z M 470.91049,112.92 V 94.86 q 0,-1.38 -0.36,-2.64 -0.36,-1.26 -1.38,-2.28 -0.9,-0.96 -1.8,-1.26 -0.84,-0.36 -2.16,-0.36 -1.32,0 -2.28,0.36 -0.96,0.36 -1.92,1.32 -0.96,1.02 -1.26,2.28 -0.3,1.2 -0.3,2.58 v 18.06 h -8.76 V 80.34 h 8.76 v 1.92 q 1.74,-1.38 3.6,-1.86 1.92,-0.54 4.2,-0.54 2.28,0 4.56,0.96 2.34,0.96 4.2,2.7 3.54,3.36 3.54,8.4 v 21 z m -44.75998,0 v -1.32 q -1.62,0.84 -3.48,1.26 -1.8,0.36 -3.84,0.36 -2.7,0 -4.68,-0.78 -1.98,-0.78 -3.84,-2.4 -1.92,-1.62 -2.64,-3.6 -0.72,-2.04 -0.72,-4.38 0,-2.34 0.72,-4.32 0.78,-1.98 2.64,-3.66 1.92,-1.68 4.2,-2.58 2.34,-0.96 5.04,-0.96 2.04,0 3.48,0.24 1.5,0.18 3.12,0.9 0,-2.1 -1.08,-3.12 -1.08,-1.08 -3.84,-1.08 -2.94,0 -4.98,0.96 -2.04,0.96 -3.24,1.68 l -3.72,-6.42 q 1.02,-0.6 2.46,-1.32 1.44,-0.78 2.64,-1.26 1.74,-0.66 3.84,-0.96 2.16,-0.36 4.02,-0.36 2.46,0 4.68,0.66 2.28,0.66 3.96,1.86 2.22,1.62 3.12,3.54 0.9,1.86 0.9,3.78 v 23.28 z m 0,-13.56 q -1.2,-0.9 -2.52,-1.32 -1.32,-0.42 -3.42,-0.42 -0.54,0 -1.32,0.18 -0.78,0.18 -1.5,0.6 -0.72,0.42 -1.26,1.2 -0.48,0.78 -0.48,1.92 0,1.2 0.48,1.98 0.48,0.78 1.2,1.26 0.72,0.42 1.44,0.6 0.78,0.18 1.32,0.18 2.22,0 3.6,-0.42 1.38,-0.42 2.46,-1.14 z m -40.25995,13.56 v -1.32 q -1.62,0.84 -3.48,1.26 -1.8,0.36 -3.84,0.36 -2.7,0 -4.68,-0.78 -1.98,-0.78 -3.84,-2.4 -1.92,-1.62 -2.64,-3.6 -0.72,-2.04 -0.72,-4.38 0,-2.34 0.72,-4.32 0.78,-1.98 2.64,-3.66 1.92,-1.68 4.2,-2.58 2.34,-0.96 5.04,-0.96 2.04,0 3.48,0.24 1.5,0.18 3.12,0.9 0,-2.1 -1.08,-3.12 -1.08,-1.08 -3.84,-1.08 -2.94,0 -4.98,0.96 -2.04,0.96 -3.24,1.68 l -3.72,-6.42 q 1.02,-0.6 2.46,-1.32 1.44,-0.78 2.64,-1.26 1.74,-0.66 3.84,-0.96 2.16,-0.36 4.02,-0.36 2.46,0 4.68,0.66 2.28,0.66 3.96,1.86 2.22,1.62 3.12,3.54 0.9,1.86 0.9,3.78 v 23.28 z m 0,-13.56 q -1.2,-0.9 -2.52,-1.32 -1.32,-0.42 -3.42,-0.42 -0.54,0 -1.32,0.18 -0.78,0.18 -1.5,0.6 -0.72,0.42 -1.26,1.2 -0.48,0.78 -0.48,1.92 0,1.2 0.48,1.98 0.48,0.78 1.2,1.26 0.72,0.42 1.44,0.6 0.78,0.18 1.32,0.18 2.22,0 3.6,-0.42 1.38,-0.42 2.46,-1.14 z m -30.59992,12.42 q -1.2,0.72 -2.64,1.14 -1.38,0.36 -3.96,0.36 -3.36,0 -5.64,-2.1 -2.4,-2.28 -2.4,-5.28 V 88.56 h -5.52 v -8.22 h 5.52 v -7.86 l 8.82,-3.48 v 11.34 h 7.62 v 8.28 h -7.62 V 102 q 0,1.38 0.54,2.04 0.54,0.66 1.98,0.66 1.68,0 2.94,-0.84 1.32,-0.9 2.46,-1.98 z m -28.31995,-8.1 q 0,2.22 -0.84,3.84 -0.78,1.56 -2.1,2.64 -1.26,1.02 -2.82,1.68 -1.56,0.66 -3.06,1.02 -1.5,0.3 -2.82,0.36 -1.26,0.12 -1.92,0.12 -2.58,0 -4.8,-0.42 -2.22,-0.42 -4.02,-1.08 -1.8,-0.66 -3.24,-1.38 -1.38,-0.78 -2.34,-1.44 l 3.96,-7.26 q 0.48,0.3 1.44,0.9 1.02,0.6 2.4,1.2 1.44,0.6 3.12,1.08 1.68,0.42 3.48,0.48 0.54,0 1.32,0 0.78,-0.06 1.5,-0.24 0.78,-0.18 1.26,-0.6 0.54,-0.48 0.54,-1.26 0,-0.66 -0.6,-1.14 -0.54,-0.48 -1.44,-0.84 -0.9,-0.36 -2.04,-0.66 -1.08,-0.36 -2.16,-0.72 -1.86,-0.6 -3.84,-1.26 -1.92,-0.72 -3.54,-1.8 -1.62,-1.14 -2.64,-2.82 -0.96,-1.74 -0.96,-4.44 0,-3.06 1.38,-4.92 1.44,-1.86 3.42,-2.88 1.98,-1.08 4.02,-1.38 2.1,-0.36 3.48,-0.36 2.58,0 4.68,0.48 2.16,0.42 3.84,1.08 1.74,0.6 3,1.38 1.26,0.72 2.16,1.26 l -3.6,7.08 q -0.66,-0.3 -1.62,-0.84 -0.9,-0.54 -2.16,-1.08 -1.2,-0.54 -2.82,-0.9 -1.56,-0.42 -3.48,-0.42 -1.56,0 -2.58,0.54 -0.96,0.54 -0.96,1.38 0,0.66 0.48,1.14 0.48,0.48 1.14,0.78 0.72,0.3 1.5,0.54 0.84,0.24 1.5,0.48 2.34,0.72 4.62,1.5 2.28,0.72 4.08,1.86 1.8,1.08 2.94,2.82 1.14,1.74 1.14,4.5 z M 270.5107,98.94 q 0.12,1.56 0.6,2.7 0.54,1.14 1.32,2.1 0.66,0.84 1.74,1.32 1.08,0.48 1.92,0.48 1.56,0 3.12,-0.66 1.56,-0.66 2.64,-1.86 l 6.06,4.68 q -2.46,2.58 -5.4,4.08 -2.94,1.5 -6.54,1.5 -6.36,0 -10.38,-4.74 -3.96,-4.68 -3.96,-11.94 0,-7.14 4.02,-11.88 4.08,-4.8 10.44,-4.8 6.42,0 10.44,4.92 1.98,2.4 2.88,5.22 0.9,2.76 0.9,6.84 v 2.04 z m 10.62,-6.84 q -0.66,-2.34 -2.04,-3.36 -1.38,-1.02 -3.06,-1.02 -1.62,0 -3.12,1.02 -1.44,1.02 -2.04,3.36 z m -31.73993,20.82 q 0,5.76 -3.9,10.38 -1.98,2.28 -4.62,3.72 -2.64,1.44 -5.52,1.92 0,0 -0.54,-1.14 -0.48,-1.14 -1.14,-2.7 -0.66,-1.5 -1.32,-3 -0.66,-1.44 -0.9,-2.1 0.3,0.06 0.6,0.06 0.36,0.06 0.72,0.06 1.38,0 2.94,-0.48 1.56,-0.42 2.88,-1.8 1.38,-1.44 1.8,-2.64 0.42,-1.2 0.42,-2.7 v -0.84 q -1.74,0.9 -3.24,1.26 -1.44,0.36 -3.18,0.36 -3.18,0 -5.46,-1.14 -2.22,-1.2 -4.2,-3.6 -3.84,-4.62 -3.84,-11.88 0,-7.2 3.84,-11.94 1.98,-2.4 4.26,-3.6 2.28,-1.2 5.46,-1.2 1.74,0 3.12,0.42 1.44,0.36 2.94,1.2 v -1.2 h 8.88 z m -8.82,-22.8 q -0.84,-0.78 -1.86,-1.2 -1.02,-0.48 -2.58,-0.48 -3.24,0 -4.8,2.16 -1.56,2.16 -1.56,5.64 0,3.48 1.56,5.82 1.56,2.28 4.8,2.28 1.56,0 2.58,-0.36 1.02,-0.42 1.86,-1.14 z m -48.95998,8.82 q 0.12,1.56 0.6,2.7 0.54,1.14 1.32,2.1 0.66,0.84 1.74,1.32 1.08,0.48 1.92,0.48 1.56,0 3.12,-0.66 1.56,-0.66 2.64,-1.86 l 6.06,4.68 q -2.46,2.58 -5.4,4.08 -2.94,1.5 -6.54,1.5 -6.36,0 -10.38,-4.74 -3.96,-4.68 -3.96,-11.94 0,-7.14 4.02,-11.88 4.08,-4.8 10.44,-4.8 6.42,0 10.44,4.92 1.98,2.4 2.88,5.22 0.9,2.76 0.9,6.84 v 2.04 z m 10.62,-6.84 q -0.66,-2.34 -2.04,-3.36 -1.38,-1.02 -3.06,-1.02 -1.62,0 -3.12,1.02 -1.44,1.02 -2.04,3.36 z m -28.43999,4.5 q 0,7.26 -3.96,11.94 -3.96,4.74 -10.44,4.74 -6.48,0 -10.5,-4.74 -3.9,-4.62 -3.9,-11.94 0,-7.2 3.9,-11.88 4.08,-4.8 10.5,-4.8 6.48,0 10.44,4.8 3.96,4.8 3.96,11.88 z m -8.7,0.06 q 0,-1.98 -0.42,-3.42 -0.36,-1.44 -1.02,-2.64 -0.84,-1.32 -1.8,-1.98 -0.96,-0.66 -2.4,-0.66 -1.56,0 -2.52,0.66 -0.9,0.66 -1.74,1.98 -1.38,2.22 -1.38,6.06 0,3.84 1.38,6.06 0.84,1.38 1.74,2.04 0.96,0.6 2.52,0.6 1.44,0 2.4,-0.6 0.96,-0.66 1.8,-2.04 0.66,-1.2 1.02,-2.64 0.42,-1.44 0.42,-3.42 z m -31.49991,15.12 q -1.2,0.72 -2.64,1.14 -1.38,0.36 -3.96,0.36 -3.36,0 -5.64,-2.1 -2.4,-2.28 -2.4,-5.28 V 88.56 h -5.52 v -8.22 h 5.52 v -7.86 l 8.82,-3.48 v 11.34 h 7.62 v 8.28 h -7.62 V 102 q 0,1.38 0.54,2.04 0.54,0.66 1.98,0.66 1.68,0 2.94,-0.84 1.32,-0.9 2.46,-1.98 z" />
</svg>
