<?xml version="1.0" standalone="no"?>
<svg id="Nederlands_verkeersbord_C22d" width="600" height="600"
xmlns="http://www.w3.org/2000/svg" version="1.1">
  <circle
     id="bord_wit"
     cx="300"
     cy="300"
     r="300"
     fill="#f7fbf5" />
  <g
     id="bedrijfsauto"
     transform="matrix(3,0,0,3,150,111)">
    <path
       id="romp"
       style="fill:#8f9695"
       d="M 35,0 C 34,0 34,0 33,1 L 16,18 0,24 v 12 c 0,2.5 2.5,5 5,5 h 4 c 0,-5 4,-9 9,-9 5,0 9,4 9,9 h 38 c 0,-5 4,-9 9,-9 5,0 9,4 9,9 h 12 c 2.5,0 5,-2.5 5,-5 V 6 C 100,2.5 97.5,0 94,0 Z m -5,11 h 7 v 9 l -3,3 H 19 v -1 z" />
    <circle
       id="voorwiel"
       style="fill:#8f9695"
       cx="18"
       cy="41"
       r="7" />
    <circle
       id="achterwiel"
       style="fill:#8f9695"
       cx="74"
       cy="41"
       r="7" />
  </g>
  <g
     id="vrachtauto"
     transform="matrix(0.16480283,0,0,0.16480283,-580.59916,-115.11634)">
    <path
       id="symbool_vrachtauto_zwart"
       fill="#8f9695"
       d="m 4784.8857,2518.8666 v 601.2145 h -46.1428 v -126.2143 l -32.5715,-299.9287 c -2.0357,-13.4628 -10.5178,-22.23 -23.0715,-21.7143 h -328.4287 c -18.3485,-0.5157 -36.1135,11.8071 -42.0713,29.8571 l -108.5715,318.9287 20.357,264.643 -33.9285,20.3572 v 76 h 174.4168 a 217.14295,217.14295 0 0 1 -0.025,-0.6785 217.14295,217.14295 0 0 1 217.143,-217.143 217.14295,217.14295 0 0 1 210.2351,163.5358 h 676.1014 a 217.14295,217.14295 0 0 1 210.2354,-163.5358 h 380.0001 a 217.14295,217.14295 0 0 1 210.1425,163.5358 h 227.5362 v -808.8575 z m -380.0001,226.643 h 196.7858 c 12.635,0.04 22.5964,10.0292 23.0714,21.7142 v 176.4287 c -0.475,11.8071 -10.5043,21.7821 -23.0714,21.7143 h -279.5715 l 59.7142,-202.2144 c 2.6465,-8.8757 10.0293,-17.6021 23.0715,-17.6428 z m 177.1072,466.8573 a 168.96435,168.96435 0 0 0 -168.9644,168.9644 168.96435,168.96435 0 0 0 168.9644,168.9643 168.96435,168.96435 0 0 0 168.9643,-168.9643 168.96435,168.96435 0 0 0 -168.9643,-168.9644 z m 1096.5719,0 a 168.96435,168.96435 0 0 0 -168.9643,168.9644 168.96435,168.96435 0 0 0 168.9643,168.9643 168.96435,168.96435 0 0 0 168.9644,-168.9643 168.96435,168.96435 0 0 0 -168.9644,-168.9644 z m 380.0002,0 a 168.96435,168.96435 0 0 0 -168.9645,168.9644 168.96435,168.96435 0 0 0 168.9645,168.9643 168.96435,168.96435 0 0 0 168.9643,-168.9643 168.96435,168.96435 0 0 0 -168.9643,-168.9644 z"
       style="stroke-width:1.35715" />
  </g>
  <g
     id="strepen_zwart"
     style="fill:#2a2d2f"
     transform="rotate(30,300,300)">
    <rect
       id="streep1"
       width="25.2"
       height="560"
       x="246.9"
       y="20" />
    <rect
       id="streep2"
       width="25.2"
       height="560"
       x="287.4"
       y="20" />
    <rect
       id="streep3"
       width="25.2"
       height="560"
       x="327.9"
       y="20" />
  </g>
  <circle
     id="rand_wit"
     cx="300"
     cy="300"
     r="282"
     fill="none"
     stroke="#f7fbf5"
     stroke-width="36" />
  <circle
     id="rand_enkel_voor_zichtbaarheid_op_witte_achtergrond_zwart"
     cx="300"
     cy="300"
     r="299.5"
     fill="none"
     stroke="#2a2d2f"
     stroke-width="1" />
</svg>
