<svg id="Nederlands verkeersbord C23-01" width="370" height="300" viewBox="0 0 370 300"
xmlns="http://www.w3.org/2000/svg" version="1.1">

<rect id="blauw vlak" width="370" height="300" fill="#0e518d" />

  <g
     id="g3673">
    <path
       style="fill:#f7fbf5;stroke:none"
       d="M 147.97527,265.26838 L 147.97527,101.53123 L 128.03756,106.17275 C 123.20865,108.07082 119.40851,105.58259 122.14955,100.93309 L 152.55456,57.261349 C 155.29639,53.33759 157.60119,53.33759 160.37413,57.261349 L 190.77914,100.93309 C 193.48906,105.58259 189.68894,108.07082 184.86002,106.17275 L 164.95342,101.53123 L 164.95342,265.26838 L 147.97527,265.26838"
       id="path342" />
    <path
       style="fill:#f7fbf5;stroke:none"
       d="M 283.27096,265.26838 L 283.27096,101.53123 L 263.33325,106.17275 C 258.50513,108.07082 254.70421,105.58259 257.44604,100.93309 L 287.85105,57.261349 C 290.59208,53.33759 292.89768,53.33759 295.66982,57.261349 L 326.07481,100.93309 C 328.78554,105.58259 324.98461,108.07082 320.15571,106.17275 L 300.24991,101.53123 L 300.24991,265.26838 L 283.27096,265.26838"
       id="path344" />
    <path
       style="fill:#f7fbf5;stroke:none"
       d="M 58.193393,265.26838 L 58.193393,101.53123 L 38.286778,106.17275 C 33.457865,108.07082 29.657738,105.58259 32.367671,100.93309 L 62.772673,57.261349 C 65.545613,53.33759 67.850413,53.33759 70.592233,57.261349 L 100.99724,100.93309 C 103.73828,105.58259 99.938153,108.07082 95.109243,106.17275 L 75.171523,101.53123 L 75.171523,265.26838 L 58.193393,265.26838"
       id="path346" />
    <path
       style="fill:none;stroke:#f7fbf5;stroke-width:6.76288557"
       d="M 221.83809,30.560652 L 221.83809,272.68524"
       id="path348" />
  </g>

<path id="witte_bies" style="fill:none;stroke:#f7fbf5;stroke-width:6.76288557"
     d="M 23.676427,292.12059 C 14.953281,292.12059 7.881775,285.04666 7.881775,276.32986 L 7.881775,23.678125 C 7.881775,14.95335 14.953281,7.88739 23.676427,7.88739 L 346.32195,7.88739 C 355.04669,7.88739 362.08869,14.95335 362.08869,23.678125 L 362.08869,276.32986 C 362.08869,285.04666 355.04669,292.12059 346.32195,292.12059 L 23.676427,292.12059 z " />

</svg>