<svg id="Nederlands verkeersbord C23-02" width="370" height="300" viewBox="0 0 370 300"
xmlns="http://www.w3.org/2000/svg" version="1.1">

<rect id="blauw_vlak" width="370" height="300" fill="#0e518d" />

<path id="witte_bies" style="fill:none;stroke:#f7fbf5;stroke-width:6.76477575"
     d="M 23.69469,292.09394 C 14.97165,292.09394 7.87324,285.02963 7.87324,276.30755 L 7.87324,23.65875 C 7.87324,14.93668 14.97165,7.8807 23.69469,7.8807 L 346.30569,7.8807 C 355.02873,7.8807 362.12715,14.93668 362.12715,23.65875 L 362.12715,276.30755 C 362.12715,285.02963 355.02873,292.09394 346.30569,292.09394 L 23.69469,292.09394 z" />

<g id="g1878">

<path fill="#f7fbf5"
       d="M 147.98348,265.24459 L 147.98348,101.53269 L 128.02963,106.14782 C 123.21404,108.07217 119.40657,105.56468 122.13929,100.91623 L 152.53247,57.23918 C 155.2985,53.34048 157.61467,53.34048 160.3807,57.23918 L 190.77389,100.91623 C 193.5066,105.56468 189.69914,108.07217 184.88355,106.14782 L 164.93803,101.53269 L 164.93803,265.24459 L 147.98348,265.24459" />

<path fill="#f7fbf5"
       d="M 58.18696,265.24459 L 58.18696,101.53269 L 38.27476,106.14782 C 33.45083,108.07217 29.64336,105.56468 32.38441,100.91623 L 62.77759,57.23918 C 65.51032,53.34048 67.85146,53.34048 70.59251,57.23918 L 101.01902,100.91623 C 103.71842,105.56468 99.94427,108.07217 95.09535,106.14782 L 75.1748,101.53269 L 75.1748,265.24459 L 58.18696,265.24459" />

<path style="fill:none;stroke:#f7fbf5;stroke-width:6.76477575"
       d="M 221.8586,30.55645 L 221.8586,272.6671" />

<path fill="#f7fbf5"
       d="M 287.82713,158.3137 L 305.17323,147.50898 C 309.95551,145.42634 310.86364,140.9695 305.62314,139.60329 L 253.25989,130.23143 C 248.54428,129.41503 246.91964,131.04782 247.72779,135.76291 L 257.10069,188.12039 C 258.46705,193.3603 262.92439,192.45227 265.00725,187.67054 L 275.81316,170.32634 L 302.63215,197.13404 L 302.53218,197.20069 L 302.53218,265.24459 L 319.52002,265.24459 L 319.52002,189.9781 L 287.82713,158.3137" />

</g>

</svg>