<?xml version="1.0" standalone="no"?>
<svg id="Nederlands_verkeersbord_C3" width="600" height="600" xmlns="http://www.w3.org/2000/svg" version="1.1">
	<path id="vlak_blauw" fill="#0e518d" d="M0,30 a30,30 0 0,1 30,-30 h540 a30,30 0 0,1 30,30 v540 a30,30 0 0,1 -30,30 h-540 a30,30 0 0,1 -30,-30 z"/>
	<path id="symbool_wit" fill="#f7fbf5" d="M 345.25166,510.83034 V 342.88666 l 106.22862,24.71656 c 25.71743,10.16144 45.9555,-3.13834 31.4343,-27.97365 L 320.84045,106.83249 c -14.6569,-20.814838 -27.02366,-20.814838 -41.68057,0 L 117.08575,339.62957 c -14.52119,24.83531 5.71687,38.13509 31.43431,27.97365 l 106.22862,-24.71656 v 167.94368 z"/>
	<path id="bies_wit" style="fill:none;stroke-width:15;stroke:#f7fbf5" d="M21.5,44 a22.5,22.5 0 0,1 22.5,-22.5 h512 a22.5,22.5 0 0,1 22.5,22.5 v512 a22.5,22.5 0 0,1 -22.5,22.5 h-512 a22.5,22.5 0 0,1 -22.5,-22.5 z"/>
</svg>