<?xml version="1.0" standalone="no"?>
<svg id="Nederlands_verkeersbord_C4" width="600" height="400" xmlns="http://www.w3.org/2000/svg" version="1.1">
	<path id="vlak_blauw" fill="#0e518d" d="M0,30 a30,30 0 0,1 30,-30 h540 a30,30 0 0,1 30,30 v340 a30,30 0 0,1 -30,30 h-540 a30,30 0 0,1 -30,-30 z"/>
	<path id="symbool_wit" fill="#f7fbf5" d="M 77.79192,171.92453 H 368.2669 l -15.33547,-65.88827 c -6.29366,-15.963147 1.95086,-28.516527 17.37115,-19.508627 L 514.71732,187.07339 c 12.90962,9.07576 12.90962,16.76046 0,25.85318 L 370.30258,313.47234 c -15.42029,9.0079 -23.66481,-3.54548 -17.37115,-19.50863 L 368.2669,228.07544 H 77.79192 Z"/>
	<path id="bies_wit" style="fill:none;stroke-width:15;stroke:#f7fbf5" d="M21.5,44 a22.5,22.5 0 0,1 22.5,-22.5 h512 a22.5,22.5 0 0,1 22.5,22.5 v312 a22.5,22.5 0 0,1 -22.5,22.5 h-512 a22.5,22.5 0 0,1 -22.5,-22.5 z"/>
</svg>