<?xml version="1.0" standalone="no"?>
<svg id="Nederlands_verkeersbord_C5" width="600" height="600" xmlns="http://www.w3.org/2000/svg" version="1.1">
	<path id="vlak_blauw" fill="#0e518d" d="M0,30 a30,30 0 0,1 30,-30 h540 a30,30 0 0,1 30,30 v540 a30,30 0 0,1 -30,30 h-540 a30,30 0 0,1 -30,-30 z"/>
	<path id="symbool_wit" fill="#f7fbf5" d="M 152.45491,89.934016 V 364.88666 L 90.078253,350.38243 C 74.980285,344.4111 63.088516,352.23151 71.621412,366.80359 L 166.7895,503.49957 c 8.60075,12.23105 15.87831,12.23105 24.47906,0 l 95.16809,-136.69598 c 8.53289,-14.57208 -3.35888,-22.39249 -18.45685,-16.42116 l -62.37665,14.50423 V 89.934016 Z M 447.54553,510.06634 V 235.1137 l 62.37666,14.50423 c 15.09796,5.97133 26.98973,-1.84908 18.45684,-16.42116 L 433.21094,96.500788 c -8.60075,-12.231051 -15.87831,-12.231051 -24.47906,0 L 313.56379,233.19677 c -8.53289,14.57208 3.35888,22.39249 18.45685,16.42116 l 62.37665,-14.50423 v 274.95264 z"/>
	<path id="bies_wit" style="fill:none;stroke-width:15;stroke:#f7fbf5" d="M21.5,44 a22.5,22.5 0 0,1 22.5,-22.5 h512 a22.5,22.5 0 0,1 22.5,22.5 v512 a22.5,22.5 0 0,1 -22.5,22.5 h-512 a22.5,22.5 0 0,1 -22.5,-22.5 z"/>
</svg>