<?xml version="1.0" encoding="UTF-8" standalone="no"?>
<!-- Created with Inkscape (http://www.inkscape.org/) -->

<svg
   xmlns:dc="http://purl.org/dc/elements/1.1/"
   xmlns:cc="http://creativecommons.org/ns#"
   xmlns:rdf="http://www.w3.org/1999/02/22-rdf-syntax-ns#"
   xmlns:svg="http://www.w3.org/2000/svg"
   xmlns="http://www.w3.org/2000/svg"
   xmlns:sodipodi="http://sodipodi.sourceforge.net/DTD/sodipodi-0.dtd"
   xmlns:inkscape="http://www.inkscape.org/namespaces/inkscape"
   width="600"
   height="600"
   id="svg2"
   version="1.1"
   inkscape:version="0.91 r13725"
   sodipodi:docname="Verkeersbord_C8.svg">
  <defs
     id="defs4" />
  <sodipodi:namedview
     id="base"
     pagecolor="#ffffff"
     bordercolor="#666666"
     borderopacity="1.0"
     inkscape:pageopacity="0.0"
     inkscape:pageshadow="2"
     inkscape:zoom="14.383302"
     inkscape:cx="14.669785"
     inkscape:cy="30.000063"
     inkscape:document-units="px"
     inkscape:current-layer="layer1"
     showgrid="false"
     showborder="false"
     inkscape:showpageshadow="false"
     fit-margin-top="0"
     fit-margin-left="0"
     fit-margin-right="0"
     fit-margin-bottom="0"
     inkscape:window-width="1600"
     inkscape:window-height="837"
     inkscape:window-x="-8"
     inkscape:window-y="-8"
     inkscape:window-maximized="1" />
  <metadata
     id="metadata7">
    <rdf:RDF>
      <cc:Work
         rdf:about="">
        <dc:format>image/svg+xml</dc:format>
        <dc:type
           rdf:resource="http://purl.org/dc/dcmitype/StillImage" />
        <dc:title></dc:title>
      </cc:Work>
    </rdf:RDF>
  </metadata>
  <g
     inkscape:label="Laag 1"
     inkscape:groupmode="layer"
     id="layer1"
     transform="translate(-406.49988,199.97429)">
    <g
       transform="matrix(2.1201211,0,0,-2.1201211,79.476936,944.36107)"
       xml:space="preserve"
       style="font-style:normal;font-variant:normal;font-weight:normal;font-stretch:normal;letter-spacing:normal;word-spacing:normal;text-anchor:start;fill:none;stroke:#000000;stroke-width:1.1499083;stroke-linecap:butt;stroke-linejoin:miter;stroke-miterlimit:10.43299961;stroke-dasharray:none;stroke-dashoffset:0;stroke-opacity:1"
       id="g13835"><path
         inkscape:connector-curvature="0"
         d="m 295.25,256.75 7.32,0.14 7.21,0.51 7.12,0.86 7,1.21 6.87,1.55 6.74,1.88 6.6,2.19 6.45,2.51 6.29,2.82 6.13,3.1 5.94,3.39 5.76,3.67 5.57,3.93 5.36,4.19 5.15,4.43 4.93,4.68 4.7,4.9 4.46,5.13 4.21,5.34 3.96,5.54 3.69,5.73 3.41,5.92 3.14,6.1 2.84,6.26 2.54,6.42 2.23,6.57 1.91,6.71 1.58,6.84 1.25,6.96 0.9,7.07 0.55,7.18 0.19,7.27 c -0.02,78.52 -63.48,141.98 -142,142 -78.03,-0.02 -141.48,-63.48 -141,-142 -0.48,-78.03 62.97,-141.48 141,-141 z"
         style="fill:#e3001b;fill-opacity:1;fill-rule:nonzero;stroke:none"
         id="path13837" /><path
         inkscape:connector-curvature="0"
         d="m 295.74802,299.19791 5.12394,0.14286 5.04775,0.40001 4.98108,0.64764 4.89537,0.88574 4.80964,1.12384 4.7144,1.35241 4.61917,1.56195 4.50487,1.79052 4.40012,1.99053 4.28581,2.19053 4.15249,2.40005 4.02867,2.58102 3.88582,2.76197 3.74295,2.94294 3.60009,3.11437 3.43818,3.28579 3.2858,3.43819 3.10484,3.59056 2.94294,3.74295 2.75245,3.8763 2.57149,4.00962 2.38101,4.14296 2.17149,4.26677 1.97148,4.38107 1.76195,4.48583 1.54289,4.59059 1.32384,4.68583 1.08574,4.78107 0.84765,4.85727 0.60953,4.94298 0.36192,5.00965 0.10479,5.07632 c 0.26667,54.95378 -44.09636,99.31682 -99.05014,99.05014 -54.48709,0.26668 -98.85013,-44.09636 -99.05013,-99.05014 0.2,-54.48709 44.56304,-98.85013 99.05013,-99.05013 z"
         style="fill:#ffffff;fill-rule:nonzero;stroke:#ffffff;stroke-width:0"
         id="path13839" /><path
         id="path13841"
         style="fill:none;stroke:#ffffff;stroke-width:7.07505178;stroke-miterlimit:10.43299961;stroke-dasharray:none"
         d="m 295.74785,265.00183 6.89291,0.19217 6.79042,0.53811 6.70074,0.87123 6.58543,1.19153 6.47012,1.51183 6.34199,1.81932 6.21388,2.10119 6.06013,2.40868 5.9192,2.67772 5.76546,2.9468 5.58608,3.22865 5.41952,3.47208 5.22733,3.71551 5.03518,3.95895 4.84299,4.18956 4.62517,4.42018 4.42017,4.62518 4.17674,4.83016 3.95897,5.03517 3.70268,5.21453 3.45928,5.39391 3.20302,5.57326 2.92117,5.73982 2.6521,5.89357 2.37025,6.03452 2.07557,6.17545 1.78088,6.30355 1.46058,6.43168 1.14027,6.53418 0.81998,6.64949 0.48687,6.73917 0.14092,6.82886 c 0.35875,73.92592 -59.3201,133.60477 -133.246,133.24601 -73.29812,0.35876 -132.97696,-59.32009 -133.24602,-133.24601 0.26906,-73.29811 59.9479,-132.97696 133.24602,-133.24601 z"
         inkscape:connector-curvature="0" /><g
         id="g13975"
         style="font-style:normal;font-variant:normal;font-weight:normal;font-stretch:normal;letter-spacing:normal;word-spacing:normal;text-anchor:start;fill:none;stroke:none"
         transform="matrix(0.99999783,0,0,0.99999783,-1.500712,0.49950614)"><path
           d="m 245.25,337.75 0.97,0.05 0.96,0.09 0.94,0.14 0.93,0.18 0.91,0.22 0.89,0.27 0.88,0.3 0.85,0.35 0.83,0.38 0.81,0.42 0.79,0.46 0.76,0.49 0.73,0.53 0.71,0.56 0.68,0.59 0.66,0.63 0.62,0.65 0.59,0.68 0.56,0.71 0.53,0.74 0.5,0.76 0.46,0.79 0.42,0.81 0.39,0.84 0.34,0.85 0.31,0.88 0.27,0.89 0.23,0.92 0.19,0.93 0.14,0.95 0.1,0.96 0.05,0.98 c -0.32,9.83 -8.56,18.07 -19,18 -9.9,0.07 -18.14,-8.17 -18,-18 -0.14,-10.5 8.1,-18.75 18,-19 z"
           style="fill:#000000;fill-rule:nonzero;stroke:none"
           id="path9506"
           inkscape:connector-curvature="0" /><path
           d="m 335.25,337.75 1.78,0.06 1.76,0.15 1.73,0.24 1.71,0.32 1.67,0.4 1.65,0.48 1.61,0.56 1.57,0.63 1.54,0.71 1.49,0.77 1.46,0.85 1.41,0.91 1.36,0.97 1.31,1.04 1.27,1.1 1.21,1.15 1.15,1.22 1.1,1.26 1.04,1.32 0.98,1.36 0.92,1.42 0.85,1.46 0.78,1.5 0.71,1.54 0.64,1.59 0.57,1.62 0.49,1.65 0.41,1.69 0.34,1.72 0.25,1.74 0.16,1.77 0.08,1.8 c -0.37,18.99 -15.89,34.51 -35,35 -19.16,-0.49 -34.68,-16.01 -35,-35 0.32,-19.29 15.84,-34.8 35,-35 z"
           style="fill:#000000;fill-rule:nonzero;stroke:none"
           id="path9508"
           inkscape:connector-curvature="0" /><path
           d="m 335.25,352.75 1.03,0 1.02,0.06 1.01,0.11 0.98,0.15 0.98,0.21 0.95,0.26 0.93,0.3 0.91,0.34 0.89,0.39 0.87,0.44 0.84,0.47 0.81,0.52 0.79,0.55 0.75,0.59 0.73,0.63 0.7,0.66 0.66,0.7 0.63,0.73 0.59,0.76 0.56,0.79 0.52,0.82 0.48,0.84 0.44,0.87 0.4,0.9 0.35,0.92 0.32,0.94 0.26,0.97 0.22,0.98 0.17,1 0.12,1.02 0.07,1.03 0.02,1.05 c 0.09,10.96 -8.92,19.96 -20,20 -11.13,-0.04 -20.14,-9.04 -20,-20 -0.14,-11.25 8.87,-20.26 20,-20 z"
           style="fill:#ffffff;fill-rule:nonzero;stroke:none"
           id="path9510"
           inkscape:connector-curvature="0" /><path
           d="m 361.25,399.75 -0.61,0.64 -0.64,0.63 -0.64,0.6 -0.67,0.59 -0.67,0.57 -0.7,0.56 -0.7,0.53 -0.72,0.52 -0.74,0.5 -0.75,0.48 -0.76,0.46 -0.77,0.44 -0.79,0.42 -0.8,0.4 -0.81,0.39 -0.82,0.36 -0.84,0.34 -0.84,0.32 -0.85,0.3 -0.87,0.28 -0.87,0.26 -0.88,0.24 -0.89,0.22 -0.9,0.19 -0.91,0.18 -0.92,0.15 -0.92,0.13 -0.93,0.1 -0.94,0.09 -0.94,0.06 -0.95,0.04 -0.96,0.01 c -21.08,-0.03 -38.14,-17.09 -38,-38 -0.14,-2.78 0.12,-5.3 1,-8 l -32,0 c -3.73,8.15 -11.57,13.76 -21,14 -6.05,-0.24 -11.75,-2.93 -16,-7 l -5,0 0,31 c 0.05,4.93 3.61,8.36 8,8 l 53,0 11,40 0,7 56,0 0,-43 13,-11 -4,-4 z"
           style="fill:#000000;fill-rule:nonzero;stroke:none"
           id="path9512"
           inkscape:connector-curvature="0" /><path
           d="m 245.25,348.75 0.44,-0.02 0.43,-0.01 0.43,0.03 0.41,0.04 0.41,0.06 0.4,0.09 0.39,0.1 0.38,0.13 0.36,0.14 0.36,0.17 0.35,0.18 0.33,0.2 0.32,0.21 0.31,0.23 0.29,0.25 0.28,0.27 0.26,0.28 0.25,0.29 0.23,0.31 0.22,0.32 0.2,0.33 0.19,0.35 0.16,0.36 0.15,0.37 0.12,0.38 0.11,0.4 0.09,0.4 0.07,0.41 0.05,0.42 0.02,0.43 0.01,0.44 -0.02,0.44 c 0.32,4.11 -3.28,7.71 -8,8 -4.17,-0.29 -7.77,-3.89 -8,-8 0.23,-4.78 3.83,-8.38 8,-8 z"
           style="fill:#ffffff;fill-rule:nonzero;stroke:none"
           id="path9514"
           inkscape:connector-curvature="0" /><polygon
           points="346.25,418.75 346.25,450.75 302.25,450.75 292.25,410.75 304.25,410.75 304.25,410.75 312.25,418.75 "
           style="fill:#ffffff;fill-rule:nonzero;stroke:none"
           id="polygon9516" /><path
           d="m 335.25,358.75 0.71,0.02 0.7,0.06 0.69,0.09 0.67,0.13 0.67,0.16 0.65,0.19 0.64,0.22 0.63,0.25 0.61,0.28 0.6,0.31 0.58,0.33 0.56,0.37 0.54,0.38 0.53,0.42 0.5,0.44 0.48,0.46 0.47,0.48 0.44,0.51 0.41,0.53 0.39,0.54 0.37,0.57 0.34,0.58 0.32,0.6 0.29,0.62 0.25,0.64 0.23,0.65 0.21,0.66 0.16,0.68 0.14,0.69 0.11,0.7 0.07,0.72 0.04,0.72 c -0.23,7.48 -6.4,13.66 -14,14 -7.64,-0.34 -13.82,-6.52 -14,-14 0.18,-7.77 6.36,-13.95 14,-14 z"
           style="fill:#000000;fill-rule:nonzero;stroke:none"
           id="path9518"
           inkscape:connector-curvature="0" /></g></g>  </g>
</svg>
