<?xml version="1.0" encoding="UTF-8" standalone="no"?>
<!-- Created with Inkscape (http://www.inkscape.org/) -->

<svg
   xmlns:dc="http://purl.org/dc/elements/1.1/"
   xmlns:cc="http://creativecommons.org/ns#"
   xmlns:rdf="http://www.w3.org/1999/02/22-rdf-syntax-ns#"
   xmlns:svg="http://www.w3.org/2000/svg"
   xmlns="http://www.w3.org/2000/svg"
   xmlns:sodipodi="http://sodipodi.sourceforge.net/DTD/sodipodi-0.dtd"
   xmlns:inkscape="http://www.inkscape.org/namespaces/inkscape"
   width="600"
   height="600"
   id="svg2"
   version="1.1"
   inkscape:version="0.91 r13725"
   sodipodi:docname="Verkeersbord_C9.svg">
  <defs
     id="defs4" />
  <sodipodi:namedview
     id="base"
     pagecolor="#ffffff"
     bordercolor="#666666"
     borderopacity="1.0"
     inkscape:pageopacity="0.0"
     inkscape:pageshadow="2"
     inkscape:zoom="14.383302"
     inkscape:cx="14.669785"
     inkscape:cy="30.000063"
     inkscape:document-units="px"
     inkscape:current-layer="layer1"
     showgrid="false"
     showborder="false"
     inkscape:showpageshadow="false"
     fit-margin-top="0"
     fit-margin-left="0"
     fit-margin-right="0"
     fit-margin-bottom="0"
     inkscape:window-width="1600"
     inkscape:window-height="837"
     inkscape:window-x="-8"
     inkscape:window-y="-8"
     inkscape:window-maximized="1" />
  <metadata
     id="metadata7">
    <rdf:RDF>
      <cc:Work
         rdf:about="">
        <dc:format>image/svg+xml</dc:format>
        <dc:type
           rdf:resource="http://purl.org/dc/dcmitype/StillImage" />
        <dc:title></dc:title>
      </cc:Work>
    </rdf:RDF>
  </metadata>
  <g
     inkscape:label="Laag 1"
     inkscape:groupmode="layer"
     id="layer1"
     transform="translate(-406.49988,199.97429)">
    <g
       id="g13843"
       style="font-style:normal;font-variant:normal;font-weight:normal;font-stretch:normal;letter-spacing:normal;word-spacing:normal;text-anchor:start;fill:none;stroke:#000000;stroke-width:1.1499083;stroke-linecap:butt;stroke-linejoin:miter;stroke-miterlimit:10.43299961;stroke-dasharray:none;stroke-dashoffset:0;stroke-opacity:1"
       xml:space="preserve"
       transform="matrix(2.1201211,0,0,-2.1201211,79.476936,944.36107)"><path
         id="path13845"
         style="fill:#e3001b;fill-opacity:1;fill-rule:nonzero;stroke:none"
         d="m 295.25,256.75 7.32,0.14 7.21,0.51 7.12,0.86 7,1.21 6.87,1.55 6.74,1.88 6.6,2.19 6.45,2.51 6.29,2.82 6.13,3.1 5.94,3.39 5.76,3.67 5.57,3.93 5.36,4.19 5.15,4.43 4.93,4.68 4.7,4.9 4.46,5.13 4.21,5.34 3.96,5.54 3.69,5.73 3.41,5.92 3.14,6.1 2.84,6.26 2.54,6.42 2.23,6.57 1.91,6.71 1.58,6.84 1.25,6.96 0.9,7.07 0.55,7.18 0.19,7.27 c -0.02,78.52 -63.48,141.98 -142,142 -78.03,-0.02 -141.48,-63.48 -141,-142 -0.48,-78.03 62.97,-141.48 141,-141 z"
         inkscape:connector-curvature="0" /><path
         id="path13847"
         style="fill:#ffffff;fill-rule:nonzero;stroke:#ffffff;stroke-width:0"
         d="m 295.74802,299.19791 5.12394,0.14286 5.04775,0.40001 4.98108,0.64764 4.89537,0.88574 4.80964,1.12384 4.7144,1.35241 4.61917,1.56195 4.50487,1.79052 4.40012,1.99053 4.28581,2.19053 4.15249,2.40005 4.02867,2.58102 3.88582,2.76197 3.74295,2.94294 3.60009,3.11437 3.43818,3.28579 3.2858,3.43819 3.10484,3.59056 2.94294,3.74295 2.75245,3.8763 2.57149,4.00962 2.38101,4.14296 2.17149,4.26677 1.97148,4.38107 1.76195,4.48583 1.54289,4.59059 1.32384,4.68583 1.08574,4.78107 0.84765,4.85727 0.60953,4.94298 0.36192,5.00965 0.10479,5.07632 c 0.26667,54.95378 -44.09636,99.31682 -99.05014,99.05014 -54.48709,0.26668 -98.85013,-44.09636 -99.05013,-99.05014 0.2,-54.48709 44.56304,-98.85013 99.05013,-99.05013 z"
         inkscape:connector-curvature="0" /><path
         inkscape:connector-curvature="0"
         d="m 295.74785,265.00183 6.89291,0.19217 6.79042,0.53811 6.70074,0.87123 6.58543,1.19153 6.47012,1.51183 6.34199,1.81932 6.21388,2.10119 6.06013,2.40868 5.9192,2.67772 5.76546,2.9468 5.58608,3.22865 5.41952,3.47208 5.22733,3.71551 5.03518,3.95895 4.84299,4.18956 4.62517,4.42018 4.42017,4.62518 4.17674,4.83016 3.95897,5.03517 3.70268,5.21453 3.45928,5.39391 3.20302,5.57326 2.92117,5.73982 2.6521,5.89357 2.37025,6.03452 2.07557,6.17545 1.78088,6.30355 1.46058,6.43168 1.14027,6.53418 0.81998,6.64949 0.48687,6.73917 0.14092,6.82886 c 0.35875,73.92592 -59.3201,133.60477 -133.246,133.24601 -73.29812,0.35876 -132.97696,-59.32009 -133.24602,-133.24601 0.26906,-73.29811 59.9479,-132.97696 133.24602,-133.24601 z"
         style="fill:none;stroke:#ffffff;stroke-width:7.07505178;stroke-miterlimit:10.43299961;stroke-dasharray:none"
         id="path13849" /><g
         id="g14023"
         style="font-style:normal;font-variant:normal;font-weight:normal;font-stretch:normal;letter-spacing:normal;word-spacing:normal;text-anchor:start;fill:none;stroke:none"
         transform="matrix(0.99999783,0,0,0.99999783,-4.0107067,4.0025133)"><path
           d="m 271.25,414.75 0.5,0.03 0.5,0.05 0.5,0.08 0.49,0.1 0.48,0.13 0.47,0.16 0.47,0.17 0.45,0.2 0.45,0.22 0.43,0.25 0.43,0.26 0.41,0.29 0.4,0.3 0.38,0.33 0.37,0.34 0.36,0.36 0.33,0.38 0.32,0.39 0.31,0.41 0.28,0.43 0.27,0.44 0.24,0.46 0.22,0.47 0.21,0.48 0.17,0.5 0.16,0.51 0.13,0.51 0.11,0.53 0.08,0.54 0.05,0.55 0.03,0.56 0,0.57 c 0.16,5.68 -4.6,10.45 -10,10 -6.37,0.45 -11.14,-4.32 -11,-10 -0.14,-6.09 4.63,-10.86 11,-11 z"
           style="fill:#000000;fill-rule:nonzero;stroke:none"
           id="path9988"
           inkscape:connector-curvature="0" /><path
           d="m 322.25,414.75 1.07,0.04 1.05,0.08 1.04,0.14 1.02,0.18 0.99,0.23 0.98,0.28 0.96,0.32 0.93,0.37 0.9,0.4 0.88,0.45 0.86,0.48 0.82,0.53 0.79,0.56 0.77,0.59 0.73,0.64 0.69,0.66 0.66,0.69 0.63,0.73 0.59,0.75 0.55,0.78 0.5,0.81 0.47,0.84 0.43,0.86 0.38,0.88 0.33,0.9 0.29,0.92 0.24,0.94 0.2,0.96 0.14,0.98 0.09,0.99 0.04,1 -0.02,1.02 c 0.46,11.23 -8.51,20.21 -20,20 -10.66,0.21 -19.64,-8.77 -20,-20 0.36,-10.91 9.34,-19.89 20,-20 z"
           style="fill:#000000;fill-rule:nonzero;stroke:none"
           id="path9990"
           inkscape:connector-curvature="0" /><path
           d="m 322.25,423.75 0.64,-0.03 0.62,0.01 0.62,0.03 0.6,0.07 0.59,0.1 0.58,0.12 0.57,0.16 0.55,0.18 0.54,0.2 0.52,0.24 0.5,0.26 0.49,0.28 0.47,0.3 0.45,0.33 0.43,0.35 0.42,0.37 0.39,0.39 0.37,0.41 0.35,0.43 0.33,0.44 0.31,0.46 0.28,0.48 0.26,0.49 0.23,0.5 0.21,0.52 0.18,0.53 0.15,0.54 0.13,0.55 0.1,0.56 0.07,0.57 0.04,0.58 0.01,0.58 c 0.05,6.59 -5.16,11.8 -12,12 -6.01,-0.2 -11.22,-5.41 -11,-12 -0.22,-6.27 4.99,-11.48 11,-11 z"
           style="fill:#ffffff;fill-rule:nonzero;stroke:none"
           id="path9992"
           inkscape:connector-curvature="0" /><path
           d="m 338.25,450.75 -0.81,0.71 -0.84,0.67 -0.87,0.63 -0.89,0.59 -0.92,0.55 -0.46,0.26 -0.48,0.25 -0.48,0.23 -0.48,0.23 -0.49,0.21 -0.5,0.2 -0.51,0.19 -0.51,0.18 -0.51,0.17 -0.53,0.15 -0.52,0.14 -0.54,0.12 -0.54,0.12 -0.54,0.1 -0.56,0.08 -0.55,0.08 -0.57,0.06 -0.57,0.04 -0.57,0.03 -0.58,0.02 -0.59,0 -0.59,-0.01 c -11.77,0.21 -21.64,-9.66 -22,-22 0.36,-1.36 0.51,-2.82 1,-4 l -19,0 c -1.65,4.33 -6.19,7.57 -11,8 -4.14,-0.43 -7.44,-1.98 -10,-4 l -3,0 0,18 c 0.23,2.46 2.3,4.44 5,4 l 30,0 7,23 0,4 33,0 0,-25 7,-6 -2,-2 z"
           style="fill:#000000;fill-rule:nonzero;stroke:none"
           id="path9994"
           inkscape:connector-curvature="0" /><path
           d="m 271.25,420.75 0.2,0.02 0.19,0.03 0.19,0.04 0.2,0.05 0.19,0.06 0.19,0.07 0.18,0.09 0.19,0.09 0.18,0.1 0.18,0.11 0.17,0.12 0.17,0.13 0.16,0.14 0.16,0.14 0.15,0.16 0.15,0.16 0.13,0.17 0.14,0.18 0.12,0.18 0.12,0.19 0.11,0.2 0.1,0.21 0.09,0.21 0.08,0.22 0.07,0.22 0.06,0.23 0.05,0.23 0.04,0.24 0.03,0.25 0.02,0.25 0,0.25 -0.01,0.26 c 0.17,2.36 -1.91,4.45 -4,4 -3.05,0.45 -5.14,-1.64 -5,-4 -0.14,-2.78 1.95,-4.86 5,-5 z"
           style="fill:#ffffff;fill-rule:nonzero;stroke:none"
           id="path9996"
           inkscape:connector-curvature="0" /><polygon
           points="297.25,456.75 304.25,456.75 304.25,456.75 309.25,461.75 329.25,461.75 329.25,479.75 303.25,479.75 "
           style="fill:#ffffff;fill-rule:nonzero;stroke:none"
           id="polygon9998" /><path
           d="m 322.25,426.75 0.45,0.03 0.44,0.04 0.43,0.07 0.43,0.08 0.41,0.1 0.4,0.12 0.4,0.13 0.38,0.16 0.37,0.16 0.36,0.19 0.35,0.2 0.34,0.21 0.32,0.22 0.31,0.24 0.29,0.26 0.28,0.26 0.26,0.28 0.25,0.29 0.23,0.3 0.22,0.31 0.19,0.32 0.18,0.33 0.16,0.34 0.15,0.34 0.12,0.36 0.1,0.36 0.09,0.37 0.06,0.37 0.04,0.38 0.02,0.39 0,0.39 -0.03,0.4 c 0.4,4.57 -3.18,8.14 -8,8 -4,0.14 -7.57,-3.43 -8,-8 0.43,-4.25 4,-7.82 8,-8 z"
           style="fill:#000000;fill-rule:nonzero;stroke:none"
           id="path10000"
           inkscape:connector-curvature="0" /><path
           d="m 298.25,377.75 0.02,-0.06 0.03,-0.05 0.02,-0.05 0.03,-0.05 0.04,-0.05 0.03,-0.05 0.04,-0.05 0.04,-0.05 0.04,-0.04 0.04,-0.05 0.05,-0.04 0.05,-0.04 0.05,-0.04 0.06,-0.04 0.06,-0.03 0.06,-0.04 0.06,-0.03 0.07,-0.03 0.06,-0.03 0.08,-0.03 0.07,-0.02 0.08,-0.02 0.08,-0.03 0.08,-0.01 0.08,-0.02 0.09,-0.01 0.09,-0.02 0.1,-0.01 0.09,0 0.1,-0.01 0.1,0 0.11,0 11,0 c 1.62,6.97 7.67,12.3 15,12 8.15,0.3 14.77,-6.31 15,-14 -0.23,-8.64 -6.85,-15.25 -15,-15 -7.49,-0.25 -13.66,5.29 -15,13 l -13,0 c -1.18,-0.5 -2.36,0.06 -3,1 l -12,20 -3,-7 c 3.89,-2.43 6.73,-7.14 7,-12 -0.27,-8.64 -6.89,-15.25 -15,-15 -8.21,-0.25 -14.83,6.36 -15,15 0.17,5.64 3.89,10.9 9,13 l -1,3 c 1.45,1.23 4.26,1.92 7,2 0.21,-0.08 0.41,-0.09 1,0 l 0,-4 c 0.7,0.22 1.64,0.06 3,0 l 8,19 c 1.13,1.8 2.58,2.49 5,2 l 6,0 0,-4 -5,0 c -1.64,0.03 -1.97,-0.44 -3,-2 l -2,-5 9,0 c -0.05,-0.05 0.75,-0.41 1,-1 l 4,-6 c 0.52,-1.15 0.52,-1.67 0,-2 l -4,-8 3,-4 z"
           style="fill:#000000;fill-rule:nonzero;stroke:none"
           id="path10002"
           inkscape:connector-curvature="0" /><path
           d="m 337.25,392.75 0,6 -26,0 c -1.65,-0.05 -2.09,-1.25 -1,-4 l 3,-5 c 0.25,-1.05 1.37,-1.19 3,0 1.87,1.27 6.18,2.95 9,3 l 12,0 z"
           style="fill:#000000;fill-rule:nonzero;stroke:none"
           id="path10004"
           inkscape:connector-curvature="0" /><path
           d="m 316.25,372.75 11,0 c 0.93,-0.5 1.98,0.52 2,2 -0.02,0.98 -1.07,1.98 -2,2 l -11,0 c 1.2,4.46 5.17,7.79 10,8 5.66,-0.21 10.25,-4.81 10,-10 0.25,-6.14 -4.34,-10.74 -10,-11 -4.97,0.26 -8.99,3.83 -10,9 z"
           style="fill:#ffffff;fill-rule:nonzero;stroke:none"
           id="path10006"
           inkscape:connector-curvature="0" /><path
           d="m 278.25,382.75 -4,-9 c -0.82,-1.41 -2.16,-1.96 -3,-1 -1.41,0.04 -1.89,1.41 -1,3 l 4,9 c -0.87,-0.25 -1.52,-0.21 -2,0 -5.71,-0.21 -10.31,-4.81 -10,-10 -0.31,-6.14 4.29,-10.74 10,-11 5.62,0.26 10.21,4.86 10,11 0.21,2.94 -1.59,5.9 -4,8 z"
           style="fill:#ffffff;fill-rule:nonzero;stroke:none"
           id="path10008"
           inkscape:connector-curvature="0" /><path
           d="m 321.25,353.75 0,-4 -4,0 -2,-5 4,-9 c 1.91,0.59 3.82,0.98 6,1 8.71,-0.02 15.92,-7.23 16,-16 -0.08,-9.02 -7.29,-16.23 -16,-16 -8.48,-0.23 -15.34,6.15 -16,14 l -8,0 -19,21 -2,-5 c 5.86,-2.15 9.45,-7.57 9,-14 0.45,-9.02 -6.76,-16.23 -16,-16 -8.54,-0.23 -15.75,6.98 -16,16 0.25,8.77 7.46,15.98 16,16 1.46,-0.02 3.09,-0.18 4,0 l 6,16 c 1.15,3.42 2.63,4.16 6,4 l 4,0 0,-3 -4,0 c -1.47,-0.19 -2.51,-1.08 -3,-3 l -2,-4 28,0 2,3 -5,0 c -0.96,0.46 -1.7,1.21 -2,2 0.3,1.05 1.04,1.8 2,2 l 12,0 z"
           style="fill:#000000;fill-rule:nonzero;stroke:none"
           id="path10010"
           inkscape:connector-curvature="0" /><path
           d="m 318.25,330.75 4,-8 -10,0 c 0.75,3.24 2.78,6.4 6,8 z"
           style="fill:#ffffff;fill-rule:nonzero;stroke:none"
           id="path10012"
           inkscape:connector-curvature="0" /><path
           d="m 321.25,332.75 0.2,0.06 0.2,0.05 0.22,0.06 0.21,0.06 0.23,0.06 0.23,0.05 0.24,0.06 0.24,0.06 0.26,0.06 0.26,0.06 0.26,0.07 0.28,0.06 0.28,0.07 0.29,0.07 0.3,0.07 0.3,0.08 c 6.83,-0.41 12.52,-6.1 13,-13 -0.48,-7.14 -6.17,-12.83 -13,-13 -6.6,0.17 -11.92,5.04 -13,11 l 13,0 c 1.25,0.21 2.14,1.46 2,3 l -6,11 z"
           style="fill:#ffffff;fill-rule:nonzero;stroke:none"
           id="path10014"
           inkscape:connector-curvature="0" /><path
           d="m 305.25,322.75 8,18 3,-7 c -3.99,-2.13 -6.72,-6.38 -7,-11 l -4,0 z"
           style="fill:#ffffff;fill-rule:nonzero;stroke:none"
           id="path10016"
           inkscape:connector-curvature="0" /><polygon
           points="311.25,343.75 311.25,343.75 301.25,323.75 283.25,343.75 "
           style="fill:#ffffff;fill-rule:nonzero;stroke:none"
           id="polygon10018" /><path
           d="m 286.25,320.75 -0.01,-0.67 -0.05,-0.65 -0.07,-0.65 -0.11,-0.63 -0.14,-0.63 -0.17,-0.61 -0.19,-0.6 -0.23,-0.58 -0.25,-0.57 -0.29,-0.56 -0.3,-0.53 -0.33,-0.53 -0.36,-0.5 -0.38,-0.49 -0.41,-0.47 -0.43,-0.44 -0.44,-0.43 -0.47,-0.41 -0.49,-0.38 -0.51,-0.37 -0.53,-0.33 -0.55,-0.32 -0.56,-0.29 -0.58,-0.26 -0.6,-0.24 -0.61,-0.21 -0.62,-0.18 -0.64,-0.16 -0.66,-0.12 -0.66,-0.09 -0.67,-0.07 -0.69,-0.03 c -6.67,0.17 -12.36,5.86 -12,13 -0.36,6.9 5.33,12.59 12,13 1.38,-0.41 1.98,-0.53 3,-1 l -4,-12 c -0.7,-0.82 0.31,-1.79 1,-2 1.16,0.21 1.72,0.78 2,1 l 4,12 c 4.02,-1.62 7.06,-6.06 7,-11 z"
           style="fill:#ffffff;fill-rule:nonzero;stroke:none"
           id="path10020"
           inkscape:connector-curvature="0" /></g></g>  </g>
</svg>
