<?xml version="1.0" standalone="no"?>
<svg id="Nederlands_verkeersbord_E4" width="600" height="600" xmlns="http://www.w3.org/2000/svg" version="1.1">
	<path id="vlak_blauw" fill="#0e518d" d="M0,30 a30,30 0 0,1 30,-30 h540 a30,30 0 0,1 30,30 v540 a30,30 0 0,1 -30,30 h-540 a30,30 0 0,1 -30,-30 z"/>
	<path id="symbool_wit" fill="#f7fbf5" d="m 301.46739,288.70027 c 67.80514,0 81.56296,-32.97803 81.56296,-59.1026 0,-27.99062 -10.95875,-61.10436 -81.56296,-61.10436 H 226.48647 V 288.70027 Z M 226.48647,516.42511 H 147.41722 V 91.018685 h 180.56492 c 85.83788,0 135.22011,58.763325 135.22011,136.271875 0,66.93998 -41.01897,135.67814 -134.79601,135.67814 H 226.48647 Z"/>
	<path id="bies_wit" style="fill:none;stroke-width:15;stroke:#f7fbf5" d="M21.5,44 a22.5,22.5 0 0,1 22.5,-22.5 h512 a22.5,22.5 0 0,1 22.5,22.5 v512 a22.5,22.5 0 0,1 -22.5,22.5 h-512 a22.5,22.5 0 0,1 -22.5,-22.5 z"/>
</svg>