<?xml version="1.0" encoding="UTF-8" standalone="no"?>
<svg
   xmlns:dc="http://purl.org/dc/elements/1.1/"
   xmlns:cc="http://creativecommons.org/ns#"
   xmlns:rdf="http://www.w3.org/1999/02/22-rdf-syntax-ns#"
   xmlns:svg="http://www.w3.org/2000/svg"
   xmlns="http://www.w3.org/2000/svg"
   xmlns:sodipodi="http://sodipodi.sourceforge.net/DTD/sodipodi-0.dtd"
   xmlns:inkscape="http://www.inkscape.org/namespaces/inkscape"
   id="Nederlands_verkeersbord_G8"
   width="300"
   height="300"
   viewBox="0 0 300 300"
   version="1.1"
   inkscape:version="0.48.4 r9939"
   sodipodi:docname="AJAX.svg">
  <metadata
     id="metadata19">
    <rdf:RDF>
      <cc:Work
         rdf:about="">
        <dc:format>image/svg+xml</dc:format>
        <dc:type
           rdf:resource="http://purl.org/dc/dcmitype/StillImage" />
        <dc:title></dc:title>
      </cc:Work>
    </rdf:RDF>
  </metadata>
  <defs
     id="defs17" />
  <sodipodi:namedview
     pagecolor="#ffffff"
     bordercolor="#666666"
     borderopacity="1"
     objecttolerance="10"
     gridtolerance="10"
     guidetolerance="10"
     inkscape:pageopacity="0"
     inkscape:pageshadow="2"
     inkscape:window-width="1920"
     inkscape:window-height="1057"
     id="namedview15"
     showgrid="false"
     fit-margin-top="0"
     fit-margin-left="0"
     fit-margin-right="0"
     fit-margin-bottom="0"
     inkscape:zoom="2.2250293"
     inkscape:cx="179.97216"
     inkscape:cy="132.59327"
     inkscape:window-x="-8"
     inkscape:window-y="-8"
     inkscape:window-maximized="1"
     inkscape:current-layer="Nederlands_verkeersbord_G8" />
  <circle
     id="blauwe_cirkel"
     cx="150"
     cy="150"
     r="150"
     style="fill:#0e518d;stroke:none"
     sodipodi:cx="150"
     sodipodi:cy="150"
     sodipodi:rx="150"
     sodipodi:ry="150" />
  <g
     id="symbool_voetpad" />
  <path
     style="fill:#f7fbf5;fill-opacity:1"
     inkscape:connector-curvature="0"
     id="tram_zwart"
     d="m 118.43952,43.999998 -32.177484,22.04692 26.527764,18.1668 -48.266224,0 0.89292,5.66598 -5.065276,19.351942 0,24.72568 15.341936,0 1.34748,-5.9582 51.821664,0 1.34748,5.9582 42.2918,0 1.3475,-5.9582 51.82164,0 1.3475,5.9582 15.34192,0 0,-24.72568 -5.06526,-19.351942 0.89292,-5.66598 -114.09856,0 26.52776,-18.1668 -32.17748,-22.04692 z m 0,5.065274 24.74192,16.949186 0,0.0486 -24.74192,16.96542 -24.741924,-16.96542 0,-0.0486 24.741924,-16.949186 z m -49.889704,40.814426 13.70222,0 0,19.351942 -18.7675,0 5.06528,-19.351942 z m 17.27388,0 23.232084,0 0,19.351942 -23.232084,0 0,-19.351942 z m 26.803744,0 23.23208,0 0,19.351942 -23.23208,0 0,-19.351942 z m 26.81998,0 23.83276,0 0,19.351942 -23.83276,0 0,-19.351942 z m 27.40442,0 23.23208,0 0,19.351942 -23.23208,0 0,-19.351942 z m 26.80376,0 23.23206,0 0,19.351942 -23.23206,0 0,-19.351942 z m 26.80374,0 13.7022,0 5.06528,19.351942 -18.76748,0 0,-19.351942 z m -138.694344,41.983322 0,2.02936 c 0,4.43296 3.60328,8.02002 8.03624,8.02002 3.56048,0 6.58162,-2.31932 7.63038,-5.53608 l 11.185824,0 c 1.04876,3.21676 4.0699,5.53608 7.63038,5.53608 4.43296,0 8.03624,-3.58706 8.03624,-8.02002 l -0.0324,-2.02936 -42.486604,0 z m 96.694764,0 -0.0324,2.02936 c 0,4.43296 3.60328,8.02002 8.03626,8.02002 3.56046,0 6.58162,-2.31932 7.63038,-5.53608 l 11.1858,0 c 1.04876,3.21676 4.0699,5.53608 7.63038,5.53608 4.43298,0 8.03626,-3.58706 8.03626,-8.02002 l 0,-2.02936 -42.48662,0 z" />
  <path
     style="fill:#f7fbf5;fill-opacity:1"
     inkscape:connector-curvature="0"
     id="bus_romp_zwart"
     d="m 95.386036,160.51754 c -16.13328,0.004 -27.31018,0.0266 -28.42724,0.0486 -1.34178,0.0318 -1.56998,3.1281 -1.867,3.75024 0.57862,1.32154 1.13822,2.65766 1.68842,3.99378 L 57.64,191.44484 c 0,0 2.68758,5.51154 3.912596,7.15958 1.64804,2.20326 1.4101,15.64446 0.92538,21.4787 -0.1318,1.63924 -2.142996,2.66252 -2.142996,2.66252 l 0,4.48082 145.36688,0.0974 c 0,0 29.29284,-1.37814 33.75226,-3.76648 4.4594,-2.37952 0,-5.1302 0,-5.1302 l 0,-25.06662 -3.79896,-25.37508 c 0,0 2.7692,-1.86658 2.85732,-4.54576 0.0706,-2.28258 -1.70466,-2.87356 -1.70466,-2.87356 0,0 -93.02196,-0.0612 -141.421784,-0.0486 z m -0.89292,7.46802 24.936724,0 0,25.37508 -24.936724,0 z m 30.667624,0 26.72258,0 0,25.37508 -26.72258,0 z m 31.9989,0 28.15124,0 0,25.37508 -28.15124,0 z m 33.10286,0 22.71256,0 0,25.37508 -22.71256,0 z m 28.67076,0 10.00066,0 3.8152,25.37508 -13.81586,0 z m -146.779304,2.72746 15.71534,0 0,26.21928 0,0.016 -24.1737,0 -0.68186,-5.5036 z" />
  <path
     inkscape:connector-curvature="0"
     id="bus_wielen_zwart"
     style="fill:#f7fbf5;stroke:#0e518d;stroke-width:1.88584054000000000;stroke-opacity:1;fill-opacity:1"
     d="m 100.69252,243.05708 c 7.87888,0 14.27716,-6.5393 14.27716,-14.61206 0,-8.07276 -6.39828,-14.61206 -14.27716,-14.61206 -7.887704,0 -14.277164,6.5393 -14.277164,14.61206 0,8.07276 6.38946,14.61206 14.277164,14.61206 z m 91.23986,0 c 7.8877,0 14.27716,-6.5393 14.27716,-14.61206 0,-8.07276 -6.38946,-14.61206 -14.27716,-14.61206 -7.88768,0 -14.27716,6.5393 -14.27716,14.61206 0,8.07276 6.38948,14.61206 14.27716,14.61206" />
  <path
     style="fill:#c1121c;stroke:none"
     inkscape:connector-curvature="0"
     d="M 59.73225,259.40213 260.03821,59.107361 239.45104,38.51791 39.37243,238.58525 59.73225,259.40213"
     id="path3776" />
  <circle
     style="fill:none;stroke:#f7fbf5;stroke-width:6.73600006"
     sodipodi:ry="141.942"
     sodipodi:rx="141.942"
     sodipodi:cy="150"
     sodipodi:cx="150"
     r="141.942"
     cy="150"
     cx="150"
     id="circle3778" />
</svg>
