<?xml version="1.0" encoding="UTF-8" standalone="no"?>
<svg
   xmlns:dc="http://purl.org/dc/elements/1.1/"
   xmlns:cc="http://creativecommons.org/ns#"
   xmlns:rdf="http://www.w3.org/1999/02/22-rdf-syntax-ns#"
   xmlns:svg="http://www.w3.org/2000/svg"
   xmlns="http://www.w3.org/2000/svg"
   xmlns:sodipodi="http://sodipodi.sourceforge.net/DTD/sodipodi-0.dtd"
   xmlns:inkscape="http://www.inkscape.org/namespaces/inkscape"
   id="Nederlands_verkeersbord_G8"
   width="300"
   height="300"
   viewBox="0 0 300 300"
   version="1.1"
   inkscape:version="0.48.4 r9939"
   sodipodi:docname="22.svg">
  <metadata
     id="metadata19">
    <rdf:RDF>
      <cc:Work
         rdf:about="">
        <dc:format>image/svg+xml</dc:format>
        <dc:type
           rdf:resource="http://purl.org/dc/dcmitype/StillImage" />
        <dc:title></dc:title>
      </cc:Work>
    </rdf:RDF>
  </metadata>
  <defs
     id="defs17" />
  <sodipodi:namedview
     pagecolor="#ffffff"
     bordercolor="#666666"
     borderopacity="1"
     objecttolerance="10"
     gridtolerance="10"
     guidetolerance="10"
     inkscape:pageopacity="0"
     inkscape:pageshadow="2"
     inkscape:window-width="1920"
     inkscape:window-height="1057"
     id="namedview15"
     showgrid="false"
     fit-margin-top="0"
     fit-margin-left="0"
     fit-margin-right="0"
     fit-margin-bottom="0"
     inkscape:zoom="2.2250293"
     inkscape:cx="228.76893"
     inkscape:cy="195.70845"
     inkscape:window-x="-8"
     inkscape:window-y="-8"
     inkscape:window-maximized="1"
     inkscape:current-layer="Nederlands_verkeersbord_G8" />
  <circle
     id="blauwe_cirkel"
     cx="150"
     cy="150"
     r="150"
     style="fill:#0e518d;stroke:none"
     sodipodi:cx="150"
     sodipodi:cy="150"
     sodipodi:rx="150"
     sodipodi:ry="150" />
  <g
     id="symbool_voetpad" />
  <path
     style="fill:#f7fbf5;fill-opacity:1"
     inkscape:connector-curvature="0"
     id="symbool_vrachtauto_zwart"
     d="m 104.90684,60 -0.30882,44.65826 c 0,0 -1.28727,0.83736 -1.51332,-0.83387 -0.81534,-5.9583 -2.40636,-22.42424 -3.706058,-32.798798 l -26.591009,0 -11.921178,27.517638 2.717786,20.6614 -3.428104,0 0,6.67093 17.233186,0 c 0.217963,-17.00295 27.202697,-16.61325 27.517517,-0.40148 l 57.84548,-0.30884 c 2.05047,-15.36404 21.34589,-12.81686 30.26619,-12.81686 8.73463,0 25.26568,-2.80067 26.62188,13.06393 l 20.19805,0 0,-65.41231 -134.9316,0 z m -27.857233,17.140624 16.862586,0 0.308844,0.926522 0.864738,18.345084 -25.664489,0 7.628321,-19.271606 z M 91.16353,114.6029 c -6.940575,0 -12.569737,5.62919 -12.569737,12.56981 0,6.94059 5.629162,12.56977 12.569737,12.56977 6.940575,0 12.56973,-5.62918 12.56973,-12.56977 0,-6.94062 -5.629155,-12.56981 -12.56973,-12.56981 z m 85.88802,0 c -6.94057,0 -12.56974,5.62919 -12.56974,12.56981 0,6.94059 5.62917,12.56977 12.56974,12.56977 6.94056,0 12.56974,-5.62918 12.56974,-12.56977 0,-6.94062 -5.62918,-12.56981 -12.56974,-12.56981 z m 28.87641,0 c -6.94056,0 -12.56973,5.62919 -12.56973,12.56981 0,6.94059 5.62917,12.56977 12.56973,12.56977 6.94058,0 12.56973,-5.62918 12.56973,-12.56977 0,-6.94062 -5.62915,-12.56981 -12.56973,-12.56981" />
  <path
     style="fill:#f7fbf5;fill-opacity:1"
     inkscape:connector-curvature="0"
     id="symbool_bus_zwart"
     d="m 94.768012,157.04538 c -16.456046,0.004 -27.871628,0.008 -29.009797,0.0323 -1.369727,0.0263 -1.60623,3.18176 -1.908109,3.81624 0.632599,1.37093 1.746407,4.07496 1.746407,4.07496 L 56.25,188.5778 c 0,0 2.751952,5.62257 4.010261,7.30906 1.677764,2.24577 1.427238,15.95275 0.93789,21.89483 -0.14855,1.67776 -2.199181,2.71666 -2.199181,2.71666 l 0,4.59241 25.484625,0.0323 c 0.562617,-8.15763 7.320141,-14.61813 15.620655,-14.61813 8.30051,0 15.09039,6.4605 15.653,14.61813 l 61.86814,0.0323 c 0.54709,-8.17272 7.30934,-14.65047 15.62066,-14.65047 8.28971,0 15.07492,6.44321 15.65299,14.58579 4.23684,-0.21391 28.65546,-1.51818 32.82601,-3.75156 4.54393,-2.42926 0,-5.23923 0,-5.23923 l 0,-25.58173 -3.8809,-25.87278 c 0,0 2.8233,-1.922 2.91066,-4.6571 0.0787,-2.3244 -1.7464,-2.9107 -1.7464,-2.9107 0,0 -94.87228,-0.0458 -144.240398,-0.0323 z m -30.917906,3.84857 c -0.337647,-0.73174 -0.580777,-1.20195 -0.355745,-0.42043 0.161662,0.56144 0.255123,0.63192 0.355745,0.42043 z m 30.012362,3.75156 25.452282,0 0,25.87279 -25.452282,0 0,-25.87279 z m 31.273652,0 27.23104,0 0,25.87279 -27.23104,0 0,-25.87279 z m 32.63196,0 28.71871,0 0,25.87279 -28.71871,0 0,-25.87279 z m 33.79624,0 23.15609,0 0,25.87279 -23.15609,0 0,-25.87279 z m 29.20383,0 10.21972,0 3.88091,25.87279 -14.10063,0 0,-25.87279 z m -149.706027,2.78132 16.041102,0 0,26.74601 -24.643782,0 -0.71149,-5.595 9.31417,-21.15101 z m 29.042127,44.98632 c -7.620663,0 -13.777212,6.18892 -13.777212,13.8096 0,7.62068 6.156549,13.77725 13.777212,13.77725 7.62066,0 13.80958,-6.15657 13.80958,-13.77725 0,-7.62068 -6.18892,-13.8096 -13.80958,-13.8096 z m 93.1418,0 c -7.62066,0 -13.77723,6.18892 -13.77723,13.8096 0,7.62068 6.15657,13.77725 13.77723,13.77725 7.62067,0 13.80956,-6.15657 13.80956,-13.77725 0,-7.62068 -6.18889,-13.8096 -13.80956,-13.8096" />
  <path
     id="path3798"
     d="M 59.73225,259.40213 260.03821,59.107361 239.45104,38.51791 39.37243,238.58525 59.73225,259.40213"
     inkscape:connector-curvature="0"
     style="fill:#c1121c;stroke:none" />
  <circle
     id="circle3800"
     cx="150"
     cy="150"
     r="141.942"
     sodipodi:cx="150"
     sodipodi:cy="150"
     sodipodi:rx="141.942"
     sodipodi:ry="141.942"
     style="fill:none;stroke:#f7fbf5;stroke-width:6.73600006" />
</svg>
