<?xml version="1.0" standalone="no"?>
<svg id="Nederlands_verkeersbord_F6" width="600" height="600" xmlns="http://www.w3.org/2000/svg" version="1.1">
	<path id="vlak_blauw" fill="#0e518d" d="M0,30 a30,30 0 0,1 30,-30 h540 a30,30 0 0,1 30,30 v540 a30,30 0 0,1 -30,30 h-540 a30,30 0 0,1 -30,-30 z"/>
	<path id="pijl_links_rood" fill="#c1121c" d="M 152.89647,90.387122 V 365.35283 L 90.51649,350.84117 c -15.099516,-5.96254 -26.991015,1.84755 -18.458696,16.4264 l 95.165576,136.70184 c 8.6163,12.22742 15.87213,12.22742 24.48843,0 l 95.16558,-136.70184 c 8.53232,-14.57885 -3.35918,-22.38894 -18.4587,-16.4264 L 206.0387,365.35283 V 90.387122 Z"/>
	<path id="pijl_rechts_wit" fill="#f7fbf5" d="M 447.99711,510.53157 V 235.56586 l 62.37998,14.51166 c 15.09952,5.96254 26.99101,-1.84755 18.4587,-16.42639 L 433.65341,96.949279 c -8.5995,-12.227417 -15.87213,-12.227417 -24.47163,0 L 314.0162,233.65113 c -8.53232,14.57884 3.35918,22.38893 18.4587,16.42639 l 62.37998,-14.51166 v 274.96571 z"/>
	<path id="bies_wit" style="fill:none;stroke-width:15;stroke:#f7fbf5" d="M21.5,44 a22.5,22.5 0 0,1 22.5,-22.5 h512 a22.5,22.5 0 0,1 22.5,22.5 v512 a22.5,22.5 0 0,1 -22.5,22.5 h-512 a22.5,22.5 0 0,1 -22.5,-22.5 z"/>
</svg>