<?xml version="1.0" standalone="no"?>
<svg id="Nederlands_verkeersbord_F9" width="375" height="300" viewBox="0 0 375 300"
xmlns="http://www.w3.org/2000/svg" version="1.1">

<rect id="zwart_vlak" width="375" height="300" fill="#2a2d2f" />
	 
<path style="fill:none;stroke:#f7fbf5;stroke-width:1.02200615"
     d="M 350.02048,295.26796 C 361.10339,295.26796 370.08423,286.20429 370.08423,275.03204 L 370.08423,24.959819 C 370.08423,13.787562 361.10339,4.723895 350.02048,4.723895 L 24.985222,4.723895 C 13.898219,4.723895 4.888751,13.787562 4.888751,24.959819 L 4.888751,275.03204 C 4.888751,286.20429 13.898219,295.26796 24.985222,295.26796 L 350.02048,295.26796 z" />

<path
     d="M 234.45146,271.96722 C 275.92283,271.96722 309.56581,238.35238 309.56581,196.90797 L 309.56581,103.08389 C 309.56581,61.614957 275.92283,28.024637 234.45146,28.024637 L 140.54934,28.024637 C 99.046067,28.024637 65.434167,61.614957 65.434167,103.08389 L 65.434167,196.90797 C 65.434167,238.35238 99.046067,271.96722 140.54934,271.96722 L 234.45146,271.96722 z"
style="fill:none;stroke:#f7fbf5;stroke-width:5;stroke-linecap:round;stroke-dasharray:5,10;stroke-miterlimit:4;stroke-dashoffset:0" />

<path
     d="M 226.59118,251.60053 C 261.1617,251.60053 289.18225,223.60042 289.18225,189.05387 L 289.18225,110.90529 C 289.18225,76.358737 261.1617,48.391327 226.59118,48.391327 L 148.37689,48.391327 C 113.8391,48.391327 85.818547,76.358737 85.818547,110.90529 L 85.818547,189.05387 C 85.818547,223.60042 113.8391,251.60053 148.37689,251.60053 L 226.59118,251.60053 z"
style="fill:none;stroke:#f7fbf5;stroke-width:5;stroke-linecap:round;stroke-dasharray:5,10;stroke-miterlimit:4;stroke-dashoffset:0" />

<path
     d="M 255.98585,55.926657 L 101.634,230.68626 M 273.87801,69.591627 L 119.49425,244.35122"
style="fill:none;stroke:#f7fbf5;stroke-width:5;stroke-linecap:round;stroke-dasharray:5,10;stroke-miterlimit:4;stroke-dashoffset:0" />

</svg>