<?xml version="1.0" standalone="no"?>
<svg id="Nederlands_verkeersbord_G3" width="600" height="600" xmlns="http://www.w3.org/2000/svg" version="1.1">
	<path id="vlak_blauw" fill="#0e518d" d="M0,30 a30,30 0 0,1 30,-30 h540 a30,30 0 0,1 30,30 v540 a30,30 0 0,1 -30,30 h-540 a30,30 0 0,1 -30,-30 z"/>
	<path id="symbool_wit" fill="#f7fbf5" d="m 297.16039,149.00391 c -13.08711,0.019 -69.8324,1.85991 -140.17578,11.18164 l -35.96289,91.0625 -24.88672,18.64453 v 90.60351 l 24.88672,28.4336 h 3.54492 v 56.8457 c 0,11.11143 7.99023,10.66992 7.99023,10.66992 h 36.86328 c 0,0 8.00586,0.44151 8.00586,-10.66992 v -56.8457 h 122.14258 0.88086 122.14062 v 56.8457 c 0,11.11143 7.99024,10.66992 7.99024,10.66992 h 36.86328 c 0,0 8.00781,0.44151 8.00781,-10.66992 v -56.8457 h 3.54493 l 24.86914,-28.4336 v -90.60351 l -24.86914,-18.64453 -35.98047,-91.0625 c -80.39243,-10.6534 -143.00782,-11.53481 -143.00782,-11.09375 0,-0.0551 -0.97807,-0.0906 -2.84765,-0.0879 z m 0.57031,21.76953 c 1.50499,-0.003 2.27539,0.0308 2.27539,0.0859 0,-0.44107 49.29702,0.4423 129.68945,11.0957 l 27.49805,69.58594 -0.40625,0.15234 c -51.51969,-4.00351 -156.78125,-7.10708 -156.78125,-6.66602 0,-0.44106 -105.26156,2.66251 -156.78125,6.66602 l -0.4082,-0.15234 27.49804,-69.58594 c 70.34338,-9.32173 116.88107,-11.16263 127.41602,-11.18164 z M 124.34398,279.88672 h 56.62695 c 7.32845,0 9.92368,5.13976 10.89063,7.32812 1.54373,3.56244 8.87305,35.53907 8.87305,35.53907 0,7.10792 -7.99024,7.54882 -7.99024,7.54882 h -68.40039 c -7.32845,0 -7.76953,-7.54882 -7.76953,-7.54882 v -35.30274 c 0,0 0.44108,-7.56445 7.76953,-7.56445 z m 294.69531,0 h 56.625 c 7.32845,0 7.76954,7.56445 7.76954,7.56445 v 35.30274 c 0,0 -0.44109,7.54882 -7.76954,7.54882 h -68.39843 c 0,0 -7.99024,-0.4409 -7.99024,-7.54882 0,0 7.32798,-31.97663 8.88867,-35.53907 0.94999,-2.18836 3.54655,-7.32812 10.875,-7.32812 z"/>
	<path id="bies_wit" style="fill:none;stroke-width:15;stroke:#f7fbf5" d="M21.5,44 a22.5,22.5 0 0,1 22.5,-22.5 h512 a22.5,22.5 0 0,1 22.5,22.5 v512 a22.5,22.5 0 0,1 -22.5,22.5 h-512 a22.5,22.5 0 0,1 -22.5,-22.5 z"/>
</svg>