<?xml version="1.0" standalone="no"?>
<svg id="Nederlands_verkeersbord_H1" width="341" height="100" viewBox="0 0 341 100"
xmlns="http://www.w3.org/2000/svg" version="1.1">

<rect id="blauw_vlak" width="341" height="100" fill="#0e518d" />

<path id="letter_H" fill="#f7fbf5"
     d="M 28.52421,71.63984 L 28.52421,28.14 L 35.22838,28.14 L 35.22838,45.43456 L 55.3881,45.43456 L 55.3881,28.14 L 62.09228,28.14 L 62.09228,71.63984 L 55.3881,71.63984 L 55.3881,52.04093 L 35.22838,52.04093 L 35.22838,71.63984 L 28.52421,71.63984" />
 
<path id="letter_e" fill="#f7fbf5"
     d="M 102.35664,66.44912 C 100.11406,70.57024 95.8728,72.62293 90.55352,72.62293 C 80.89858,72.62293 77.09011,65.1593 77.09011,55.45422 C 77.09011,45.83566 81.51234,37.75857 91.00992,37.75857 C 99.98815,37.97092 104.22941,44.1762 104.22941,53.29928 L 104.22941,56.37439 L 83.91231,56.37439 C 83.26707,60.55056 84.68344,66.14239 90.4591,66.14239 C 96.11674,66.14239 97.4072,63.04368 97.43868,62.79202 L 102.35664,66.44912 z M 97.43868,51.60837 C 97.55671,46.69291 95.53445,42.88637 90.64795,42.88637 C 86.4303,42.88637 83.91231,46.81875 83.91231,51.60837 L 97.43868,51.60837" />

<path id="letter_l" fill="#f7fbf5"
     d="M 118.70791,71.63984 L 118.70791,29.76801 L 126.11239,26.07945 L 126.11239,71.63984 L 118.70791,71.63984" />
	 
<path id="letter_m" fill="#f7fbf5"
     d="M 150.27731,42.792 L 149.78157,42.792 C 151.81172,38.58437 155.77756,37.53837 159.18473,37.38893 C 163.74074,37.17658 168.4069,40.12587 168.80821,43.07514 C 168.35182,39.75621 175.88221,37.38893 179.81658,37.38893 C 183.93194,37.38893 191.12398,40.03149 191.12398,47.89622 L 191.12398,71.63984 L 183.34965,71.63984 L 183.34965,51.7342 C 182.91687,48.54112 184.08931,43.93239 176.8658,43.93239 C 174.89862,43.93239 172.25471,44.9784 171.85341,47.09401 C 171.27113,50.2635 171.1767,53.55095 171.1767,54.34529 L 171.1767,71.63984 L 163.79581,71.63984 L 163.79581,51.7342 C 163.79581,45.89857 160.82142,44.11327 157.37491,44.11327 C 154.24315,44.11327 151.90614,45.74128 150.67075,48.60404 C 149.93895,50.35001 150.39534,53.55095 150.39534,54.34529 L 150.39534,71.63984 L 143.42362,71.63984 L 143.42362,38.40348 L 150.27731,38.40348 L 150.27731,42.792" />
  
<path id="letter_o" fill="#f7fbf5"
     d="M 233.44995,54.80931 C 233.44995,65.28514 230.00344,72.65439 218.93999,72.65439 C 207.84505,72.65439 204.00511,65.28514 204.00511,54.80931 C 204.00511,44.36495 207.84505,36.95638 218.93999,36.95638 C 230.00344,36.95638 233.44995,44.36495 233.44995,54.80931 z M 218.93999,68.0142 C 224.25926,68.0142 226.74577,61.99768 226.74577,54.80931 C 226.74577,47.65241 224.47171,41.59656 218.93999,41.59656 C 212.36171,41.59656 210.70141,47.65241 210.70141,54.80931 C 210.70141,61.99768 213.19581,68.0142 218.93999,68.0142" />

<path id="letter_n" fill="#f7fbf5"
     d="M 253.3028,42.9493 L 252.62609,42.9493 C 254.78214,38.71021 258.03978,37.56983 261.39188,37.56983 C 263.76037,37.56983 273.93466,37.38893 273.93466,48.38383 L 273.93466,71.63984 L 266.73476,71.63984 L 266.73476,51.67128 C 266.73476,46.94458 265.4128,43.93239 260.86467,43.93239 C 260.86467,43.93239 257.48897,43.19311 254.8136,45.89857 C 253.86148,46.81875 253.46017,47.99059 253.46017,54.55764 L 253.46017,71.63984 L 246.26814,71.63984 L 246.26814,37.97092 L 253.3028,37.97092 L 253.3028,42.9493" />

<path id="letter_d" fill="#f7fbf5"
     d="M 315.97737,65.37165 C 316.04031,67.43221 316.19769,69.46131 315.97737,71.63984 L 308.60435,71.63984 L 308.63583,69.12312 L 308.60435,69.12312 C 307.49486,70.47586 305.22078,72.50497 300.49167,72.53641 C 289.97903,72.62293 287.48463,63.68859 287.48463,54.40821 C 287.48463,45.62331 292.89832,37.4204 300.64117,37.29455 C 303.8044,37.23164 305.83454,37.63274 308.38402,41.16401 L 308.63583,41.16401 L 308.63583,29.39836 L 315.97737,25.59183 L 315.97737,65.37165 z M 308.63583,47.62095 C 307.62076,46.02441 304.54408,43.7751 300.64117,44.38855 C 298.30416,44.78965 294.46421,48.10856 294.46421,54.53404 C 294.46421,60.92021 296.49435,65.80421 300.57823,65.80421 C 304.60703,65.80421 307.65223,64.72674 308.63583,62.76056 L 308.63583,47.62095" />	 

<path id="witte_bies" style="fill:none;stroke:#f7fbf5;stroke-width:5.93152094"
     d="M 317.70062,92.22971 C 326.27755,92.22971 333.22566,85.28514 333.22566,76.71259 L 333.22566,23.28747 C 333.22566,14.71492 326.27755,7.77035 317.70062,7.77035 L 23.29936,7.77035 C 14.69094,7.77035 7.74284,14.71492 7.74284,23.28747 L 7.74284,76.71259 C 7.74284,85.28514 14.69094,92.22971 23.29936,92.22971 L 317.70062,92.22971 z " />

</svg>