<?xml version="1.0" encoding="UTF-8" standalone="no"?>
<!-- Created with Inkscape (http://www.inkscape.org/) -->

<svg
   width="106"
   height="34.000401"
   id="svg2"
   version="1.1"
   inkscape:version="1.3.2 (091e20e, 2023-11-25, custom)"
   sodipodi:docname="H2.svg"
   xmlns:inkscape="http://www.inkscape.org/namespaces/inkscape"
   xmlns:sodipodi="http://sodipodi.sourceforge.net/DTD/sodipodi-0.dtd"
   xmlns="http://www.w3.org/2000/svg"
   xmlns:svg="http://www.w3.org/2000/svg"
   xmlns:rdf="http://www.w3.org/1999/02/22-rdf-syntax-ns#"
   xmlns:cc="http://creativecommons.org/ns#"
   xmlns:dc="http://purl.org/dc/elements/1.1/">
  <defs
     id="defs4" />
  <sodipodi:namedview
     id="base"
     pagecolor="#ffffff"
     bordercolor="#666666"
     borderopacity="1.0"
     inkscape:pageopacity="0.0"
     inkscape:pageshadow="2"
     inkscape:zoom="13.811321"
     inkscape:cx="52.999999"
     inkscape:cy="17.051229"
     inkscape:document-units="px"
     inkscape:current-layer="g9191"
     showgrid="false"
     showborder="false"
     inkscape:showpageshadow="false"
     fit-margin-top="0"
     fit-margin-left="0"
     fit-margin-right="0"
     fit-margin-bottom="0"
     inkscape:window-width="1920"
     inkscape:window-height="1001"
     inkscape:window-x="-9"
     inkscape:window-y="-9"
     inkscape:window-maximized="1"
     showguides="true"
     inkscape:guide-bbox="true"
     inkscape:pagecheckerboard="0"
     inkscape:deskcolor="#d1d1d1" />
  <metadata
     id="metadata7">
    <rdf:RDF>
      <cc:Work
         rdf:about="">
        <dc:format>image/svg+xml</dc:format>
        <dc:type
           rdf:resource="http://purl.org/dc/dcmitype/StillImage" />
        <dc:title />
      </cc:Work>
    </rdf:RDF>
  </metadata>
  <g
     inkscape:label="Laag 1"
     inkscape:groupmode="layer"
     id="layer1"
     transform="translate(-347.6842,-354.86655)">
    <g
       id="g9191"
       transform="translate(-2339.2413,-912.25305)">
      <path
         inkscape:connector-curvature="0"
         id="path9193"
         style="font-style:normal;font-variant:normal;font-weight:normal;font-stretch:normal;letter-spacing:normal;word-spacing:normal;text-anchor:start;fill:#004d9f;fill-opacity:1;fill-rule:nonzero;stroke:none"
         d="m 2790.8122,1267.1196 0.1073,0 0.1056,0.01 0.102,0.012 0.1021,0.014 0.1003,0.021 0.099,0.025 0.095,0.03 0.093,0.035 0.091,0.039 0.088,0.042 0.086,0.046 0.084,0.051 0.081,0.055 0.077,0.058 0.076,0.062 0.072,0.065 0.069,0.067 0.065,0.071 0.062,0.074 0.06,0.078 0.055,0.079 0.051,0.081 0.049,0.085 0.042,0.086 0.041,0.09 0.035,0.09 0.032,0.093 0.028,0.093 0.023,0.095 0.018,0.099 0.014,0.097 0.01,0.1004 0,29.943 c -0.07,1.1557 -0.9642,2.0488 -2.1114,2.114 l -101.7771,0 c -1.1402,-0.065 -2.0341,-0.9583 -2.1115,-2.114 l 0,-29.943 c 0.077,-1.0676 0.9713,-1.9625 2.1115,-1.9379 z"
         sodipodi:nodetypes="cccccccccccccccccccccccccccccccccccccccc" />
      <rect
         ry="2.5"
         rx="2.5"
         y="1268.8698"
         x="2688.6753"
         height="30.5"
         width="102.49999"
         id="rect9195"
         style="fill:none;stroke:#ffffff;stroke-width:1.5;stroke-miterlimit:4;stroke-opacity:1;stroke-dasharray:none" />
      <path
         inkscape:connector-curvature="0"
         d="m 2788.7894,1269.4795 c 2.1553,0 1.8834,2.1349 1.8834,3.2405 -19.5049,5.2263 -80.0297,20.6474 -100.2729,26.0716 -0.9265,0 -1.2392,-0.6866 -1.2716,-1.4783 -0.01,-0.1941 -0.011,-1.6051 -0.011,-1.7991 19.4915,-5.2227 78.982,-21.027 99.6724,-26.0347 z"
         style="font-style:normal;font-variant:normal;font-weight:normal;font-stretch:normal;letter-spacing:normal;word-spacing:normal;text-anchor:start;fill:#e3001b;fill-opacity:1;fill-rule:nonzero;stroke:#ffffff;stroke-width:1;stroke-linecap:butt;stroke-linejoin:miter;stroke-miterlimit:10.43299961;stroke-opacity:1;stroke-dasharray:none;stroke-dashoffset:0"
         id="path5773-8-4-3"
         sodipodi:nodetypes="cccscc" />
    </g>
  </g>
</svg>
