<svg id="Nederlands_verkeersbord_J37" width="350" height="387" viewBox="0 0 350 387"
xmlns="http://www.w3.org/2000/svg" version="1.1">

<path id="rode_driehoek" fill="#c1121c"    
     d="M 339,300 C 339,300 322.1851,300 339,300 C 353.90353,300 346.22341,283.83031 346.22341,283.83031 L 185.09642,8.094485 C 185.09642,8.094485 188.57351,14.216156 185.09642,8.094485 C 178.82808,-2.86259 170.64998,-2.369378 164.87962,7.601273 L 3.7937358,283.83031 C 3.7937358,283.83031 -3.9265023,300 11,300 C 27.83202,300 11,300 11,300 L 339,300" />

<path id="witte_driehoek" fill="#f7fbf5"    
     d="M 174.50959,73.711342 L 66.775618,259.57577 L 283.69646,259.57577 L 174.50959,73.711342" />

<path id="zwart_symbool" style="fill:#2a2d2f;stroke:#2a2d2f;stroke-width:1.22561038"
       d="M 175.00662,215.79575 C 181.31213,215.79575 186.472,210.54446 186.472,204.12301 L 186.472,130.86618 C 186.472,124.44472 181.31213,119.19344 175.00662,119.19344 C 168.66293,119.19344 163.54122,124.44472 163.54122,130.86618 L 163.54122,204.12301 C 163.54122,210.54446 168.66293,215.79575 175.00662,215.79575 z M 175.00662,247.86435 C 181.35028,247.86435 186.54832,242.7678 186.54832,236.4914 C 186.54832,230.18601 181.35028,225.08944 175.00662,225.08944 C 168.62478,225.08944 163.46491,230.18601 163.46491,236.4914 C 163.46491,242.7678 168.62478,247.86435 175.00662,247.86435" />
  
<path id="onderbord" style="fill:#f7fbf5;stroke:#2a2d2f;stroke-width:1.2"
     d="M 342.85395,385.8 C 346.15077,385.8 348.8,381.89391 348.8,377.07447 L 348.8,312.92554 C 348.8,308.10611 346.15077,304.2 342.85395,304.2 L 7.1401624,304.2 C 3.8825969,304.2 1.2,308.10611 1.2,312.92554 L 1.2,377.07447 C 1.2,381.89391 3.8825969,385.8 7.1401624,385.8 L 342.85395,385.8" />  
  
</svg>