<?xml version="1.0" encoding="UTF-8" standalone="no"?>
<svg
   id="Nederlands_verkeersbord_J6"
   width="350"
   height="300"
   viewBox="0 0 350 300"
   version="1.1"
   sodipodi:docname="J6.svg"
   inkscape:version="1.3.2 (091e20e, 2023-11-25, custom)"
   xmlns:inkscape="http://www.inkscape.org/namespaces/inkscape"
   xmlns:sodipodi="http://sodipodi.sourceforge.net/DTD/sodipodi-0.dtd"
   xmlns="http://www.w3.org/2000/svg"
   xmlns:svg="http://www.w3.org/2000/svg">
  <defs
     id="defs8" />
  <sodipodi:namedview
     id="namedview8"
     pagecolor="#ffffff"
     bordercolor="#000000"
     borderopacity="0.25"
     inkscape:showpageshadow="2"
     inkscape:pageopacity="0.0"
     inkscape:pagecheckerboard="0"
     inkscape:deskcolor="#d1d1d1"
     inkscape:zoom="2.6233333"
     inkscape:cx="174.96823"
     inkscape:cy="150"
     inkscape:window-width="1920"
     inkscape:window-height="1001"
     inkscape:window-x="-9"
     inkscape:window-y="-9"
     inkscape:window-maximized="1"
     inkscape:current-layer="Nederlands_verkeersbord_J6" />
  <path
     id="rode_driehoek"
     fill="#c1121c"
     d="M 11,300 C 11,300 27.820331,300 11,300 C -3.9165388,300 3.7804912,283.85305 3.7804912,283.85305 L 164.90679,8.074496 C 164.90679,8.074496 161.40064,14.190767 164.90679,8.074496 C 171.16011,-2.85324 179.31089,-2.372093 185.11873,7.601505 L 346.21203,283.85305 C 346.21203,283.85305 353.91732,300 339,300 C 322.17219,300 339,300 339,300 L 11,300" />
  <path
     id="witte_driehoek"
     fill="#f7fbf5"
     d="M 175.483,73.698 L 283.20852,259.57553 L 66.297261,259.57553 L 175.483,73.698" />
  <path
     id="zwart_symbool"
     fill="#2a2d2f"
     d="M 226.75519,171.01397 L 277.75994,256.60374 L 72.384424,256.60374 L 226.75519,171.01397" />
  <g
     id="tekst_10_procent">
    <path
       fill="#f7fbf5"
       d="M 157.84451,165.7154 C 162.01269,163.74875 168.21153,167.14569 171.77956,173.30568 C 175.31471,179.49005 174.79677,186.09701 170.65325,188.07179 C 166.50974,190.03843 160.27801,186.6415 156.75108,180.4815 C 153.21594,174.289 153.70099,167.68205 157.84451,165.7154"
       id="path3" />
    <path
       fill="#2a2d2f"
       d="M 198.91797,132.25802 L 203.53832,130.51079 L 201.45012,179.27063 L 196.98597,181.68425 L 198.91797,132.25802"
       id="path4" />
    <path
       fill="#2a2d2f"
       d="M 182.37678,141.61991 C 186.06813,139.30382 191.43662,141.30297 194.35517,146.1302 C 197.27371,150.95742 196.63247,156.73546 192.9411,159.08406 C 189.24975,161.40015 183.88949,159.401 180.96272,154.57377 C 178.04417,149.74655 178.68543,143.96851 182.37678,141.61991"
       id="path5" />
    <path
       fill="#f7fbf5"
       d="M 184.91715,145.11437 C 186.80805,144.19606 189.70194,145.78075 191.33796,148.64133 C 192.9411,151.46127 192.71914,154.50876 190.82003,155.42707 C 188.89625,156.35351 186.00236,154.76069 184.39922,151.94074 C 182.76318,149.08017 182.98515,146.03268 184.91715,145.11437"
       id="path6" />
    <path
       fill="#2a2d2f"
       d="M 207.87915,153.14349 C 211.57051,150.82739 216.93077,152.82655 219.85754,157.65377 C 222.7432,162.481 222.13484,168.25904 218.41061,170.60764 C 214.71925,172.92373 209.35076,170.92457 206.4651,166.09735 C 203.53832,161.27013 204.17958,155.49209 207.87915,153.14349"
       id="path7" />
    <path
       fill="#f7fbf5"
       d="M 210.37842,156.63794 C 212.31042,155.71963 215.1632,157.30433 216.79923,160.15678 C 218.44348,162.98485 218.2133,166.03234 216.28951,166.95065 C 214.36574,167.87708 211.50474,166.28426 209.86871,163.46432 C 208.22445,160.60374 208.45464,157.55625 210.37842,156.63794"
       id="path8" />
  </g>
</svg>
