<?xml version="1.0" encoding="UTF-8" standalone="no"?>
<svg
   id="Nederlands_verkeersbord_J6"
   width="350"
   height="300"
   viewBox="0 0 350 300"
   version="1.1"
   sodipodi:docname="J7.svg"
   inkscape:version="1.3.2 (091e20e, 2023-11-25, custom)"
   xmlns:inkscape="http://www.inkscape.org/namespaces/inkscape"
   xmlns:sodipodi="http://sodipodi.sourceforge.net/DTD/sodipodi-0.dtd"
   xmlns="http://www.w3.org/2000/svg"
   xmlns:svg="http://www.w3.org/2000/svg">
  <defs
     id="defs8" />
  <sodipodi:namedview
     id="namedview8"
     pagecolor="#ffffff"
     bordercolor="#000000"
     borderopacity="0.25"
     inkscape:showpageshadow="2"
     inkscape:pageopacity="0.0"
     inkscape:pagecheckerboard="0"
     inkscape:deskcolor="#d1d1d1"
     inkscape:zoom="2.6233333"
     inkscape:cx="174.96823"
     inkscape:cy="150"
     inkscape:window-width="1920"
     inkscape:window-height="1001"
     inkscape:window-x="-9"
     inkscape:window-y="-9"
     inkscape:window-maximized="1"
     inkscape:current-layer="Nederlands_verkeersbord_J6" />
  <path
     id="rode_driehoek"
     fill="#c1121c"
     d="M 11,300 C 11,300 27.820331,300 11,300 C -3.9165388,300 3.7804912,283.85305 3.7804912,283.85305 L 164.90679,8.074496 C 164.90679,8.074496 161.40064,14.190767 164.90679,8.074496 C 171.16011,-2.85324 179.31089,-2.372093 185.11873,7.601505 L 346.21203,283.85305 C 346.21203,283.85305 353.91732,300 339,300 C 322.17219,300 339,300 339,300 L 11,300" />
  <path
     id="witte_driehoek"
     fill="#f7fbf5"
     d="M 175.483,73.698 L 283.20852,259.57553 L 66.297261,259.57553 L 175.483,73.698" />
  <path
     id="zwart_symbool"
     fill="#2a2d2f"
     d="M 123.22916,171.04938 L 72.249152,256.63866 L 277.61931,256.63866 L 123.22916,171.04938" />
  <g
     id="tekst_10_procent">
    <path
       fill="#f7fbf5"
       d="M 176.81423,157.60678 C 180.63337,160.14029 180.75978,167.20744 177.10935,173.33287 C 173.45042,179.44996 167.42253,182.31683 163.63719,179.74165 C 159.81815,177.16647 159.68325,170.14098 163.34209,164.01556 C 166.96728,157.9318 173.02049,155.0316 176.81423,157.60678"
       id="path3" />
    <path
       fill="#2a2d2f"
       d="M 210.17421,166.5574 C 214.0608,168.54087 214.9797,174.14126 212.24816,179.05827 C 209.4829,183.97528 204.07887,186.32544 200.15864,184.33363 C 196.27214,182.31683 195.35324,176.71644 198.11842,171.83277 C 200.88369,166.91576 206.28772,164.57393 210.17421,166.5574"
       id="path4" />
    <path
       fill="#f7fbf5"
       d="M 208.39539,170.466 C 210.14048,171.63275 210.19953,174.89131 208.52187,177.72484 C 206.84413,180.52504 204.04515,181.85846 202.30003,180.68338 C 200.55493,179.4833 200.48749,176.25807 202.16514,173.42454 C 203.85129,170.59101 206.61654,169.25759 208.39539,170.466"
       id="path5" />
    <path
       fill="#2a2d2f"
       d="M 212.80458,194.13431 C 216.72489,196.15112 217.64378,201.75151 214.87852,206.63518 C 212.11326,211.55219 206.70923,213.89402 202.82272,211.91055 C 198.94463,209.89374 198.01725,204.29335 200.74878,199.40968 C 203.52246,194.49267 208.91808,192.15084 212.80458,194.13431"
       id="path6" />
    <path
       fill="#f7fbf5"
       d="M 211.02574,198.04292 C 212.77085,199.20967 212.8383,202.46823 211.16064,205.30176 C 209.4829,208.10195 206.684,209.43538 204.9304,208.2603 C 203.18529,207.06021 203.12626,203.83499 204.80391,201.00146 C 206.48166,198.16793 209.24691,196.86784 211.02574,198.04292"
       id="path7" />
    <path
       fill="#2a2d2f"
       d="M 226.63928,176.03306 L 230.49206,179.12494 L 186.72022,201.71817 L 182.4122,199.08466 L 226.63928,176.03306"
       id="path8" />
  </g>
</svg>
