<?xml version="1.0" standalone="no"?>
<svg id="Nederlands_verkeersbord_K14" width="200" height="300" viewBox="0 0 200 300"
xmlns="http://www.w3.org/2000/svg" version="1.1">

<rect id="oranje_vlak" width="200" height="300" fill="#e15501" />

<path id="zwarte_bies" style="fill:#2a2d2f;stroke:#2a2d2f;stroke-width:0.21"
     d="M 179.99964,12.685233 L 181.39319,12.781353 L 182.74016,13.177803 L 183.99218,13.886633 L 185.12625,14.799663 L 186.04802,15.898933 L 186.73271,17.166393 L 187.1579,18.553993 L 187.22929,20.007663 L 187.22929,279.99233 L 187.1579,281.47003 L 186.73271,282.85762 L 186.04802,284.12509 L 185.12625,285.22436 L 183.99218,286.14339 L 182.74016,286.82219 L 181.39319,287.24266 L 179.99964,287.31474 L 20.023944,287.31474 L 18.606806,287.24266 L 17.283418,286.82219 L 16.007812,286.14339 L 14.897327,285.22436 L 13.975552,284.12509 L 13.266681,282.85762 L 12.865069,281.47003 L 12.770714,279.99233 L 12.770714,20.007663 L 12.865069,18.553993 L 13.266681,17.166393 L 13.975552,15.898933 L 14.897327,14.799663 L 16.007812,13.886633 L 17.283418,13.177803 L 18.606806,12.781353 L 20.023944,12.685233 L 179.99964,12.685233 z M 179.99964,294.91947 L 182.88171,294.70923 L 185.6936,293.79019 L 188.29199,292.4086 L 190.53654,290.60052 L 192.35589,288.37197 L 193.75005,285.78899 L 194.67122,282.99578 L 194.95488,280.13649 L 194.95488,19.869513 L 194.67122,17.028243 L 193.75005,14.235013 L 192.35589,11.724143 L 190.53654,9.4235026 L 188.29199,7.6214326 L 185.6936,6.2098026 L 182.88171,5.3207726 L 179.99964,5.1105526 L 20.023944,5.1105526 L 17.141886,5.3207726 L 14.329988,6.2098026 L 11.730995,7.6214326 L 9.4864363,9.4235026 L 7.6676866,11.724143 L 6.2499436,14.235013 L 5.3523618,17.028243 L 5.0686922,19.869513 L 5.0686922,280.13649 L 5.3523618,282.99578 L 6.2499436,285.78899 L 7.6676866,288.37197 L 9.4864363,290.60052 L 11.730995,292.4086 L 14.329988,293.79019 L 17.141886,294.70923 L 20.023944,294.91947 L 179.99964,294.91947" />

<path id="zwarte_pijl" style="fill:#2a2d2f;stroke:none"
     d="M 115.33328,111.70901 L 117.81433,166.49794 L 82.209257,166.49794 L 84.666113,111.70901 L 46.060452,120.62325 L 44.879196,120.83349 L 43.674362,120.69533 L 41.500562,119.84836 L 39.728382,118.18445 L 38.76004,116.02197 L 38.618508,114.82659 L 38.76004,113.65524 L 39.11448,112.45987 L 39.681218,111.42667 L 94.919959,32.069513 L 95.700195,31.174483 L 96.597778,30.471683 L 97.661088,29.907033 L 98.77157,29.582653 L 100.04718,29.438483 L 101.22842,29.582653 L 102.36251,29.907033 L 103.40223,30.471683 L 104.32339,31.174483 L 105.10302,32.069513 L 160.34237,111.42667 L 160.90911,112.45987 L 161.26353,113.65524 L 161.40507,114.82659 L 161.26353,116.02197 L 160.271,118.18445 L 158.52301,119.84836 L 156.34922,120.69533 L 155.14438,120.83349 L 153.96313,120.62325 L 115.33328,111.70901" />

<circle id="zwarte_cirkel" fill="#2a2d2f" cx="100" cy="237" r="42" />

</svg>