<?xml version="1.0" standalone="no"?>
<svg id="Nederlands_verkeersbord_L14" width="600" height="600" xmlns="http://www.w3.org/2000/svg" version="1.1">
	<path id="vlak_blauw" fill="#0e518d" d="M0,30 a30,30 0 0,1 30,-30 h540 a30,30 0 0,1 30,30 v540 a30,30 0 0,1 -30,30 h-540 a30,30 0 0,1 -30,-30 z"/>
	<path id="symbool_wit" style="fill:none;stroke-width:43px;stroke:#f7fbf5" d="m 295.5,64 v 86 l 172,64.5 v 172 l -172,64.5 v 86 m -86,-86 v 86 m 0,-215 v 86 m 0,-215 v 86 m 0,-215 v 86"/>
	<path id="bies_wit" style="fill:none;stroke-width:15;stroke:#f7fbf5" d="M21.5,44 a22.5,22.5 0 0,1 22.5,-22.5 h512 a22.5,22.5 0 0,1 22.5,22.5 v512 a22.5,22.5 0 0,1 -22.5,22.5 h-512 a22.5,22.5 0 0,1 -22.5,-22.5 z"/>
</svg>