<?xml version="1.0" standalone="no"?>
<svg id="Nederlands_verkeersbord_L2" width="200" height="300" viewBox="0 0 200 300"
xmlns="http://www.w3.org/2000/svg" version="1.1">

<rect id="blauw_vlak" width="200" height="300" fill="#0e518d" />

<path id="witte_bies" style="fill:none;stroke:#f7fbf5;stroke-width:6.81238413"
     d="M 178.28031,292.12075 C 185.55524,292.31216 191.9724,285.04682 191.9724,276.33002 L 191.9724,23.67813 C 191.9724,14.95336 186.97948,7.696 175.90928,7.8874 L 22.00282,7.8874 C 11.34532,7.696 9.26562,14.95336 9.26562,23.67813 L 9.26562,276.33002 C 9.26562,285.04682 12.7372,292.31216 22.00282,292.12075 L 178.28031,292.12075" />

<path id="witte_achtergrond" fill="#f7fbf5"
     d="M 94.23421,50.123647 L 167.18584,97.479923 L 167.18584,206.20476 L 94.23421,251.21636 L 94.23421,294.48936 L 27.78878,294.48936 L 27.78878,5.11206 L 94.23421,5.11206 L 94.23421,50.123647" />

<path id="zwarte_strepen" fill="#2a2d2f"
     d="M 92.46875 59.15625 L 92.46875 83.75 L 101.9375 83.75 L 101.9375 59.15625 L 92.46875 59.15625 z M 92.46875 97.75 L 92.46875 122.3125 L 101.9375 122.3125 L 101.9375 97.75 L 92.46875 97.75 z M 92.46875 136.34375 L 92.46875 160.90625 L 101.9375 160.90625 L 101.9375 136.34375 L 92.46875 136.34375 z M 92.46875 174.9375 L 92.46875 199.5 L 101.9375 199.5 L 101.9375 174.9375 L 92.46875 174.9375 z M 92.46875 213.53125 L 92.46875 238.0625 L 101.9375 238.0625 L 101.9375 213.53125 L 92.46875 213.53125" />

<path id="zwarte_tekst_SOS" style="fill:#2a2d2f;stroke:#2a2d2f;stroke-width:0.94"      
       d="M 128.71529,116.45274 L 133.02037,115.86258 C 133.27122,117.88826 133.80532,119.37961 134.59836,120.3127 C 135.3914,121.27769 136.45958,121.74822 137.78671,121.74822 C 139.21094,121.74822 140.28721,121.30959 141.01551,120.4722 C 141.74382,119.62684 142.09177,118.62995 142.09177,117.51343 C 142.09177,116.79567 141.92993,116.17361 141.64671,115.63928 C 141.33112,115.14482 140.8213,114.70619 140.06872,114.33136 C 139.52654,114.05223 138.36125,113.6136 136.52431,112.95964 C 134.15329,112.15415 132.51055,111.12536 131.56377,109.93707 C 130.23663,108.23039 129.57306,106.17281 129.57306,103.74039 C 129.57306,102.18525 129.88867,100.68592 130.48749,99.346101 C 131.11869,97.97438 132.0412,96.953565 133.20649,96.235803 C 134.41223,95.518043 135.82838,95.175113 137.50348,95.175113 C 140.25484,95.175113 142.31027,96.012501 143.70213,97.695251 C 145.094,99.378002 145.82231,101.61901 145.87895,104.45816 L 141.49295,104.70538 C 141.29874,103.15023 140.88604,101.99384 140.25484,101.30798 C 139.65602,100.62212 138.70922,100.27919 137.47111,100.27919 C 136.17635,100.27919 135.16482,100.65402 134.46889,101.40368 C 133.99953,101.87422 133.74058,102.49628 133.74058,103.30176 C 133.74058,104.01952 133.96716,104.64158 134.41223,105.17592 C 134.97869,105.82988 136.33819,106.51574 138.45836,107.2335 C 140.60281,107.94328 142.18079,108.69295 143.22469,109.44261 C 144.23623,110.22417 145.06163,111.24498 145.62809,112.58481 C 146.22692,113.9007 146.51823,115.55155 146.51823,117.48153 C 146.51823,119.25201 146.17026,120.90286 145.47434,122.43408 C 144.7784,123.98923 143.79924,125.11372 142.50447,125.86338 C 141.234,126.60507 139.65602,126.9799 137.76242,126.9799 C 134.97869,126.9799 132.85852,126.11061 131.37764,124.30026 C 129.88867,122.49788 129.00661,119.88204 128.71529,116.45274 z M 131.81462,149.28632 C 131.81462,152.77942 132.41345,155.39526 133.55446,157.19764 C 134.69547,159.00799 136.14398,159.87728 137.88381,159.87728 C 139.65602,159.87728 141.11262,159.00799 142.24552,157.19764 C 143.35417,155.42716 143.92062,152.77942 143.92062,149.19062 C 143.92062,145.67359 143.38653,143.05775 142.27789,141.31119 C 141.16927,139.59654 139.72075,138.72726 137.88381,138.72726 C 136.08733,138.72726 134.63072,139.59654 133.48972,141.3431 C 132.38917,143.12155 131.81462,145.73739 131.81462,149.28632 z M 127.29916,149.50165 C 127.29916,146.35945 127.64712,143.74361 128.31069,141.59032 C 128.78002,140.03518 129.47596,138.63155 130.33374,137.38743 C 131.18343,136.14332 132.13023,135.23415 133.14176,134.61209 C 134.50125,133.8066 136.08733,133.43177 137.85145,133.43177 C 141.08025,133.43177 143.63739,134.8354 145.56335,137.63466 C 147.4974,140.44191 148.47656,144.33377 148.47656,149.35012 C 148.47656,154.30267 147.4974,158.19453 145.59573,161.00177 C 143.66977,163.80104 141.11262,165.20466 137.91618,165.20466 C 134.66309,165.20466 132.09785,163.80104 130.17189,161.00177 C 128.27831,158.22643 127.29916,154.39837 127.29916,149.50165 z M 128.71529,192.96606 L 133.02037,192.36793 C 133.27122,194.39361 133.80532,195.89293 134.59836,196.82602 C 135.3914,197.79101 136.45958,198.26154 137.78671,198.26154 C 139.21094,198.26154 140.28721,197.85481 141.01551,196.97755 C 141.74382,196.14016 142.09177,195.17517 142.09177,194.01878 C 142.09177,193.30899 141.92993,192.67896 141.64671,192.1845 C 141.33112,191.65814 140.8213,191.21951 140.06872,190.84468 C 139.52654,190.59745 138.36125,190.12692 136.52431,189.47296 C 134.15329,188.66747 132.51055,187.63868 131.56377,186.45039 C 130.23663,184.73573 129.57306,182.68613 129.57306,180.25372 C 129.57306,178.69857 129.88867,177.23114 130.48749,175.85942 C 131.11869,174.4877 132.0412,173.45891 133.20649,172.74115 C 134.41223,172.03136 135.82838,171.68844 137.50348,171.68844 C 140.25484,171.68844 142.31027,172.49392 143.70213,174.20857 C 145.094,175.89132 145.82231,178.13233 145.87895,180.97148 L 141.49295,181.25061 C 141.29874,179.66356 140.88604,178.50716 140.25484,177.8213 C 139.65602,177.13544 138.70922,176.79251 137.47111,176.79251 C 136.17635,176.79251 135.16482,177.16734 134.46889,177.91701 C 133.99953,178.37956 133.74058,179.0096 133.74058,179.81508 C 133.74058,180.53285 133.96716,181.1549 134.41223,181.68924 C 134.97869,182.3432 136.33819,183.02108 138.45836,183.73884 C 140.60281,184.45661 142.18079,185.20627 143.22469,185.95593 C 144.23623,186.72951 145.06163,187.75831 145.62809,189.09813 C 146.22692,190.40605 146.51823,192.0569 146.51823,193.98688 C 146.51823,195.76533 146.17026,197.41618 145.47434,198.9474 C 144.7784,200.50255 143.79924,201.62704 142.50447,202.36873 C 141.234,203.15029 139.65602,203.52512 137.76242,203.52512 C 134.97869,203.52512 132.85852,202.62393 131.37764,200.81358 C 129.88867,199.00323 129.00661,196.38739 128.71529,192.96606" />

</svg>