<?xml version="1.0" standalone="no"?>
<svg id="Nederlands_verkeersbord_L16" width="600" height="600" xmlns="http://www.w3.org/2000/svg" version="1.1">
	<path id="vlak_blauw" fill="#0e518d" d="M0,30 a30,30 0 0,1 30,-30 h540 a30,30 0 0,1 30,30 v540 a30,30 0 0,1 -30,30 h-540 a30,30 0 0,1 -30,-30 z"/>
	<rect id="vlak_wit" fill="#f7fbf5" width="420" height="420" x="90" y="90"/>
	<path id="symbool_telefoonhoorn_zwart" fill="#231f20" d="M 365.18307,235.26533 C 319.66372,187.13773 244.41744,142.3151 210.52803,142.3151 c -33.87154,0 -43.75074,12.14802 -57.02424,25.40366 -13.27351,13.2735 -22.86687,34.72905 -16.3641,41.23181 6.4849,6.4849 103.88345,61.54403 103.88345,61.54403 l 29.35176,-35.01489 c 0,0 33.88941,27.67248 46.87708,40.66015 12.98766,12.98766 46.85921,51.37898 46.85921,51.37898 l -34.44322,28.79796 46.16248,86.92982 c 11.89792,18.68651 14.02382,19.11527 34.58614,10.73671 31.26329,-12.7197 47.35942,-41.62484 47.35942,-59.13229 0,-17.50744 -15.56019,-50.43215 -25.90387,-69.63675 -9.05742,-16.81072 -18.56146,-39.07018 -66.68907,-89.94896"/>
	<path id="tekst_sos_zwart" fill="#2a2d2f" d="m 325.92531,452.96861 c 4.14462,0 7.43173,4.44832 7.43173,10.03998 0,5.46661 -3.28711,10.03999 -7.43173,10.03999 -4.0553,0 -7.34241,-4.57338 -7.34241,-10.03999 0,-5.59166 3.28711,-10.03998 7.34241,-10.03998 m -31.92429,-63.97899 c 12.75542,0 20.34794,10.82603 22.63462,14.36325 l -8.6108,10.27223 c -1.01829,-1.58997 -5.8239,-8.45003 -13.59507,-9.00383 -4.98426,-0.3573 -10.98681,2.03658 -10.98681,8.43215 0,5.69886 3.46576,6.37772 13.09485,9.12889 7.43173,2.16163 21.70566,4.5555 21.70566,25.08209 0,18.59719 -13.84517,25.65376 -24.0638,25.65376 -10.2365,0 -19.34751,-5.91323 -25.85028,-16.64993 l 9.03956,-9.34326 c 2.10804,3.76946 8.43216,10.25436 15.61378,10.71884 6.59209,0.33943 13.77371,-3.41216 13.77371,-9.80774 0,-7.7533 -4.98426,-8.09273 -15.79242,-11.52276 -9.12889,-2.96554 -19.16887,-6.50276 -19.16887,-23.93875 0,-18.59719 13.9345,-23.38494 22.20587,-23.38494 m -46.03028,63.97899 c 4.14462,0 7.43173,4.44832 7.43173,10.03998 0,5.46661 -3.28711,10.03999 -7.43173,10.03999 -4.0553,0 -7.34241,-4.57338 -7.34241,-10.03999 0,-5.59166 3.28711,-10.03998 7.34241,-10.03998 m -44.50643,-42.65385 c -2.7869,4.55551 -4.39472,11.52276 -4.39472,20.75883 0,9.34325 1.60782,16.3105 4.48405,20.75882 2.44747,3.87665 5.39515,5.80604 9.70055,5.80604 4.48405,0 7.36027,-1.8222 9.71842,-5.5738 2.96554,-4.34113 4.55551,-11.41556 4.55551,-20.99106 0,-9.5755 -1.58997,-16.64994 -4.55551,-21.09826 -2.35815,-3.76946 -5.23437,-5.59166 -9.71842,-5.59166 -4.3054,0 -7.25308,1.94725 -9.78988,5.93109 m 28.1191,52.00425 c -4.80561,7.30668 -10.89749,10.8439 -18.32922,10.8439 -7.34241,0 -13.25564,-3.66227 -18.06125,-11.07614 -4.98426,-7.86048 -7.36027,-18.13271 -7.36027,-31.01318 0,-12.89835 2.37601,-23.15271 7.43173,-31.03105 4.73415,-7.52106 10.64738,-11.27265 17.98979,-11.27265 7.43173,0 13.2735,3.75159 18.07911,11.05827 5.07359,7.86048 7.61038,18.2399 7.68184,31.24543 0,13.00553 -2.35814,23.49213 -7.43173,31.24542 m -65.36708,-9.3504 c 4.14462,0 7.43173,4.44832 7.43173,10.03998 0,5.46661 -3.28711,10.03999 -7.43173,10.03999 -4.05529,0 -7.3424,-4.57338 -7.3424,-10.03999 0,-5.59166 3.28711,-10.03998 7.3424,-10.03998 m -31.92428,-63.97899 c 12.75542,0 20.34793,10.82603 22.63462,14.36325 l -8.6108,10.27223 c -1.01829,-1.58997 -5.82391,-8.45003 -13.59507,-9.00383 -4.98426,-0.3573 -10.98681,2.03658 -10.98681,8.43215 0,5.69886 3.46575,6.37772 13.09485,9.12889 7.43173,2.16163 21.70566,4.5555 21.70566,25.08209 0,18.59719 -13.84518,25.65376 -24.06381,25.65376 -10.23649,0 -19.34751,-5.91323 -25.85027,-16.64993 l 9.03955,-9.34326 c 2.10804,3.76946 8.43216,10.25436 15.61379,10.71884 6.59208,0.33943 13.77371,-3.41216 13.77371,-9.80774 0,-7.7533 -4.98426,-8.09273 -15.79243,-11.52276 -9.12888,-2.96554 -19.16886,-6.50276 -19.16886,-23.93875 0,-18.59719 13.93449,-23.38494 22.20587,-23.38494"/>
	<path id="bies_wit" style="fill:none;stroke-width:15;stroke:#f7fbf5" d="M21.5,44 a22.5,22.5 0 0,1 22.5,-22.5 h512 a22.5,22.5 0 0,1 22.5,22.5 v512 a22.5,22.5 0 0,1 -22.5,22.5 h-512 a22.5,22.5 0 0,1 -22.5,-22.5 z"/>
</svg>