<?xml version="1.0" standalone="no"?>
<svg id="Nederlands_verkeersbord_L17" width="600" height="600" xmlns="http://www.w3.org/2000/svg" version="1.1">
	<path id="vlak_blauw" fill="#0e518d" d="M0,30 a30,30 0 0,1 30,-30 h540 a30,30 0 0,1 30,30 v540 a30,30 0 0,1 -30,30 h-540 a30,30 0 0,1 -30,-30 z"/>
	<rect id="vlak_wit" fill="#f7fbf5" width="420" height="420" x="90" y="90"/>
	<path id="symbool_rood" style="fill:#c1121c" d="M 284.04688 118.76172 L 284.04688 130.65234 L 278.5332 130.65234 L 258.31055 130.65234 L 210.98633 164.40039 L 210.98633 203.61328 L 219.9375 203.61328 L 225.5293 183.01367 L 265.02734 159.07617 L 278.5332 159.57617 L 284.04688 159.57617 L 284.04688 182.21289 L 246.95508 182.21289 C 241.54207 182.21289 237.12891 186.62409 237.12891 192.03711 L 237.25391 479.41016 L 361.7168 479.58789 L 361.48438 192.03711 C 361.48438 186.62409 357.07318 182.21289 351.66016 182.21289 L 313.0957 182.21289 L 313.0957 159.57617 L 323.07031 159.57617 C 337.32637 159.57617 348.88477 153.10858 348.88477 145.12305 C 348.88477 137.11964 337.32637 130.65234 323.07031 130.65234 L 313.0957 130.65234 L 313.0957 118.76172 L 284.04688 118.76172 z "/>
	<path id="bies_wit" style="fill:none;stroke-width:15;stroke:#f7fbf5" d="M21.5,44 a22.5,22.5 0 0,1 22.5,-22.5 h512 a22.5,22.5 0 0,1 22.5,22.5 v512 a22.5,22.5 0 0,1 -22.5,22.5 h-512 a22.5,22.5 0 0,1 -22.5,-22.5 z"/>
</svg>