<?xml version="1.0" standalone="no"?>
<svg id="Nederlands_verkeersbord_L18" width="240" height="125" viewBox="0 0 240 125"
xmlns="http://www.w3.org/2000/svg" version="1.1">

<path id="wit_bord_met_zwarte_rand" style="fill:#f7fbf5;stroke:#2a2d2f;stroke-width:2.28"
     d="M 217.06963,123.85914 C 238.85914,123.85914 238.85914,102.77357 238.85914,102.77357 L 238.85914,22.218845 C 238.85914,22.218845 238.85914,1.1408653 217.06963,1.1408653 L 22.960865,1.1408653 C 1.1408653,1.1408653 1.1408653,22.218845 1.1408653,22.218845 L 1.1408653,102.77357 C 1.1408653,102.77357 1.1408653,123.85914 22.960865,123.85914 L 217.06963,123.85914" />

<path id="rode_brandblusser" style="fill:#c1121c;stroke:none"
     d="M 35.78125,13.696745 L 35.78125,16.915495 L 28.875,16.915495 L 16.1875,25.915495 L 16.1875,36.384245 L 18.5625,36.384245 L 20.0625,30.915495 L 30.6875,24.509245 L 34.3125,24.602995 L 35.78125,24.602995 L 35.78125,30.696745 L 25.8125,30.696745 C 24.35682,30.696745 23.1875,31.872035 23.1875,33.321745 L 23.21875,110.1655 L 56.625,110.19675 L 56.5625,33.321745 C 56.5625,31.872025 55.393169,30.696745 53.9375,30.696745 L 43.5625,30.696745 L 43.5625,24.602995 L 46.28125,24.602995 C 50.091928,24.603005 53.1875,22.892085 53.1875,20.759245 C 53.1875,18.618815 50.09193,16.915495 46.28125,16.915495 L 43.5625,16.915495 L 43.5625,13.696745 L 35.78125,13.696745" />

<path id="tekst_S.O.S." fill="#2a2d2f"
     d="M 119.53125,64.071745 C 115.54528,64.071745 112.34203,66.135985 109.78125,70.196745 C 107.0147,74.470015 105.71875,80.011105 105.71875,87.009245 C 105.71875,93.977045 107.01316,99.555165 109.71875,103.7905 C 112.34049,107.82089 115.54528,109.79049 119.53125,109.7905 C 123.5782,109.7905 126.87825,107.88605 129.5,103.94675 C 132.23607,99.734185 133.5625,94.068145 133.5625,87.009245 C 133.50153,79.957965 132.1492,74.337435 129.375,70.071745 C 126.75325,66.124845 123.5782,64.071735 119.53125,64.071745 z M 76.59375,64.196745 C 72.10476,64.196745 64.531247,66.803565 64.53125,76.852995 C 64.53125,86.310375 69.991216,88.251455 74.9375,89.852995 C 80.82882,91.689825 83.562501,91.889565 83.5625,96.071745 C 83.5625,99.540475 79.636161,101.55883 76.03125,101.38425 C 72.12911,101.14136 68.690481,97.621105 67.5625,95.571745 L 62.65625,100.63425 C 66.20018,106.44835 71.12389,109.66551 76.6875,109.6655 C 82.25873,109.6655 89.812499,105.8475 89.8125,95.790495 C 89.8125,84.678455 82.015687,83.357155 77.96875,82.165495 C 72.73286,80.685415 70.874997,80.340865 70.875,77.259245 C 70.875,73.790525 74.100052,72.460575 76.84375,72.665495 C 81.0355,72.969105 83.654782,76.682805 84.21875,77.540495 L 88.90625,72.009245 C 87.6792,70.081345 83.536813,64.196755 76.59375,64.196745 z M 163.46875,64.196745 C 158.97214,64.196745 151.375,66.803565 151.375,76.852995 C 151.375,86.310375 156.8426,88.251455 161.78125,89.852995 C 167.68019,91.689825 170.375,91.889565 170.375,96.071745 C 170.375,99.540475 166.47305,101.55883 162.90625,101.38425 C 158.97362,101.14136 155.57234,97.621105 154.40625,95.571745 L 149.5,100.63425 C 153.04394,106.44835 157.96003,109.66551 163.53125,109.6655 C 169.09484,109.6655 176.62501,105.8475 176.625,95.790495 C 176.625,84.678455 168.85944,83.357155 164.8125,82.165495 C 159.56899,80.685415 157.71874,80.340865 157.71875,77.259245 C 157.71875,73.790525 160.98192,72.460575 163.6875,72.665495 C 167.91737,72.969105 170.529,76.682805 171.0625,77.540495 L 175.75,72.009245 C 174.53059,70.081345 170.40419,64.196755 163.46875,64.196745 z M 119.53125,72.571745 C 121.97009,72.571745 123.54051,73.529995 124.84375,75.571745 C 126.45187,77.977845 127.3125,81.825165 127.3125,87.009245 C 127.3125,92.200945 126.45187,96.015215 124.84375,98.352995 C 123.54051,100.40235 121.97009,101.38426 119.53125,101.38425 C 117.20674,101.38425 115.62262,100.3305 114.28125,98.227995 C 112.70364,95.821895 111.8125,92.079515 111.8125,87.009245 C 111.8125,81.999725 112.70211,78.218455 114.21875,75.759245 C 115.62109,73.596035 117.20674,72.571755 119.53125,72.571745 z M 93.96875,98.852995 C 91.76617,98.852995 89.968754,101.26203 89.96875,104.2905 C 89.96875,107.25068 91.766167,109.728 93.96875,109.728 C 96.23229,109.728 98.031251,107.25069 98.03125,104.2905 C 98.03125,101.26202 96.232287,98.852985 93.96875,98.852995 z M 138.40625,98.852995 C 136.20368,98.852995 134.4375,101.26203 134.4375,104.2905 C 134.4375,107.25068 136.20369,109.728 138.40625,109.728 C 140.66979,109.728 142.46875,107.25069 142.46875,104.2905 C 142.46875,101.26202 140.6698,98.852985 138.40625,98.852995 z M 180.8125,98.852995 C 178.60993,98.852995 176.81249,101.26203 176.8125,104.2905 C 176.8125,107.25068 178.60993,109.728 180.8125,109.728 C 183.07605,109.728 184.84374,107.25069 184.84375,104.2905 C 184.84375,101.26202 183.07605,98.852985 180.8125,98.852995" />

<path id="zwarte_telefoonnummer" fill="#2a2d2f"     
     d="M 204.71538,42.317665 C 191.14172,28.032935 168.68916,14.719735 158.56796,14.719735 C 148.47727,14.719735 145.5278,18.302295 141.57231,22.249195 C 137.60919,26.188515 134.72069,32.564275 136.65652,34.492185 C 138.62283,36.420095 167.68313,52.784555 167.68313,52.784555 L 176.43247,42.378395 C 176.43247,42.378395 186.52317,50.590995 190.4253,54.446805 C 194.29697,58.332985 204.38766,69.718265 204.38766,69.718265 L 194.11405,78.287605 L 207.90112,104.10945 C 211.44506,109.65788 212.07001,109.80209 218.1976,107.31251 C 227.51853,103.51742 232.34287,94.917725 232.34287,89.733615 C 232.34287,84.541925 227.70145,74.758155 224.59955,69.065505 C 221.92445,64.055995 219.06644,57.444935 204.71538,42.317665" />

</svg>