<?xml version="1.0" standalone="no"?>
<svg id="Nederlands_verkeersbord_L19_(rechts)" width="275" height="100" viewBox="0 0 275 100"
xmlns="http://www.w3.org/2000/svg" version="1.1">

<path id="groen_bord_met_zwarte_rand"
     d="M 273.54297,98.542971 L 1.457031,98.542971 L 1.457031,1.457031 L 273.54297,1.457031 L 273.54297,98.542971 z "
     style="fill:#008754;stroke:#2a2d2f;stroke-width:2.91406202" />

<path id="wit_vluchtend_persoon" fill="#f7fbf5"
     d="M 61.84375 12.40625 C 56.15455 12.40625 51.5625 17.02709 51.5625 22.75 C 51.5625 25.00975 52.303958 27.107263 53.53125 28.8125 L 31.40625 28.8125 L 22.15625 46.96875 L 29.90625 50.9375 C 29.90625 50.9375 34.977688 41.02099 36.75 37.59375 C 37.970511 37.59375 39.751813 37.59375 42.0625 37.59375 L 28.15625 63.9375 C 24.116136 63.9375 23.155155 63.937499 8.4375 63.9375 L 8.4375 74.875 L 44 74.875 L 50.46875 62.34375 C 52.936014 64.681958 61.637492 72.917153 63.65625 74.8125 C 63.65625 77.95482 63.65625 94.500002 63.65625 94.5 L 72.34375 94.5 L 72.34375 71.0625 L 54.65625 54.3125 L 57.75 48.28125 L 71.59375 61.40625 L 77.5625 55.03125 L 61.9375 40.21875 L 63.78125 36.65625 L 61.8125 33.09375 C 61.822915 33.093781 61.833328 33.09375 61.84375 33.09375 C 67.53295 33.093748 72.125 28.44036 72.125 22.75 C 72.125001 17.027089 67.53295 12.40625 61.84375 12.40625" />

<path id="tekst_50m" fill="#f7fbf5"
     d="M 126.10138,24.511436 L 114.69062,24.511436 L 114.56923,30.551846 C 115.2652,30.462306 116.14731,30.266926 117.28838,30.266926 C 121.42377,30.266926 126.79736,32.147426 126.79736,39.522916 C 126.79736,44.830646 122.91283,49.128946 115.29757,49.128946 C 113.01541,49.128946 110.32862,48.778896 108.37018,48.331166 L 108.53204,43.243216 C 109.94826,43.813066 111.97145,44.675976 114.56923,44.675976 C 117.66874,44.675976 120.88965,43.275776 120.88965,39.677586 C 120.88965,36.022406 117.50689,34.752456 114.09174,34.752456 C 112.28706,34.752456 110.55522,35.004826 108.81528,35.517686 L 109.1309,20.310836 L 126.10138,20.310836 L 126.10138,24.511436 z M 145.00603,34.557076 C 145.00603,30.901896 145.00603,24.031136 140.61166,24.031136 C 136.28205,24.031136 136.28205,30.901896 136.28205,34.557076 C 136.28205,38.122716 136.24968,44.895776 140.61166,44.895776 C 145.07077,44.895776 145.00603,38.122716 145.00603,34.557076 z M 130.37435,34.557076 C 130.37435,27.433956 132.61603,19.806116 140.61166,19.806116 C 149.24662,19.806116 150.95419,27.979386 150.95419,34.557076 C 150.95419,41.110346 149.18188,49.128946 140.61166,49.128946 C 131.50733,49.128946 130.37435,40.475376 130.37435,34.557076 z M 167.04257,27.727026 L 172.31903,27.727026 L 172.31903,30.649536 L 172.41614,30.649536 C 174.18846,28.101496 176.77814,27.246726 178.89843,27.246726 C 181.96558,27.246726 184.11016,28.329436 185.34835,30.934466 C 186.64319,28.427126 189.49183,27.246726 192.14625,27.246726 C 197.55221,27.246726 199.06555,30.779786 199.06555,35.452566 L 199.06555,48.648646 L 193.37634,48.648646 L 193.37634,36.185226 C 193.37634,34.207026 193.37634,31.479886 190.12306,31.479886 C 186.35994,31.479886 185.88247,35.770046 185.88247,38.505326 L 185.88247,48.648646 L 180.19327,48.648646 L 180.19327,36.185226 C 180.19327,34.207026 180.19327,31.479886 176.93999,31.479886 C 173.17686,31.479886 172.69939,35.770046 172.69939,38.505326 L 172.69939,48.648646 L 167.04257,48.648646 L 167.04257,27.727026" />

<path id="witte_pijl" fill="#f7fbf5"     
     d="M 163.46875 52.09375 L 163.46875 61.4375 L 111.8125 61.4375 L 111.8125 78.375 L 163.46875 78.375 L 163.46875 87.8125 L 198.40625 69.9375 L 163.46875 52.09375" />

<rect id="witte_deur" fill="#f7fbf5"
     width="38.149" height="72.6" x="220.503" y="14.433" />

</svg>