<?xml version="1.0" standalone="no"?>
<svg id="Nederlands_verkeersbord_L2" width="600" height="600" xmlns="http://www.w3.org/2000/svg" version="1.1">
	<path id="vlak_blauw" fill="#0e518d" d="M0,30 a30,30 0 0,1 30,-30 h540 a30,30 0 0,1 30,30 v540 a30,30 0 0,1 -30,30 h-540 a30,30 0 0,1 -30,-30 z"/>
	<path id="driehoek_wit" fill="#f7fbf5" d="M 300,64.308 60,480 540,480 Z"/>
	<path id="symbool_zwart" fill="#2a2d2f" d="m 360.66224,366.64194 h 28.2049 l 30.87202,94.71645 h -53.2259 l -7.70134,-44.02431 19.53672,-14.76924 z m -71.17736,0 h 30.73867 l 7.96805,94.71645 h -26.60462 -26.60462 l 6.43445,-75.94652 z m 165.90047,94.72478 h 51.62563 l -51.62563,-94.71645 h -39.3735 z m -307.58674,0 H 96.17298 l 51.62563,-94.71645 h 39.3735 z m 88.86877,0 h -53.20924 l 30.85536,-94.71645 h 38.85675 z m 66.15148,-264.93433 c -6.48446,0 -12.30214,2.93384 -16.1528,7.55131 l -60.04376,61.444 7.65133,7.96805 47.82497,-36.65636 c 0.95016,20.40354 5.10088,41.75725 5.10088,41.75725 l -37.6232,135.50686 h 14.0191 l 44.32437,-102.01771 15.9361,43.67425 36.1396,53.87602 11.46866,-9.56833 -28.47161,-56.42646 -13.71905,-68.86196 -0.31672,-36.98976 10.51849,7.65133 7.33461,36.98976 10.51849,0.63344 -3.18388,-45.90797 -34.43931,-35.7062 c -7.63466,-7.01788 -16.88627,-4.91752 -16.88627,-4.91752 m 0,-3.13388 c 11.63535,0 21.07033,-9.43497 21.07033,-21.07033 0,-11.63535 -9.43498,-21.07032 -21.07033,-21.07032 -11.63535,0 -21.07033,9.43497 -21.07033,21.07032 0,11.63536 9.43498,21.07033 21.07033,21.07033"/>
	<path id="bies_wit" style="fill:none;stroke-width:15;stroke:#f7fbf5" d="M21.5,44 a22.5,22.5 0 0,1 22.5,-22.5 h512 a22.5,22.5 0 0,1 22.5,22.5 v512 a22.5,22.5 0 0,1 -22.5,22.5 h-512 a22.5,22.5 0 0,1 -22.5,-22.5 z"/>
</svg>