<?xml version="1.0" standalone="no"?>
<svg id="Nederlands_verkeersbord_L21" width="600" height="600" xmlns="http://www.w3.org/2000/svg" version="1.1">
	<path id="vlak_blauw" fill="#0e518d" d="M0,30 a30,30 0 0,1 30,-30 h540 a30,30 0 0,1 30,30 v540 a30,30 0 0,1 -30,30 h-540 a30,30 0 0,1 -30,-30 z"/>
	<path id="linker_pijlstaart" style="fill:#f7fbf5;stroke-width:2" d="m 238,448 v -40 c -16.56854,0 -30,-13.43146 -30,-30 v -137.60156 -0.2422 h 0.012 c 0.0996,-12.38186 7.69276,-22.95744 18.45312,-27.4492 l 107.65626,-44.58986 -0.004,-0.0704 0.0274,0.0624 C 358.78902,157.27448 376,132.64778 376,104 V 64 h -40 v 40 c 0,12.3363 -7.45084,22.92622 -18.09376,27.53516 l -106.84764,44.2578 -0.008,-0.016 C 186.46612,186.04128 168.98936,209.9247 168.04296,238 h -0.043 v 2.39844 L 168,378 c 0,38.65994 31.34006,70 70,70 z"/>
	<path id="linker_pijlpunt" style="fill:#f7fbf5;stroke:#f7fbf5;stroke-width:16px;stroke-linejoin:round" d="m 180.36308,485.03916 123.63736,-26.7206 -68.53064,-106.3198 -12.7712,72.6432 z"/>
	<path id="rechter_pijlstaart" style="fill:#f7fbf5;stroke:#f7fbf5;stroke-width:40px" d="M 356,536 V 296"/>
	<path id="rechter_pijlpunt" style="fill:#f7fbf5;stroke:#f7fbf5;stroke-width:16px;stroke-linejoin:round" d="M 428,316 356,212 284,316 356,300 Z"/>
	<path id="bies_wit" style="fill:none;stroke-width:15;stroke:#f7fbf5" d="M21.5,44 a22.5,22.5 0 0,1 22.5,-22.5 h512 a22.5,22.5 0 0,1 22.5,22.5 v512 a22.5,22.5 0 0,1 -22.5,22.5 h-512 a22.5,22.5 0 0,1 -22.5,-22.5 z"/>
</svg>